<svg width="60" height="23" viewBox="0 0 60 23" fill="none" xmlns="http://www.w3.org/2000/svg">
<path d="M49.6195 0.499285C47.1396 0.499285 44.8646 1.40819 43.0797 2.92302C41.2327 1.35105 38.9222 0.49475 36.5398 0.499285C34.0599 0.499285 31.785 1.40819 30 2.92302C28.153 1.35105 25.8425 0.49475 23.4602 0.499285C20.9802 0.499285 18.7053 1.40819 16.9203 2.92302C15.3973 1.63183 13.5554 0.817874 11.6078 0.575446C9.6602 0.333019 7.68674 0.672044 5.91601 1.55325C4.14529 2.43445 2.64978 3.82176 1.60274 5.55445C0.555708 7.28715 0 9.29431 0 11.3434C0 13.3925 0.555708 15.3997 1.60274 17.1324C2.64978 18.8651 4.14529 20.2524 5.91601 21.1336C7.68674 22.0148 9.6602 22.3538 11.6078 22.1114C13.5554 21.869 15.3973 21.055 16.9203 19.7638C18.7053 21.2786 20.9802 22.1875 23.4602 22.1875C25.9401 22.1875 28.215 21.2786 30 19.7638C31.785 21.2786 34.0599 22.1875 36.5398 22.1875C39.0198 22.1875 41.2947 21.2786 43.0797 19.7638C44.3698 20.8576 45.8924 21.6118 47.5195 21.9631C49.1466 22.3144 50.8307 22.2525 52.4301 21.7826C54.0296 21.3127 55.4977 20.4486 56.711 19.2628C57.9244 18.077 58.8476 16.6042 59.403 14.9682C59.9583 13.3322 60.1297 11.5809 59.9026 9.86136C59.6755 8.14183 59.0567 6.50437 58.098 5.08662C57.1394 3.66887 55.869 2.51226 54.3936 1.714C52.9183 0.915745 51.281 0.499168 49.6195 0.499285ZM43.0797 16.217C42.1058 14.7958 41.583 13.0913 41.5847 11.3434C41.5847 9.52561 42.1397 7.84362 43.0797 6.46982C44.0197 7.84362 44.5747 9.52561 44.5747 11.3434C44.5747 13.1612 44.0197 14.8432 43.0797 16.217ZM30 16.217C29.0261 14.7958 28.5033 13.0913 28.505 11.3434C28.505 9.52561 29.06 7.84362 30 6.46982C30.94 7.84362 31.495 9.52561 31.495 11.3434C31.495 13.1612 30.94 14.8432 30 16.217ZM16.9203 16.217C15.9465 14.7958 15.4236 13.0913 15.4253 11.3434C15.4253 9.52561 15.9803 7.84362 16.9203 6.46982C17.8603 7.84362 18.4153 9.52561 18.4153 11.3434C18.4153 13.1612 17.8603 14.8432 16.9203 16.217ZM2.34565 11.3434C2.34624 9.77709 2.76629 8.24218 3.5583 6.91226C4.35031 5.58233 5.48269 4.51044 6.82738 3.8178C8.17208 3.12516 9.67544 2.83939 11.1675 2.99281C12.6595 3.14624 14.0807 3.73273 15.2703 4.68598C13.8483 6.58682 13.0772 8.93085 13.0804 11.3434C13.0804 13.8533 13.9004 16.1648 15.2703 18.0009C14.0807 18.9541 12.6595 19.5406 11.1675 19.694C9.67544 19.8474 8.17208 19.5617 6.82738 18.869C5.48269 18.1764 4.35031 17.1045 3.5583 15.7746C2.76629 14.4446 2.34624 12.9097 2.34565 11.3434ZM18.5703 18.0009C19.9923 16.1 20.7634 13.756 20.7602 11.3434C20.7602 8.83349 19.9402 6.52206 18.5703 4.68598C19.9716 3.55814 21.6912 2.94734 23.4602 2.94914C25.3001 2.94914 26.9951 3.59686 28.35 4.68598C26.928 6.58682 26.1569 8.93085 26.1601 11.3434C26.1601 13.8533 26.9801 16.1648 28.35 18.0009C26.9487 19.1287 25.2291 19.7395 23.4602 19.7377C21.6912 19.7395 19.9716 19.1287 18.5703 18.0009ZM31.65 18.0009C33.072 16.1 33.8431 13.756 33.8399 11.3434C33.8399 8.83349 33.0199 6.52206 31.65 4.68336C33.0049 3.59686 34.6999 2.94653 36.5398 2.94653C38.3798 2.94653 40.0748 3.59425 41.4297 4.68336C40.0077 6.58421 39.2366 8.92824 39.2398 11.3408C39.2398 13.8507 40.0598 16.1622 41.4297 17.9982C40.0284 19.1261 38.3088 19.7369 36.5398 19.7351C34.7712 19.7376 33.0516 19.1278 31.65 18.0009ZM49.6195 19.7377C47.8506 19.7395 46.131 19.1287 44.7297 18.0009C46.15 16.099 46.9209 13.7556 46.9196 11.3434C46.9196 8.83349 46.0996 6.52206 44.7297 4.68598C45.7426 3.87324 46.9264 3.32448 48.1828 3.08521C49.4393 2.84593 50.7323 2.92304 51.9546 3.31013C53.1768 3.69721 54.2931 4.38313 55.211 5.31101C56.1288 6.23888 56.8217 7.38197 57.2322 8.6455C57.6427 9.90903 57.7589 11.2566 57.5713 12.5764C57.3837 13.8963 56.8977 15.1504 56.1534 16.2348C55.4092 17.3192 54.4283 18.2026 53.292 18.8118C52.1557 19.421 50.8967 19.7384 49.6195 19.7377Z" fill="#222222"/>
</svg>
