<svg width="51" height="39" viewBox="0 0 51 39" fill="none" xmlns="http://www.w3.org/2000/svg">
<path d="M25.5 0.092041C11.0989 0.092041 0 8.17802 0 19.1984C0 30.2187 11.101 38.3047 25.5 38.3047C39.899 38.3047 51 30.2187 51 19.1984C51 8.17802 39.9011 0.092041 25.5 0.092041ZM41.0847 9.08974C41.0847 11.621 37.4191 13.5734 31.5477 14.3538C30.9952 8.30692 29.4121 4.32487 27.3764 2.83893C33.6409 3.27018 41.0847 5.71472 41.0847 9.08974ZM25.5 29.5133C23.46 29.5133 21.7898 25.9976 21.658 19.2265C22.8848 19.3374 24.1655 19.3937 25.5 19.3953C26.8345 19.3953 28.1145 19.339 29.3399 19.2265C29.2103 26 27.54 29.5133 25.5 29.5133ZM25.5 14.7288C24.2448 14.7288 23.0478 14.6866 21.9088 14.6023C22.4634 10.5522 23.8638 7.21942 25.5 7.21942C27.1362 7.21942 28.5345 10.5522 29.0891 14.6023C27.9515 14.6851 26.7552 14.7273 25.5 14.7288ZM23.6257 2.83424C21.5942 4.31784 20.0005 8.30224 19.4523 14.3538C13.5809 13.5734 9.91313 11.621 9.91313 9.08974C9.91313 5.71472 17.3591 3.25378 23.6257 2.83424ZM4.32862 18.4484C4.32403 15.7759 5.10546 13.1738 6.55562 11.0327C7.12937 14.6585 11.9149 17.7851 19.2461 18.9312V19.1984C19.2461 28.0391 21.114 33.7367 23.681 35.5344C12.8286 34.7821 4.32862 27.3781 4.32862 18.4484ZM27.3275 35.5344C29.8924 33.7367 31.7624 28.0391 31.7624 19.1984V18.9289C39.0872 17.7851 43.8834 14.6491 44.4529 11.0304C45.9056 13.171 46.688 15.7745 46.682 18.4484C46.6735 27.3781 38.1671 34.7821 27.3275 35.5344Z" fill="#222222"/>
</svg>
