<svg width="66" height="35" viewBox="0 0 66 35" fill="none" xmlns="http://www.w3.org/2000/svg">
<path d="M33.1551 0.69751C22.6875 0.69751 14.2065 5.30932 14.2065 10.9969C14.2065 16.6844 22.6875 21.2998 33.1551 21.2998C43.6227 21.2998 52.1004 16.688 52.1004 10.9969C52.1004 5.30569 43.6161 0.69751 33.1551 0.69751ZM31.35 2.99433C35.0867 2.37865 38.9045 2.83426 42.4347 4.31718C43.2333 5.16032 38.8707 7.87143 33.6798 9.04165C26.2647 10.6879 29.7924 4.38259 31.35 2.99433ZM18.6087 15.1944C16.9587 13.9151 13.7808 10.2482 19.074 6.43592C20.9991 5.12315 23.1338 4.22646 25.3638 3.79385C26.2977 3.5758 26.961 3.8302 26.1294 4.60065C23.8147 7.6932 21.8786 11.107 20.3709 14.7546C20.1069 15.7468 19.5723 16.0012 18.6087 15.1944ZM33.8514 19.4464C30.723 19.8098 23.7666 18.6759 23.6214 17.6874C23.76 15.3034 34.683 11.353 36.6498 13.5335C37.4814 15.267 35.8809 19.3483 33.8514 19.4464ZM49.764 12.5196C48.9621 14.5329 46.266 16.8079 40.6098 18.3343C39.7419 18.5524 39.4449 17.9709 40.0092 17.4185C42.3431 14.1514 44.3522 10.6182 46.002 6.87929C46.332 6.03253 46.9656 6.36687 47.3649 6.69395C48.3138 7.21093 49.0712 8.07348 49.5084 9.13529C49.9457 10.1971 50.036 11.3928 49.764 12.5196ZM63.4788 25.8171H66V34.7791H63.4788V25.8171ZM52.47 28.8553V34.5174H55.3113V32.2679H60.159V34.5174H62.9673V25.7953H55.11C54.3931 25.821 53.7142 26.1564 53.2201 26.7291C52.7261 27.3017 52.4566 28.0656 52.47 28.8553ZM55.2783 28.8917C55.2725 28.7804 55.2887 28.6692 55.3258 28.5655C55.3629 28.4618 55.4199 28.3682 55.493 28.2912C55.5661 28.2141 55.6535 28.1555 55.7492 28.1192C55.8449 28.083 55.9465 28.07 56.0472 28.0813H60.1326V30.2981H55.2882L55.2783 28.8917ZM49.3845 25.8353H42.042V34.5174H49.962C51.0807 34.5174 51.975 32.8275 51.9915 32.1261V28.1285C51.8781 27.4659 51.5527 26.8701 51.0743 26.4492C50.5959 26.0284 49.9963 25.8106 49.3845 25.8353ZM49.4769 31.5628C49.4731 31.7016 49.4444 31.8381 49.3925 31.9646C49.3406 32.0911 49.2665 32.2051 49.1746 32.3C49.0826 32.3948 48.9745 32.4688 48.8565 32.5175C48.7385 32.5663 48.6129 32.5889 48.4869 32.584H44.6127V28.0485H48.4275C48.5562 28.0308 48.6869 28.0428 48.8111 28.0837C48.9354 28.1246 49.0506 28.1936 49.1493 28.2863C49.248 28.3789 49.3281 28.4932 49.3846 28.6218C49.441 28.7505 49.4724 28.8906 49.4769 29.0334V31.5628ZM39.4878 25.8353H31.0926V34.5356H33.8712V28.0704H37.6695C38.5308 28.0704 38.7552 28.5101 38.7552 29.2478V34.5211H41.2764V27.8559C41.2989 27.5888 41.2685 27.3194 41.1872 27.0664C41.106 26.8135 40.9758 26.583 40.8057 26.3908C40.6357 26.1987 40.4297 26.0495 40.2022 25.9536C39.9746 25.8577 39.7309 25.8173 39.4878 25.8353ZM28.0269 31.1049C28.0452 31.2766 28.0325 31.4506 27.9894 31.6169C27.9463 31.7832 27.8737 31.9384 27.7758 32.0735C27.678 32.2087 27.5567 32.3212 27.4191 32.4044C27.2815 32.4877 27.1303 32.5401 26.9742 32.5586H22.9218V25.8353H20.4006V34.4811H28.7958C29.4327 34.4811 30.5514 33.8487 30.5514 32.7585V25.8353H28.0269V31.1049ZM15.0348 29.1715L12.4179 25.8353H9.9297L13.7577 30.8941V34.5174H16.2822V31.1413L20.0805 25.8353H17.622L15.0348 29.1715ZM7.1181 28.928H2.5542V25.8353H0V34.4811H2.5212V30.8614H7.1181V34.5174H9.6426V25.8353H7.1181V28.928Z" fill="#222222"/>
</svg>
