<svg width="52" height="27" viewBox="0 0 52 27" fill="none" xmlns="http://www.w3.org/2000/svg">
<path d="M11.3555 0.291533C11.1438 0.294615 10.9321 0.302597 10.7207 0.315474C10.7207 0.315474 7.254 0.487856 6.17067 2.22605C6.17067 2.22605 5.9865 2.46068 6.0905 2.71207C6.0905 2.71207 6.11217 2.7839 6.06883 2.83178C6.06883 2.83178 5.48383 3.40639 5.18917 3.92114C5.08517 4.10789 4.96817 4.42153 5.18917 4.6394C5.18917 4.6394 5.28667 4.7232 5.32567 4.79502C5.41017 4.94825 5.48817 5.1757 5.59217 5.30978C5.74383 5.51089 6.04933 5.85565 6.4805 5.77186C6.63867 5.74073 6.6755 5.67609 6.6755 5.67609C6.89217 5.91312 7.23883 5.90593 7.23883 5.90593C7.1955 5.75271 7.04383 5.45582 7.02217 5.27626C7.00884 5.14588 7.0199 5.01386 7.05467 4.8884C7.1146 4.64907 7.22191 4.42746 7.36883 4.23957C7.48583 4.11028 7.78483 3.96424 8.02533 4.14859C8.216 4.29943 8.44567 4.79023 8.255 5.48934C8.255 5.54201 8.03833 6.04001 7.81083 6.11183C7.81083 6.11183 7.78917 6.12141 7.74583 6.12141C7.59417 6.12141 7.3125 5.94663 7.3125 5.94663C7.3125 5.94663 7.3125 5.98973 7.345 6.17169C7.371 6.27464 7.4035 6.38717 7.43167 6.47575C7.43167 6.47575 7.3775 6.58589 7.34067 6.64814C7.2865 6.75587 7.241 6.96178 7.36233 7.05515C7.36233 7.05515 7.86067 7.43104 8.34817 7.46456C8.68183 7.4885 8.8075 7.23711 8.8075 7.23711C9.0545 6.86361 9.24083 6.54279 9.50083 6.28182C10.2093 5.56356 11.2038 5.37203 11.2038 5.37203C11.2688 5.36245 12.3587 5.02726 14.2068 6.6625C13.6782 6.71039 13.0498 6.84925 12.5688 6.94262C11.1995 7.21317 10.322 8.6425 10.0663 9.2219C9.40117 10.7374 10.7597 11.2594 10.7597 11.2594C10.7813 11.245 12.0597 11.1349 12.6793 9.62413C12.6793 9.62413 12.9047 8.95615 13.5092 9.17402C13.9035 9.31528 17.3875 10.6584 18.1718 10.8883C18.1718 10.8883 20.5053 11.5586 21.3828 10.3735C22.789 10.8835 24.1063 11.1301 27.5578 10.6369C28.158 10.5507 28.6303 10.5722 28.6303 10.5722C29.4363 10.6369 30.173 11.2378 30.3962 11.6305C31.3062 13.237 32.4545 16.4261 36.4542 16.0382L38.2633 15.8562C39.3683 15.7844 40.2653 15.7365 41.1775 16.268C41.574 16.4979 41.795 16.5817 42.4688 17.2928C43.3897 18.26 44.2368 19.3087 45.3635 18.7365C45.7643 18.5329 46.215 17.7429 46.215 17.7429C46.1926 17.5425 46.1321 17.3496 46.0377 17.1767C45.9432 17.0038 45.8169 16.8549 45.6668 16.7397C46.6917 17.0102 49.0035 17.1826 49.8962 15.4564C50.128 15.0542 50.1518 14.695 50.0652 14.4796C49.8203 13.8738 49.1422 14.0726 49.1422 14.0726C48.8215 14.1444 48.4553 14.5514 47.9115 14.7286C46.7458 15.1116 45.8142 14.6663 45.8142 14.6663C44.018 13.8068 38.246 10.1556 35.3102 8.5611C35.3102 8.5611 31.941 6.69362 26.9923 4.52927C26.9923 4.52927 18.005 0.16464 11.3663 0.291533H11.3555ZM11.3555 0.617143C17.8555 0.495039 26.767 4.78066 26.8558 4.82615C27.6532 5.1773 28.4064 5.51887 29.1157 5.84608L28.0865 5.39597C26.7769 4.84839 25.4564 4.33351 24.1258 3.85171C20.7805 2.5756 19.3158 2.35054 19.214 2.33618C19.0297 2.30145 18.8448 2.27112 18.6593 2.2452L18.057 2.16859L18.3907 2.76474C16.029 0.918813 13.2015 0.825439 13.0628 0.82065C12.493 0.82065 11.9968 1.00021 11.6112 1.20372L11.804 0.808679L11.336 0.784738C10.6852 0.745006 10.0327 0.759412 9.38383 0.827833C10.0324 0.691506 10.6909 0.620982 11.3512 0.617143H11.3555ZM10.6643 1.09119C10.8694 1.09119 11.0912 1.09758 11.3295 1.11035L11.2515 1.27076C11.0847 1.62031 10.4173 2.34336 9.31883 2.07521C9.31883 2.07521 9.31883 2.6163 10.5213 2.81023C10.5213 2.81023 11.5982 3.02092 13.4268 4.64658C13.4268 4.64658 12.5537 2.72643 11.0695 2.22844C11.0695 2.22844 10.8832 2.18535 10.9742 2.05606C10.9742 2.05606 11.8495 1.14626 13.0693 1.14626C13.0693 1.14626 16.8697 1.23724 19.2855 4.02888C19.2855 4.02888 19.1772 3.54286 18.798 2.85572L18.6398 2.56842C18.6398 2.56842 18.785 2.58757 19.1815 2.6594C19.1815 2.6594 20.6332 2.85812 24.0413 4.15817C24.0413 4.15817 26.5958 5.08712 27.9933 5.69764C30.095 6.62419 35.3557 8.87474 38.7118 10.8978C39.3098 11.257 45.3787 14.7525 45.3787 14.7525C47.0578 15.5881 48.2213 15.0805 48.2213 15.0805C48.6005 14.9225 49.2873 14.3383 49.5863 14.6687C49.7402 14.8387 49.7618 15.0685 49.6882 15.2912C49.6015 15.6264 49.1682 16.0765 48.6417 16.3327C48.0892 16.6056 46.9365 16.6774 46.2713 16.5577C46.2713 16.5577 44.98 16.4141 43.8512 15.1092C43.4937 14.6974 43.056 14.2306 42.6508 13.7709C42.3005 13.3407 41.8255 13.0588 41.3075 12.9736C40.5492 12.8611 38.6967 12.806 38.0012 12.5498C37.5353 12.3775 36.9742 12.0303 36.2267 10.8069C35.867 10.2227 35.6135 10.0623 35.1238 9.7175C35.1238 9.7175 35.4987 10.0479 35.711 10.4645C36.0187 11.0678 36.1725 11.506 36.3393 11.8292C36.5062 12.1524 36.6947 12.4373 36.9785 12.6911C37.3338 13.0047 37.5548 13.0646 37.9383 13.134C38.3067 13.2011 39.546 13.1891 40.6077 13.1723C41.6542 13.1532 42.1222 13.5267 42.4645 13.8475C42.783 14.1444 43.3312 14.9895 43.6648 15.3606C44.0635 15.8012 44.3582 16.2513 45.1468 16.6918C45.422 16.845 45.8705 17.2233 45.8467 17.5872C45.4913 17.9799 45.0515 18.0828 43.9942 17.7692C44.07 17.8506 44.6225 18.4946 45.5693 18.1906C45.3369 18.4298 45.0288 18.5587 44.7113 18.5497C43.719 18.4875 42.7483 17.1371 42.2023 16.6391C41.7907 16.2609 41.7408 16.1675 41.0388 15.6288C39.9707 14.8124 37.5765 15.0422 37.5765 15.0422L35.8172 15.1428C32.3938 15.4301 30.9552 12.0782 30.576 11.3791C30.4685 11.1697 30.3468 10.9696 30.212 10.7805C30.0387 10.522 29.1027 9.1812 28.1558 8.74067C28.1558 8.74067 29.0875 9.62652 29.0312 10.2107C29.0312 10.2107 28.6455 10.012 27.5968 10.1772C23.088 10.8883 21.5518 9.64089 21.5518 9.64089C21.762 8.6425 21.1315 7.61779 21.1315 7.61779C21.4782 7.7375 23.6968 8.56589 25.8007 8.09663C25.8007 8.09663 22.3752 8.11578 19.9723 5.99691C19.9723 5.99691 21.4673 8.0679 21.112 9.42301C21.112 9.42301 20.8672 10.8667 18.2607 10.2849C17.9812 10.2251 17.654 10.1221 13.754 8.92502C12.8353 8.62096 12.519 9.10458 12.3522 9.39668C12.3522 9.82284 11.8907 10.3208 11.6632 10.4741C10.4542 10.2346 10.9352 8.99685 10.9352 8.99685C10.1768 10.1987 10.972 10.7302 11.2233 10.7686C11.0702 10.8468 10.933 10.909 10.8117 10.9553C10.8117 10.9553 9.8215 10.3065 10.374 9.24345C11.1432 7.75904 11.9275 7.2826 13.364 7.13655C13.9923 7.07191 14.5145 7.02163 14.9132 7.08388C15.9532 7.2419 16.6075 7.89312 18.1675 8.05832C14.8568 6.98093 14.8482 4.86206 14.8373 4.82136V4.81897C14.6532 5.51807 14.755 6.10705 14.9175 6.60504C14.8742 6.58589 14.1483 6.05916 13.871 5.87481C12.6837 5.07275 11.7433 4.93149 11.7433 4.93149C11.349 4.87643 11.167 4.34731 11.167 4.34731C11.1453 4.32097 11.1388 4.29464 11.1237 4.27069C10.5777 3.2364 10.036 3.21725 10.036 3.21725C10.1971 3.48393 10.2981 3.7893 10.3307 4.10789C10.3523 4.23957 10.361 4.48378 10.361 4.5556C10.361 5.66173 9.191 6.00888 9.191 6.00888C8.385 7.14134 8.42617 7.16528 8.24633 7.19401C8.0665 7.22274 7.67217 7.00248 7.67217 7.00248C7.64183 6.98332 7.63317 6.93304 7.6375 6.90192C7.6375 6.83249 7.69817 6.78939 7.69817 6.78939C7.84983 6.65771 7.97333 6.52603 7.97333 6.52603C8.827 5.56117 8.92883 5.08951 8.82483 4.46462C8.60817 3.21006 7.79783 3.35611 7.79783 3.35611C7.4035 3.3992 7.24317 3.75834 7.24317 3.75834C7.09 4.06421 6.94903 4.37735 6.82067 4.69686C6.64733 5.11824 6.46533 5.21161 6.37217 5.23077C6.32548 5.23738 6.27838 5.23979 6.23133 5.23795C5.95617 5.22598 5.74817 4.94825 5.74817 4.94825C5.7265 4.93389 5.7265 4.91713 5.7135 4.90516C5.46217 4.60828 5.64417 4.21802 5.64417 4.21802C5.98217 3.34893 6.64083 3.22203 6.7275 3.21006L7.12183 3.14781C7.956 2.99219 8.35033 2.03212 8.35033 2.03212C8.07119 2.02343 7.79184 2.03462 7.514 2.06563C6.95933 2.17337 6.77083 2.89403 6.77083 2.89163C6.30283 3.01134 6.31583 2.56602 6.39817 2.42955C6.47183 2.30505 6.74483 1.77115 8.54533 1.31146C8.54533 1.31146 9.22567 1.08401 10.6643 1.09119ZM10.3198 1.3785C9.8865 1.3785 9.659 1.64665 9.659 1.67299C9.659 1.68735 9.7175 1.69453 9.81067 1.69693L9.96233 1.70411C10.2034 1.69194 10.4396 1.62425 10.6557 1.50539C10.7268 1.47382 10.7938 1.43195 10.855 1.38089L10.3242 1.3761L10.3198 1.3785ZM10.6752 2.24759V2.25717C10.7402 2.4511 10.9092 2.52053 10.985 2.54448V2.54208C11.3382 2.66179 11.6545 2.87248 11.9318 3.11908C11.0868 2.59715 10.6037 2.4942 10.5712 2.48701C10.4569 2.46651 10.3434 2.44095 10.231 2.4104C10.3862 2.37451 10.5373 2.31992 10.6817 2.24759H10.6752ZM7.71983 2.3673C7.71983 2.3673 7.6115 2.75038 7.18467 2.83178C7.18467 2.83178 7.01783 2.87488 6.95067 2.87727L6.99617 2.73362C6.99617 2.70489 7.10667 2.40322 7.35367 2.37449C7.35367 2.37449 7.49667 2.3673 7.71983 2.3673ZM6.24 2.92515C6.27384 2.97058 6.31498 3.00873 6.36133 3.03768C6.06883 3.17415 5.3105 4.07197 5.3105 4.07197C5.694 3.44469 6.1945 2.97543 6.19883 2.97064C6.19883 2.96346 6.2205 2.95628 6.2205 2.94909C6.2205 2.94191 6.24 2.93234 6.24 2.92515ZM7.83683 3.67933C7.91917 3.66736 8.307 3.65059 8.48683 4.32576C8.42436 4.1502 8.31943 3.99698 8.1835 3.88283C8.02307 3.76014 7.82515 3.71278 7.63317 3.75115C7.69456 3.70879 7.76458 3.6841 7.83683 3.67933ZM5.05917 21.3916V23.4818C5.05917 24.0923 4.93783 24.5017 4.66917 24.7986C4.31167 25.1864 3.72233 25.3444 2.84917 25.3444H0V25.9574H3.094C4.56083 25.9574 5.59867 25.7371 6.13817 25.1266C6.448 24.777 6.5975 24.3389 6.5975 23.6182V21.3916H5.05917ZM10.8832 21.3916L7.30167 25.9598H8.19433L8.94833 24.9877H13.507L14.2653 25.9598H15.99L12.402 21.394L10.8832 21.3916ZM19.7362 21.3916C18.6897 21.3916 18.0635 21.5257 17.5045 21.8705C17.2141 22.0457 16.9731 22.306 16.8079 22.6228C16.6428 22.9396 16.5599 23.3006 16.5685 23.6661C16.5685 24.5879 16.9477 25.2607 17.7753 25.6294C18.2679 25.8496 18.9302 25.959 19.7622 25.9574H24.2147V23.8624H22.6828V25.3468H20.228C19.435 25.3468 18.9713 25.2199 18.6312 24.9326C18.3033 24.6581 18.1379 24.2391 18.135 23.6757C18.135 23.1274 18.2975 22.718 18.6008 22.4475C18.9432 22.141 19.3917 22.0021 20.215 22.0021H24.0587V21.3916H19.7362ZM31.9908 21.3916V23.6039C31.9908 24.1785 31.9258 24.5448 31.7265 24.8488C31.3928 25.3684 30.8663 25.5551 29.7852 25.5551H29.6552C28.6238 25.5551 28.0497 25.3684 27.716 24.8512C27.5188 24.5448 27.4517 24.1976 27.4517 23.6039V21.394H25.9133V23.6685C25.9133 24.2575 25.9718 24.722 26.2383 25.1122C26.676 25.7443 27.482 26.1082 29.705 26.1082H29.7288C31.9648 26.1082 32.7665 25.7443 33.2042 25.1122C33.4728 24.722 33.5292 24.2575 33.5292 23.6685V21.394L31.9908 21.3916ZM37.791 21.3916L34.2073 25.9574H35.1L35.8562 24.9853H40.4127L41.171 25.9574H42.8957L39.3077 21.3916H37.791ZM44.2607 21.3916V25.9598H45.799V24.3772H47.8205L50.1258 25.9574H52L49.5798 24.3461C50.1562 24.3245 50.648 24.2264 51.025 24.0037C51.2062 23.8924 51.356 23.728 51.4581 23.5286C51.5602 23.3292 51.6105 23.1026 51.6035 22.8736C51.6035 22.2631 51.3565 21.8729 50.908 21.6526C50.5072 21.4611 50.0132 21.394 49.0317 21.394L44.2607 21.3916ZM45.799 21.9662H48.8302C49.4065 21.9662 49.6622 22.0285 49.8377 22.1721C50.0045 22.311 50.0652 22.5217 50.0652 22.8497V22.9359C50.0652 23.2304 50.0002 23.4698 49.8052 23.6206C49.6102 23.7715 49.3415 23.8002 48.8497 23.8002H45.799V21.9662ZM11.2233 22.0572L13.0433 24.3963H9.40767L11.2233 22.0572ZM38.1312 22.0572L39.9512 24.3963H36.3112L38.1312 22.0572Z" fill="#222222"/>
</svg>
