<svg width="44" height="54" viewBox="0 0 44 54" fill="none" xmlns="http://www.w3.org/2000/svg">
<path d="M22 0.566162C29.0729 0.566162 36.4085 1.22236 43.8593 2.61816C43.9704 5.86185 44.0977 10.8744 43.8856 15.1276C43.4107 24.6129 41.4889 31.9738 37.8352 38.2965C34.1917 44.5996 28.5495 50.0182 22 53.2377C15.4485 50.0182 9.80836 44.5996 6.16481 38.2965C2.51115 31.976 0.589345 24.6129 0.114451 15.1276C-0.0977357 10.8744 0.0295764 5.86185 0.140722 2.61816C7.3601 1.2598 14.6731 0.573306 22 0.566162ZM22 1.47914C15.0281 1.47914 7.95526 2.12436 0.955115 3.39726C0.801532 8.20792 0.801532 12.0354 0.955115 15.0816C1.4199 24.4044 3.30331 31.6292 6.87614 37.8115C10.453 43.996 15.8122 49.1052 22 52.2347C28.1878 49.1052 33.549 43.996 37.1239 37.8115C40.6987 31.627 42.5801 24.4022 43.0449 15.0816C43.1985 12.0354 43.1985 8.20792 43.0449 3.39726C36.0906 2.12902 29.0517 1.48746 22 1.47914ZM21.9394 29.1756L22.1192 30.3212C22.1459 30.4293 22.1438 30.5435 22.1132 30.6504C22.0162 31.0213 21.3796 34.1399 21.026 36.4113C20.8582 37.4582 20.7148 38.4963 20.6319 39.3851C20.5751 39.7453 20.6064 40.1154 20.7228 40.4583C21.0704 41.7246 22.3557 45.0297 22.6022 45.6332C22.6302 45.6991 22.6479 45.7696 22.6547 45.8417L22.7477 46.6208C22.3355 45.9449 20.0964 41.4744 19.2173 38.9966C19.1143 38.7047 19.0961 38.5621 19.2092 38.0244C19.8195 35.1801 21.4746 30.3453 21.9394 29.1756ZM18.6757 22.302C18.7364 22.5039 19.2618 24.4527 19.3022 24.918C19.3437 25.1111 19.3237 25.3137 19.2456 25.493C18.7849 26.8229 17.3945 30.1303 16.859 31.2342C16.7378 31.4756 16.6266 31.6358 16.4023 31.8838C15.891 32.45 14.9089 33.521 14.3027 34.1201C14.1176 34.2945 14.0018 34.5399 13.9793 34.8049C13.9009 35.3431 13.8456 35.885 13.8136 36.4289C13.7975 36.78 13.848 36.9446 14.0299 37.2936C15.0989 39.3675 18.6697 44.1409 19.6882 45.1416C19.776 45.2281 19.8707 45.3059 19.9711 45.3743C20.1206 45.484 20.6077 45.8264 20.6077 45.8264C20.6268 45.8421 20.6432 45.8614 20.6562 45.8834L20.834 46.2214C20.3089 45.9404 19.7868 45.6529 19.2678 45.3589C19.1795 45.3044 19.0951 45.2428 19.0152 45.1746C17.823 44.0992 14.1733 39.4531 13.1003 37.5152C12.8315 37.0302 12.8052 36.8744 12.8396 36.4157C12.9083 35.562 13.0114 34.4888 13.1023 34.0192C13.139 33.7561 13.2482 33.5112 13.4155 33.3169C14.9392 31.4207 17.8735 27.2311 18.7303 25.4381C18.8076 25.298 18.8442 25.1359 18.8354 24.9728C18.8394 24.4176 18.6778 23.3378 18.6333 23.0635C18.6261 23.0208 18.6247 22.9771 18.6293 22.934L18.6757 22.302ZM28.6384 21.2617C28.8041 21.3429 29.0709 21.4373 29.1921 21.5909C31.0856 23.7372 32.5992 25.9648 32.9024 26.5508C32.9626 26.6592 33.0005 26.7805 33.0135 26.9063C33.355 30.0381 33.062 33.3542 32.3668 36.2402C32.3464 36.3591 32.3035 36.4721 32.2409 36.5722C32.1783 36.6723 32.0974 36.7573 32.0031 36.8217C30.4673 38.0771 26.8116 41.369 25.5849 42.5937C25.4512 42.7289 25.3349 42.8832 25.2394 43.0523C24.9302 43.601 24.5483 44.3713 24.3058 44.8629C24.0552 44.2704 23.5116 42.8263 23.3257 42.2447C23.2594 42.0702 23.2565 41.875 23.3176 41.6982C23.6207 40.4912 25.0595 36.9732 25.3384 36.3367C25.3364 36.4179 25.3526 36.6308 25.3243 36.7098C25.1969 37.1246 24.425 39.8964 24.2674 41.0991C24.2355 41.2981 24.2355 41.5015 24.2674 41.7004C24.3361 42.2601 24.6453 43.2894 24.6453 43.2894C24.6796 43.1994 25.0272 42.4488 25.2697 42.2425C26.7025 40.7107 29.7095 37.9125 31.4332 36.396C31.6272 36.227 31.6979 36.1107 31.7424 35.7881C31.9546 34.1969 32.0172 31.3395 31.8879 29.259C31.866 28.8664 31.7473 28.4874 31.5444 28.1617C31.0755 27.4111 30.5178 26.7022 29.6711 25.7914C29.5484 25.6613 29.467 25.4923 29.4387 25.3086C29.1906 23.9555 28.9245 22.6064 28.6404 21.2617M12.6355 24.5734C12.7531 24.5318 12.879 24.5264 12.9992 24.558C13.5388 24.6985 14.6806 25.0036 15.5455 25.2428C15.6667 25.2779 15.8163 25.4008 15.8809 25.5171L16.0689 25.8573C16.1016 25.9154 16.1198 25.9817 16.122 26.0498C16.1241 26.1178 16.11 26.1853 16.081 26.2457C15.8804 26.6623 15.6743 27.0757 15.4626 27.4857L15.2848 27.8325C14.9554 28.4689 14.626 29.0834 14.4401 29.406C14.3188 29.6189 14.2501 29.7133 14.0319 29.7967C13.1831 30.1215 12.1262 30.5099 11.4998 30.7294C11.3725 30.7755 11.328 30.8611 11.3543 31.0147C11.3987 31.2956 11.5422 32.2525 11.5968 32.529C11.617 32.6322 11.6938 32.7155 11.8352 32.6848C12.2051 32.6102 13.1912 32.3468 13.1912 32.3468L12.7264 32.8121C12.6937 32.8416 12.6569 32.8653 12.6173 32.8823C12.2436 33.0111 11.8662 33.1268 11.4856 33.2291C11.328 33.2664 11.227 33.1984 11.1845 33.003C11.1845 33.003 10.9057 31.7082 10.8046 31.2671L10.7521 31.0762C10.6433 30.7322 10.5233 30.3925 10.3924 30.0578C10.3796 30.0276 10.3734 29.9945 10.3742 29.9613C10.3782 29.6606 10.4287 28.9912 10.4287 28.9912C10.4287 28.9912 11.033 29.6057 11.326 29.8296C11.3907 29.8801 11.4311 29.891 11.5119 29.8669C11.912 29.7572 12.8356 29.4236 13.3428 29.2173C13.4579 29.1697 13.5596 29.0903 13.6378 28.9868C14.1632 28.2999 14.82 27.2311 15.1999 26.4213C15.2513 26.3104 15.2615 26.1823 15.2282 26.0636L15.1474 25.7717C15.1317 25.7242 15.1073 25.6807 15.0757 25.6437C15.0441 25.6067 15.0059 25.5771 14.9635 25.5566C14.1607 25.2234 13.3522 24.9066 12.5385 24.6063L12.6355 24.5734ZM30.3016 16.2381C30.4978 16.1576 30.7152 16.1631 30.9078 16.2535C32.4032 16.936 34.9212 18.5447 36.3216 19.6772C36.457 19.7869 36.5095 19.8615 36.5439 20.0371C36.8733 21.6611 36.9986 24.174 36.7924 26.2874C36.7788 26.4296 36.7396 26.5675 36.6773 26.6934C35.7881 28.6642 34.7918 30.5187 33.741 31.9496C33.7572 31.774 33.8319 30.9379 33.836 30.4507C33.8367 30.4253 33.8425 30.4003 33.853 30.3776C33.8634 30.3549 33.8783 30.3349 33.8966 30.319C34.1057 30.1432 34.3112 29.9625 34.513 29.7769C34.5715 29.7222 34.6226 29.6586 34.6645 29.5882C35.0929 28.8354 35.8568 27.2619 36.166 26.316C36.2408 26.0852 36.2704 25.84 36.2529 25.5961C36.1539 24.2749 35.9639 22.449 35.679 21.2551C35.6562 21.1543 35.6137 21.06 35.5544 20.9786C35.4952 20.8972 35.4205 20.8306 35.3354 20.7833C34.7401 20.4726 34.1334 20.1886 33.5167 19.9317C33.3655 19.8652 33.2245 19.7742 33.0984 19.6618C32.2696 18.9051 31.424 18.1704 30.5622 17.4584C30.4617 17.3767 30.346 17.3198 30.2232 17.2914C30.1004 17.2629 29.9734 17.2638 29.8509 17.2938C29.3422 17.4201 28.8356 17.5562 28.3312 17.702C28.2342 17.7367 28.1306 17.7443 28.0301 17.7239C27.8281 17.6998 27.4239 17.6647 27.2582 17.6515C28.2553 17.1376 29.2706 16.6661 30.3016 16.2381ZM14.4724 26.9041C14.1242 27.5317 13.7402 28.1349 13.3226 28.7103C13.2781 28.7693 13.2203 28.8147 13.1548 28.842C12.6829 29.0291 12.2065 29.2026 11.7261 29.3621L14.4724 26.9041ZM9.56788 26.0307L9.34963 27.6723L8.60394 26.7242C8.74136 26.4037 9.13744 26.1031 9.56788 26.0307ZM8.18159 22.302L7.91282 22.4863C7.84411 22.5324 7.82592 22.5521 7.79763 22.618C7.74368 22.7376 7.6864 22.8555 7.62586 22.9713C7.60026 23.0136 7.56813 23.0507 7.53088 23.081C7.21376 23.3461 6.8924 23.6051 6.56695 23.858C6.54674 23.8697 6.52788 23.8667 6.51037 23.8492C6.44149 23.7685 6.37543 23.685 6.31233 23.599C6.29379 23.5666 6.28335 23.5295 6.28201 23.4914C6.28307 23.394 6.28712 23.2967 6.29414 23.1996C6.30222 23.0876 6.33051 23.035 6.4558 22.8923C6.59726 22.7343 6.74882 22.5697 6.91049 22.3985C7.30253 22.0386 8.29678 21.1629 10.0711 19.7869C10.105 19.7606 10.135 19.7288 10.16 19.6925C10.3459 19.4204 10.8754 18.6742 11.0047 18.4964C11.0233 18.4721 11.0443 18.45 11.0673 18.4306C11.2358 18.286 11.4111 18.1512 11.5927 18.0268C12.0858 17.6888 13.0437 17.0699 13.5792 16.7319L13.3771 17.0041L13.3408 17.0392C12.9597 17.3517 12.5812 17.6678 12.2051 17.9873C12.1789 18.0068 12.1569 18.0322 12.1405 18.0617C12.1241 18.0912 12.1137 18.1242 12.1101 18.1585C12.0501 18.5222 12.0023 18.8882 11.9666 19.2558C11.9605 19.3436 11.9262 19.3831 11.8453 19.4204C11.4957 19.574 11.0815 19.7364 10.746 19.8813C10.6974 19.8982 10.6521 19.925 10.6126 19.9603C10.5783 19.9888 10.1337 20.4211 10.1337 20.4211C10.1337 20.4211 11.1017 20.1622 11.4573 20.0744C11.4901 20.0629 11.5246 20.0592 11.5588 20.0633C11.5929 20.0675 11.6258 20.0795 11.6554 20.0985C11.7302 20.1358 11.8514 20.1885 11.9161 20.2148C11.9995 20.2497 12.0911 20.2535 12.1768 20.2258C12.5769 20.1292 13.2478 19.9559 13.6075 19.8527C13.7683 19.8111 13.9196 19.7342 14.0521 19.6267C14.2239 19.4972 14.6583 19.1439 14.6583 19.1439L14.6442 19.2404C14.6402 19.2669 14.629 19.2914 14.6119 19.3106C14.509 19.4443 14.4025 19.5745 14.2926 19.7013C14.1563 19.8685 13.9832 19.9954 13.7894 20.07C12.7729 20.5309 11.035 21.2463 9.72954 21.7379C9.65793 21.7609 9.59358 21.8049 9.54363 21.8652L9.38196 22.0518C9.38196 22.0518 10.4469 22.1374 10.7723 22.1769C10.8695 22.1864 10.9611 22.2303 11.033 22.302C11.2997 22.5521 12.1828 23.5419 12.4476 23.8821C12.4476 23.8821 9.93567 24.3386 8.77167 24.6502C8.71183 24.6643 8.6569 24.6965 8.61326 24.7431C8.56961 24.7897 8.53905 24.8488 8.52513 24.9136C8.42813 25.2823 8.2018 26.4652 8.2018 26.4652C8.2018 26.4652 8.12097 26.4367 8.0078 26.3664C7.93144 26.3168 7.86316 26.2537 7.80572 26.1799C7.46648 25.7773 7.15063 25.3522 6.85997 24.907C6.79732 24.8038 6.77105 24.6722 6.84986 24.5668C7.0863 24.2508 7.55918 23.6758 7.81986 23.3795C7.86133 23.3292 7.89541 23.2722 7.9209 23.2105C8.02194 22.9845 8.13107 22.5126 8.18159 22.302ZM24.3906 16.124C24.4655 16.1124 24.5418 16.1238 24.6109 16.1569L25.1282 16.4247C25.153 16.4389 25.1747 16.4585 25.1921 16.4823C25.2095 16.5061 25.2222 16.5336 25.2293 16.5629C25.3 16.8856 25.3869 17.3113 25.4435 17.6756C25.467 17.8267 25.4413 17.9819 25.3707 18.1146C25.0842 18.6318 24.7836 19.1397 24.4694 19.6376C24.4444 19.6818 24.4275 19.7309 24.4199 19.7821C24.4123 19.8333 24.414 19.8856 24.425 19.9361C24.5382 20.6077 25.0029 22.9516 25.0029 22.9516L24.7099 22.6619C24.653 22.6082 24.611 22.5382 24.5887 22.46C24.3147 21.5579 24.0553 20.6506 23.8107 19.7386C23.7964 19.6842 23.7945 19.6268 23.805 19.5714C23.8156 19.516 23.8383 19.4642 23.8713 19.4204C24.1764 19.0166 24.623 18.3713 24.8817 17.9631C24.9544 17.8468 24.9787 17.7217 24.9363 17.6252C24.855 17.4493 24.7694 17.2759 24.6796 17.105C24.667 17.0792 24.6498 17.0565 24.629 17.038C24.6082 17.0195 24.5841 17.0058 24.5584 16.9975L24.2067 16.8768C24.1457 16.8542 24.0794 16.855 24.0188 16.879C23.2529 17.1818 22.2223 17.6164 21.5938 17.9017C21.5182 17.9405 21.4325 17.9498 21.3513 17.928C21.1694 17.8995 20.6359 17.7963 20.3753 17.7415C20.3646 17.7392 20.3546 17.7342 20.3461 17.7269C20.3376 17.7196 20.3308 17.7102 20.3263 17.6995C20.3217 17.6888 20.3196 17.6771 20.32 17.6653C20.3205 17.6535 20.3235 17.642 20.3288 17.6317L20.638 17.048C20.659 17.0094 20.687 16.9758 20.7204 16.9494C20.7537 16.923 20.7917 16.9042 20.832 16.8943C22.0126 16.6079 23.1991 16.3511 24.3906 16.124ZM13.3852 18.7949C13.4084 18.7925 13.4318 18.7982 13.4518 18.8113C13.4718 18.8243 13.4874 18.8439 13.4964 18.8673C13.5241 18.9451 13.537 19.0283 13.5342 19.1116C13.5315 19.195 13.5131 19.2769 13.4802 19.3523C13.4649 19.3855 13.4433 19.4147 13.4168 19.4382C13.3903 19.4616 13.3596 19.4788 13.3266 19.4884L12.8295 19.6069C12.8227 19.6082 12.8158 19.6079 12.8092 19.6059C12.8026 19.604 12.7965 19.6005 12.7913 19.5956C12.786 19.5908 12.7819 19.5848 12.7791 19.578C12.7762 19.5713 12.7748 19.5639 12.7749 19.5564L12.8214 18.92C12.8232 18.8997 12.8314 18.8807 12.8447 18.8663C12.858 18.8519 12.8755 18.8429 12.8942 18.841L13.3852 18.7949ZM19.0314 14.726C19.0444 14.7262 19.0571 14.7299 19.0683 14.737C19.0795 14.7441 19.0889 14.7542 19.0954 14.7664C19.1019 14.7786 19.1054 14.7924 19.1055 14.8065C19.1056 14.8205 19.1024 14.8344 19.0961 14.8467L17.8856 17.1138C17.8528 17.18 17.8082 17.2386 17.7544 17.286C17.7007 17.3335 17.6388 17.3689 17.5724 17.3903L15.305 18.1628C15.0572 18.2451 14.8016 18.2966 14.5432 18.3165C14.04 18.3604 12.5466 18.4108 12.5466 18.4108L12.5789 18.334C12.5937 18.2971 12.6213 18.2679 12.6557 18.2528L13.363 17.9258C13.4147 17.9 13.4609 17.8626 13.4984 17.8161L14.5896 16.3545C14.6505 16.2753 14.7237 16.2085 14.8059 16.1569C15.5273 15.7421 16.8105 15.1233 17.7098 14.7963C17.8026 14.7638 17.8993 14.746 17.9967 14.7436L19.0314 14.726ZM17.8189 12.0968C20.8561 11.8267 23.908 11.8142 26.947 12.0595C27.1302 12.0732 27.3099 12.1207 27.4785 12.2C28.5394 12.6828 30.4208 13.745 32.5123 15.0443C32.6033 15.1041 32.6898 15.1716 32.771 15.2462C33.3247 15.7773 34.7292 17.3399 34.7292 17.3399L34.2907 17.2455C34.2294 17.2344 34.1713 17.2081 34.1209 17.1687C33.0692 16.4091 31.9796 15.713 30.8573 15.0838C30.7288 15.0138 30.5899 14.9692 30.4471 14.9521C29.8798 14.89 29.3111 14.8454 28.7415 14.8182C28.5272 14.8148 28.317 14.7545 28.1292 14.6426C27.4773 14.2931 26.8133 13.971 26.1387 13.677C25.9652 13.5941 25.7762 13.5565 25.587 13.5673C24.2666 13.5929 22.9468 13.6441 21.6282 13.7209C21.593 13.722 21.5579 13.7198 21.5231 13.7143L21.03 13.6309C22.4304 13.3675 25.8941 13.0318 27.3289 12.9506L26.7449 12.7399C26.632 12.6994 26.5142 12.6772 26.3953 12.674C24.4351 12.6257 21.7413 12.6345 19.4598 12.8211C19.3189 12.8315 19.1808 12.8687 19.0516 12.9308C18.3989 13.2424 16.8085 14.1818 15.212 15.143L13.652 16.0933L13.8884 15.7597C13.9125 15.7236 13.9435 15.6937 13.9793 15.6719C14.1855 15.5227 14.8079 15.0838 15.0585 14.884C15.5394 14.4912 16.2972 13.7977 16.7499 13.3675C16.8504 13.2696 16.9375 13.1565 17.0086 13.0318C17.1561 12.775 17.3157 12.4963 17.4127 12.3404C17.4596 12.2702 17.52 12.212 17.5899 12.1699C17.6597 12.1278 17.7392 12.1028 17.8189 12.0968ZM7.15501 5.84209C7.77338 5.77187 8.11894 6.03522 8.11894 6.71556V7.09085C8.11894 7.78655 7.77338 8.06966 7.15501 8.1377C6.29935 8.23469 5.4445 8.34003 4.59058 8.45372V9.48521C4.4114 9.50569 4.23222 9.5291 4.05304 9.55544V6.23055C5.0857 6.08885 6.11975 5.95936 7.15501 5.84209ZM35.8568 5.73236C37.221 5.87722 38.5831 6.0433 39.9429 6.23055V6.76824C39.3546 6.68735 38.7659 6.61053 38.1767 6.5378V9.325L37.6392 9.25916V6.47196C37.0455 6.40045 36.4513 6.33315 35.8568 6.27005V5.73236ZM13.2094 5.30002V5.83332C12.0876 5.90846 10.9666 5.99771 9.84675 6.10106V6.91967C10.8429 6.82755 11.8399 6.74708 12.8376 6.67826V7.21375C11.8399 7.2829 10.8429 7.36338 9.84675 7.45516V8.35497C10.9666 8.25121 12.0876 8.16196 13.2094 8.08722V8.62271C11.9121 8.70966 10.616 8.81574 9.32134 8.94094V5.61385C10.616 5.48866 11.9121 5.38257 13.2094 5.29563M30.6552 6.20641C30.6552 5.46023 30.9947 5.3066 31.7626 5.36366C32.4349 5.41487 33.1071 5.46974 33.7794 5.52826C34.4463 5.58971 34.8848 5.79162 34.8848 6.55316V8.03674C34.8848 8.78292 34.5049 8.91899 33.7794 8.85315C33.1075 8.79328 32.4352 8.73841 31.7626 8.68855C31.0291 8.63369 30.6552 8.48006 30.6552 7.68999V6.20641ZM25.4394 5.04544C26.7382 5.08055 28.0362 5.13396 29.3336 5.20565V5.74114C28.2119 5.67855 27.0896 5.63026 25.9669 5.59629V6.4149C26.9652 6.44562 27.9635 6.48732 28.9617 6.53999V7.07549C27.9639 7.02304 26.9655 6.98207 25.9669 6.95259V7.8502C27.0896 7.88375 28.2119 7.93204 29.3336 7.99504V8.53054C28.0363 8.45799 26.7381 8.40458 25.4394 8.37033V5.04544ZM18.6818 5.04324V7.44858C18.6818 8.21012 18.314 8.37691 17.5724 8.40105C16.9276 8.42246 16.2829 8.44879 15.6384 8.48006C14.9514 8.51298 14.531 8.37033 14.531 7.61756V5.21881L15.0564 5.18809V7.69438C15.0564 7.848 15.1777 7.9709 15.3394 7.96432C16.1838 7.92098 17.0285 7.88587 17.8735 7.85897C17.9087 7.85957 17.9436 7.85248 17.9762 7.83813C18.0088 7.82378 18.0384 7.80247 18.0633 7.77545C18.0882 7.74843 18.1078 7.71625 18.121 7.68084C18.1342 7.64542 18.1408 7.60749 18.1402 7.56928V5.0608L18.6818 5.04324ZM31.4615 5.87721C31.4253 5.87306 31.3888 5.87744 31.3543 5.89007C31.3198 5.90269 31.2882 5.92325 31.2618 5.95034C31.2353 5.97743 31.2145 6.01041 31.2008 6.04703C31.1872 6.08365 31.181 6.12304 31.1826 6.16251V7.8085C31.1826 7.96212 31.3039 8.12014 31.4615 8.13331C32.3345 8.19476 33.2075 8.26572 34.0805 8.34619C34.151 8.34861 34.2196 8.32107 34.2716 8.26943C34.3237 8.21779 34.3552 8.14612 34.3594 8.06966V6.42368C34.3554 6.34215 34.3253 6.26469 34.2744 6.20461C34.2236 6.14453 34.155 6.10559 34.0805 6.09448C33.2081 6.01399 32.3351 5.9401 31.4615 5.87721ZM21.0098 5.00813C21.9798 5.00081 22.9478 5.00374 23.9137 5.01691V5.5524C22.8791 5.53749 21.8444 5.53456 20.8097 5.54362C20.6683 5.54582 20.5288 5.6775 20.5288 5.82893V7.49686C20.5288 7.64829 20.6703 7.79972 20.8097 7.79753C21.738 7.78875 22.6662 7.79021 23.5944 7.80191V6.90211C23.0556 6.89569 22.5167 6.89276 21.9778 6.89333V6.36003C22.6918 6.36003 23.4058 6.36588 24.1198 6.37759V8.34838C23.1162 8.33182 22.1125 8.3267 21.1088 8.33302C20.3753 8.3396 20.0014 8.20134 20.0014 7.42663V5.97816C20.0014 5.25393 20.3369 5.01471 21.0118 5.01032M7.32072 6.36223C6.41172 6.46386 5.50365 6.57506 4.59664 6.69581V7.92043C5.50367 7.79981 6.41174 7.68861 7.32072 7.58684C7.46016 7.57148 7.59959 7.43321 7.59959 7.28837V6.61461C7.59959 6.46098 7.45813 6.34686 7.32072 6.36223Z" fill="#222222"/>
</svg>
