<svg width="70" height="29" viewBox="0 0 70 29" fill="none" xmlns="http://www.w3.org/2000/svg">
<path d="M32.5267 10.3013C32.55 10.1568 32.5889 9.95102 32.4528 9.84155C32.3964 9.79855 32.3316 9.77136 32.264 9.76222C32.1963 9.75308 32.1277 9.76226 32.0639 9.789C31.8603 9.91116 31.6999 10.1081 31.6093 10.347C31.5188 10.586 31.5035 10.8526 31.5661 11.1027C31.7709 11.0634 31.9645 10.9704 32.1314 10.8312C32.2983 10.692 32.4337 10.5105 32.5267 10.3013ZM45.3833 18.7483C46.4145 18.1859 47.2691 17.2832 47.8333 16.1603L47.4989 16.0377C47.6778 15.6392 47.9111 15.1269 47.6894 14.6802C47.609 14.5692 47.5044 14.4834 47.3859 14.4313C47.2673 14.3791 47.1388 14.3623 47.0128 14.3825C46.3389 14.5699 45.7225 14.9591 45.2289 15.5087C44.7353 16.0583 44.3829 16.7479 44.2089 17.5047C44.1488 17.7166 44.1476 17.9441 44.2052 18.1569C44.2629 18.3697 44.3768 18.5576 44.5317 18.6957C44.6632 18.7686 44.8064 18.8108 44.9527 18.8198C45.0991 18.8288 45.2455 18.8045 45.3833 18.7483ZM34.9261 24.0643C51.0222 24.0643 64.0733 19.5233 64.0733 13.9183C64.0733 8.31331 51.0222 3.77237 34.9261 3.77237C18.83 3.77237 5.77889 8.31331 5.77889 13.9183C5.77889 19.5233 18.8261 24.0643 34.9261 24.0643ZM48.5644 14.0147C48.6574 14.2067 48.7242 14.4133 48.7628 14.6277L51.7883 9.88972L53.6472 10.0255L48.5217 18.1265C48.44 18.3366 48.3078 18.595 48.44 18.8402C48.508 18.9475 48.607 19.0249 48.72 19.0592C49.1654 19.0518 49.5951 18.8725 49.9372 18.5512C50.6022 17.9951 51.2128 17.2945 51.8311 16.6727C51.9556 16.5807 52.0644 16.4581 52.22 16.4931C52.3756 16.5282 52.6283 16.7033 52.675 16.931L52.6517 17.0317C51.4111 18.3454 50.1356 20.2108 48.2767 20.3904C48.0491 20.4149 47.8197 20.378 47.6074 20.2828C47.395 20.1876 47.2059 20.0369 47.0556 19.843C46.8805 19.5632 46.8094 19.2176 46.8572 18.8796C46.4216 19.4119 45.8667 19.8022 45.2508 20.0095C44.6349 20.2168 43.9808 20.2334 43.3572 20.0576C43.0103 19.8401 42.7308 19.5083 42.5563 19.1067C42.3818 18.7051 42.3207 18.253 42.3811 17.8112C42.4341 17.5258 42.5123 17.2471 42.6144 16.9792C41.8367 17.5003 40.9539 18.2929 39.8922 17.855C39.6672 17.7459 39.4735 17.5686 39.3327 17.3428C39.1919 17.1171 39.1096 16.8517 39.095 16.5763C39.0772 16.4061 39.0772 16.2342 39.095 16.064L36.5439 20.1101H34.8833C34.8522 20.0882 34.7939 20.0576 34.8056 20.0094L34.8522 19.8561L37.5083 15.6217C37.6522 15.2889 37.8972 14.8773 37.6872 14.4876C37.4772 14.2993 37.1894 14.4876 36.9756 14.5445C35.9083 15.288 34.9733 16.2488 34.2183 17.3777C33.1761 18.8096 31.7489 20.6224 29.7539 20.2546C29.3251 20.166 28.9283 19.9393 28.6115 19.602C28.2947 19.2647 28.0715 18.8313 27.9689 18.3542C27.9741 18.3191 27.9637 18.2943 27.9378 18.2797C27.5393 18.7256 27.1059 19.1301 26.6428 19.4883C26.5623 19.5109 26.4782 19.5109 26.3978 19.4883C26.2289 19.3281 26.1216 19.1006 26.0983 18.8534C26.1761 18.5687 26.4872 18.4549 26.6856 18.2316C28.07 16.7559 28.4706 14.5533 30.485 13.6556C30.9983 13.4022 31.5541 13.2767 32.1144 13.2878C32.1969 13.2942 32.2763 13.3251 32.3446 13.3774C32.413 13.4298 32.4677 13.5016 32.5033 13.5855C32.5427 13.6415 32.5693 13.7075 32.5808 13.7777C32.5923 13.8479 32.5884 13.9202 32.5694 13.9884C32.3711 14.1854 32.0717 14.1854 31.8383 14.2993C31.257 14.5293 30.7375 14.9228 30.3292 15.4424C29.9208 15.962 29.6371 16.5905 29.505 17.2682C29.4689 17.5357 29.5071 17.8093 29.6143 18.0515C29.7215 18.2936 29.8925 18.4927 30.1039 18.6213C30.409 18.7424 30.7368 18.7722 31.0551 18.7077C31.3735 18.6432 31.6715 18.4867 31.92 18.2534C32.3222 17.8912 32.6566 17.4426 32.9036 16.9337C33.1506 16.4248 33.3053 15.8657 33.3589 15.2889C33.3624 14.8517 33.2829 14.4187 33.1256 14.019C33.1256 13.7432 33.4056 13.533 33.6272 13.4191C33.7203 13.3699 33.8219 13.3444 33.9247 13.3444C34.0276 13.3444 34.1291 13.3699 34.2222 13.4191C34.3871 13.618 34.5145 13.8525 34.5967 14.1084C34.679 14.3643 34.7143 14.6363 34.7006 14.908C34.7091 15.0544 34.7013 15.2016 34.6772 15.3458C35.7739 14.4044 36.6956 12.7185 38.3017 12.9593C38.4989 12.9884 38.6848 13.08 38.8377 13.2234C38.9905 13.3668 39.104 13.5562 39.165 13.7694C39.2247 14.0575 39.2247 14.3572 39.165 14.6452C39.4454 14.168 39.8304 13.7803 40.2827 13.5195C40.735 13.2587 41.2394 13.1336 41.7472 13.1564C41.9619 13.1948 42.1639 13.2959 42.3331 13.4495C42.5023 13.6032 42.6328 13.8041 42.7117 14.0322C42.761 14.2358 42.7661 14.4499 42.7264 14.6563C42.6867 14.8626 42.6034 15.0552 42.4836 15.2176C42.3638 15.38 42.211 15.5075 42.0381 15.5893C41.8653 15.671 41.6774 15.7047 41.4906 15.6874C41.3544 15.678 41.2219 15.6337 41.1033 15.5578C40.9846 15.4819 40.883 15.3764 40.8061 15.2495C40.7372 15.1246 40.7007 14.9805 40.7007 14.8335C40.7007 14.6865 40.7372 14.5424 40.8061 14.4175C40.4406 14.4613 40.2072 14.8861 40.0983 15.197C39.9739 15.6349 39.7989 16.2085 40.1644 16.5851C40.4056 16.9398 40.8839 16.8172 41.2261 16.7646C43.4311 16.0071 44.7494 13.0294 47.3861 13.3534C47.6151 13.3501 47.8414 13.4084 48.0464 13.5234C48.2513 13.6384 48.4289 13.8068 48.5644 14.0147ZM17.955 13.6162C18.4414 13.2535 19.0229 13.0883 19.6039 13.1476C19.671 13.165 19.7343 13.1977 19.7898 13.2437C19.8453 13.2896 19.8919 13.3478 19.9267 13.4147C19.946 13.4691 19.9529 13.528 19.9468 13.5862C19.9407 13.6443 19.9217 13.6998 19.8917 13.7475C19.3472 14.2686 18.6083 14.5708 18.2311 15.2714C18.0587 15.5486 17.9633 15.8773 17.9571 16.2156C17.9509 16.554 18.034 16.8868 18.1961 17.1719C18.5291 17.5376 18.9464 17.7909 19.4008 17.9032C19.8551 18.0154 20.3283 17.982 20.7667 17.8068C23.022 16.6238 24.9515 14.7764 26.3511 12.4601C25.5251 12.4856 24.7199 12.7576 24.0178 13.2483C23.9775 13.2689 23.9337 13.2795 23.8894 13.2795C23.8452 13.2795 23.8014 13.2689 23.7611 13.2483C23.6639 13.1958 23.6522 13.0819 23.6289 12.9812C23.6833 12.4733 24.2511 12.2587 24.6361 12.1054C25.414 11.8672 26.2071 11.6973 27.0083 11.5975C28.2122 9.76336 29.7743 8.26519 31.5739 7.21858C28.7039 6.53985 24.4611 5.55021 22.3222 8.33958C22.1689 8.52866 22.0601 8.75797 22.0058 9.00657C21.9515 9.25516 21.9533 9.51513 22.0111 9.76273C22.1104 9.9478 22.2501 10.1013 22.4168 10.2085C22.5836 10.3158 22.7719 10.3734 22.9639 10.3758C23.4776 10.3002 23.9727 10.1098 24.4201 9.81578C24.8676 9.52176 25.2583 9.13004 25.5694 8.66362C25.6524 8.59564 25.7558 8.56731 25.8572 8.5848C25.9467 8.5848 25.9894 8.70741 26.0206 8.77309C25.9374 9.54505 25.5968 10.2526 25.0678 10.7524C24.63 11.3144 24.0646 11.7316 23.4323 11.9592C22.7999 12.1868 22.1244 12.2161 21.4783 12.0441C21.1269 11.9244 20.8138 11.6929 20.5764 11.3775C20.3391 11.0621 20.1878 10.6763 20.1406 10.2663C20.114 9.50701 20.3008 8.75764 20.6744 8.12478C21.0479 7.49192 21.5891 7.0078 22.2211 6.74128C24.3844 5.69422 26.7643 5.34843 29.0928 5.74289L30.7961 5.93994L35.5833 6.6537C38.1287 7.08681 40.7212 7.02609 43.2483 6.47416C43.5167 6.47416 43.8589 6.35156 44.0689 6.56174C44.118 6.60622 44.154 6.66647 44.1721 6.73451C44.1902 6.80254 44.1894 6.87515 44.17 6.94271C44.0572 7.48569 43.47 7.85352 43.0267 8.12064C40.6873 9.03633 38.1499 9.09001 35.7817 8.2739L32.1611 7.31929C32.1261 7.47693 32.1922 7.67399 32.1067 7.80973C30.6975 8.69646 29.4974 9.95021 28.6067 11.4661C29.4042 11.4561 30.1999 11.3771 30.9867 11.2297C30.9315 10.9099 30.9632 10.5788 31.0777 10.2796C31.1921 9.98043 31.384 9.72705 31.6283 9.55254C31.9263 9.34393 32.283 9.26891 32.6278 9.34235C32.7472 9.38933 32.8559 9.46554 32.946 9.56549C33.0361 9.66544 33.1054 9.78664 33.1489 9.92037C33.1989 10.1633 33.1842 10.4174 33.1067 10.651C33.0293 10.8846 32.8925 11.0874 32.7133 11.234C32.478 11.4516 32.2072 11.6153 31.9161 11.7157V11.7464C32.1349 11.9012 32.3394 12.0801 32.5267 12.2806C32.5304 12.3166 32.5275 12.3531 32.5182 12.3877C32.5088 12.4224 32.4931 12.4545 32.4722 12.482C32.3805 12.5625 32.2654 12.6016 32.1494 12.5915C31.7411 12.5609 31.4961 12.1536 31.2083 11.869C30.1931 12.022 29.1737 12.1374 28.1517 12.2149L27.4983 13.1476L25.725 15.9282C25.0925 17.187 24.1795 18.2383 23.0761 18.9785C21.9727 19.7188 20.717 20.1224 19.4328 20.1495C18.7772 20.1003 18.1458 19.8509 17.6066 19.4281C17.0674 19.0054 16.6407 18.4252 16.3722 17.7499C16.1824 16.9608 16.2355 16.1227 16.5229 15.372C16.8104 14.6213 17.3151 14.0024 17.955 13.6162ZM34.9572 25.9297C52.1072 25.9297 66.0061 20.5261 66.0061 13.857C66.0061 7.18793 52.1111 1.78873 34.9572 1.78873C17.8033 1.78873 3.90833 7.1923 3.90833 13.857C3.90833 20.5217 17.8111 25.9297 34.9572 25.9297ZM34.9261 2.8528C51.5278 2.8528 64.9911 7.80535 64.9911 13.9183C64.9911 20.0313 51.5278 24.9838 34.9261 24.9838C18.3244 24.9838 4.86111 20.0225 4.86111 13.9183C4.86111 7.81411 18.3206 2.8528 34.9261 2.8528ZM8.20944 20.6706L6.89889 19.7204C6.00859 19.1582 5.23138 18.3945 4.61627 17.4773C4.00117 16.5601 3.5615 15.5093 3.325 14.3912L2.77667 14.2949L2.83889 14.8904C3.31398 16.2309 4.0394 17.4408 4.96599 18.4381C5.89259 19.4353 6.99872 20.1967 8.20944 20.6706ZM60.5033 21.4501C62.4317 20.779 64.1564 19.5176 65.485 17.8068C66.4672 16.6321 67.0592 15.1117 67.1611 13.5023C66.9667 13.5374 66.7489 13.5023 66.5778 13.5636C66.5039 14.9692 66.0308 16.3109 65.2283 17.3908C63.9676 19.1537 62.3464 20.5465 60.5033 21.4501ZM68.9111 12.7316L68.8528 12.9506C68.7556 13.4892 68.1839 13.2089 67.83 13.3315C67.6861 13.3315 67.6356 13.5023 67.6122 13.6118C67.5919 14.5411 67.3531 15.4477 66.92 16.2391C65.8786 18.3305 64.3028 20.021 62.3972 21.091C58.1549 23.2283 53.6676 24.686 49.0661 25.4217C40.5344 27.1164 31.817 27.2642 23.2439 25.8596C17.6158 25.1139 12.1391 23.3079 7.04278 20.5173C5.19431 19.4976 3.67345 17.8555 2.69111 15.8188C2.42667 15.4159 2.53556 14.8554 2.38778 14.4044C2.24 13.9533 1.66056 14.1942 1.31833 14.0234C1.24302 13.9689 1.17832 13.8976 1.12819 13.8141C1.07805 13.7305 1.04351 13.6364 1.02667 13.5374L0.894445 13.9752C0.993844 15.1678 1.45212 16.2864 2.19333 17.1456C5.2529 20.6552 9.17055 23.0605 13.4478 24.0555C23.3098 27.0648 33.5858 27.9634 43.7422 26.7047C50.0877 26.0221 56.3121 24.3098 62.2222 21.6208C64.2203 20.706 66.0377 19.3547 67.5694 17.6448C68.7283 16.318 69.7628 14.5139 68.9111 12.7316ZM35 0.256104C15.6722 0.256104 0 6.50044 0 14.1986C0 21.8967 15.6722 28.141 35 28.141C54.3278 28.141 70 21.9011 70 14.1986C70 6.49606 54.3317 0.256104 35 0.256104ZM35 27.8652C16.0572 27.8652 0.388889 21.7347 0.388889 14.1986C0.388889 6.66246 16.0494 0.536355 35 0.536355C53.9506 0.536355 69.5606 6.66683 69.5606 14.1986C69.5606 21.7303 53.9389 27.8652 35 27.8652Z" fill="#222222"/>
</svg>
