<svg width="51" height="47" viewBox="0 0 51 47" fill="none" xmlns="http://www.w3.org/2000/svg">
<path d="M25.7397 35.853C28.1974 35.853 30.6525 35.7397 33.0924 35.5767C35.6328 35.6031 38.1564 35.1274 40.5394 34.173C41.6337 33.6714 42.5768 32.8484 43.2623 31.7967C43.9305 30.6486 44.4077 29.3823 44.6722 28.0554C45.285 25.2243 45.6596 22.3388 45.7914 19.4344C46.0063 16.5022 46.0548 13.5586 45.9367 10.62C46.0303 8.01176 45.2405 5.45652 43.7161 3.43578C42.0228 1.91877 39.9174 1.04522 37.7223 0.948953C33.7476 0.415039 29.7446 0.167654 25.7397 0.208429C21.7347 0.167654 17.7317 0.415039 13.757 0.948953C11.5619 1.04522 9.45648 1.91877 7.7632 3.43578C6.2388 5.45652 5.44898 8.01176 5.54259 10.62C5.4245 13.5586 5.47303 16.5022 5.68791 19.4344C5.81967 22.3388 6.19428 25.2243 6.80714 28.0554C7.07272 29.3784 7.54987 30.6409 8.21701 31.7856C8.90254 32.8373 9.84564 33.6604 10.9399 34.1619C13.3229 35.1164 15.8465 35.592 18.3869 35.5656C20.8293 35.7406 23.2802 35.8364 25.7397 35.853ZM31.2364 33.5955C30.9814 33.6425 30.1554 33.6425 29.235 33.6646C28.069 33.6922 26.9039 33.7033 25.7397 33.6977C24.5745 33.695 23.412 33.6977 22.2443 33.6646C21.3239 33.6425 20.4903 33.6425 20.2404 33.5955C19.9906 33.5485 19.7305 33.5319 19.8121 33.2335C19.8937 32.9351 21.0052 29.0225 21.0052 29.0225C21.7395 26.4224 21.7905 26.2594 23.6771 25.8504C25.0385 25.5534 26.4408 25.5534 27.8022 25.8504C29.6888 26.2511 29.7398 26.4224 30.4741 29.0225C30.4741 29.0225 31.5933 32.9323 31.6672 33.2335C31.7412 33.5347 31.4862 33.5485 31.2364 33.5955ZM36.2512 31.7138C36.6795 28.048 37.0194 24.3749 37.271 20.6944L37.3271 20.081C37.8845 14.5331 38.1544 8.95565 38.1353 3.37499C38.1716 3.30904 38.2231 3.25448 38.2848 3.21669C38.3465 3.1789 38.4162 3.15918 38.4871 3.15947C38.9409 3.30315 39.41 3.43578 39.8664 3.6292L40.0652 3.71486H40.0831C40.3572 3.83701 40.6245 3.97633 40.8836 4.1321C41.1496 4.29837 41.3961 4.49876 41.6179 4.72893L41.6306 4.74551C41.7227 4.84248 41.808 4.94686 41.8856 5.05775L41.9799 5.18485C43.2018 7.74863 43.6875 10.6502 43.3745 13.5157C43.4312 16.963 43.2496 20.4099 42.8314 23.8278L42.7244 24.7203V24.7617L42.6351 25.4884L42.5918 25.8062L42.5433 26.1599L42.4618 26.6794L42.4006 27.0275L42.3445 27.3176C42.2904 27.6058 42.2258 27.8916 42.1507 28.1742C42.1235 28.2847 42.0929 28.3925 42.0589 28.4975C42.0258 28.6053 41.9825 28.7517 41.9417 28.8733C41.9009 28.9949 41.8703 29.0861 41.8295 29.1883C41.7725 29.348 41.7087 29.5047 41.6383 29.658C41.419 30.1709 41.1283 30.6443 40.7765 31.0617C40.2412 31.6862 36.2079 34.2366 36.1875 32.4654C36.1926 32.3125 36.2138 32.062 36.2512 31.7138ZM10.7181 31.07C10.3663 30.6526 10.0756 30.1792 9.85633 29.6663C9.74398 29.4055 9.64107 29.14 9.54784 28.8705L9.43566 28.5086C9.39997 28.3842 9.37193 28.2903 9.34388 28.1797L9.26485 27.862C9.22406 27.6851 9.18496 27.5009 9.14757 27.3093L9.09403 27.033L9.03029 26.6821L8.95126 26.1599L8.90282 25.8145L8.85948 25.4801L8.78044 24.8446L8.7575 24.6567L8.65807 23.8278C8.23987 20.4099 8.05834 16.963 8.11503 13.5157C7.80282 10.6505 8.28755 7.74947 9.50705 5.18485L9.59628 5.06604C9.67389 4.95515 9.75911 4.85077 9.85123 4.7538L9.86653 4.73722C10.0874 4.51225 10.3322 4.31654 10.5957 4.1542C10.8572 3.99626 11.1271 3.85509 11.4039 3.73144L11.6104 3.64578C12.0642 3.46341 12.5333 3.31973 12.9871 3.17605C13.058 3.17575 13.1277 3.19548 13.1894 3.23327C13.2511 3.27106 13.3026 3.32562 13.3389 3.39157C13.3199 8.97223 13.5897 14.5496 14.1471 20.0975L14.2032 20.711C14.4582 24.3859 14.787 28.0526 15.223 31.7138L15.2995 32.4958C15.274 34.2421 11.2433 31.6945 10.7181 31.07ZM17.0459 2.65105C19.9301 2.2755 22.8356 2.12682 25.7397 2.20618C28.6437 2.12682 31.5492 2.2755 34.4334 2.65105C34.5787 2.7146 34.5915 2.83065 34.5226 3.1042C33.6609 6.50287 32.6666 11.0123 31.7794 14.4331C31.0706 17.1631 30.2497 20.6833 27.1903 21.0315C26.7119 21.0901 26.2312 21.1242 25.7498 21.1337C25.2578 21.142 24.7683 21.084 24.3094 21.0315C21.2322 20.6833 20.4189 17.1631 19.7203 14.4331C18.8331 11.0178 17.8388 6.5084 16.9771 3.1042C16.8853 2.83065 16.9006 2.7146 17.0459 2.65105ZM26.8793 41.0394L27.6849 41.1472C27.9679 41.1859 28.0342 41.4428 28.0342 41.7385V44.836L24.9748 40.473C24.9233 40.3871 24.8525 40.3168 24.7692 40.2684C24.6858 40.2201 24.5926 40.1954 24.498 40.1967H20.4189V41.0449L21.1837 41.1416C21.4565 41.1859 21.5559 41.3378 21.5559 41.7468V44.9161C21.5559 45.2919 21.4616 45.4687 21.171 45.5185L20.4061 45.6152V46.4441H24.1003V45.6152L23.3074 45.5185C23.2002 45.4969 23.1044 45.4323 23.0392 45.3375C22.974 45.2428 22.9441 45.1248 22.9556 45.0073V41.8242L26.0303 46.212C26.0878 46.289 26.1604 46.351 26.2429 46.3936C26.3254 46.4361 26.4157 46.4581 26.507 46.4579H29.4084V41.7136C29.4084 41.4926 29.4619 41.1859 29.7602 41.161L30.5658 41.0643V40.216H26.8691L26.8793 41.0394ZM15.4652 39.9563C12.1993 39.9563 10.7359 41.3378 10.7359 43.2997C10.7359 45.314 12.1993 46.679 15.4652 46.679C18.7311 46.679 20.1716 45.314 20.1716 43.2997C20.1716 41.3323 18.7082 39.9563 15.4652 39.9563ZM15.4652 45.4825C14.1497 45.4825 13.4027 44.9548 13.4027 43.308C13.4027 41.6611 14.1497 41.1582 15.4652 41.1582C16.7807 41.1582 17.5303 41.686 17.5303 43.308C17.5303 44.9299 16.768 45.4853 15.4525 45.4853L15.4652 45.4825ZM5.87403 41.0394L6.67966 41.1472C6.95246 41.1859 7.03149 41.4235 7.03149 41.7274V42.6973H3.46221V41.7136C3.46221 41.3461 3.59733 41.161 3.83698 41.161L4.61713 41.0643V40.216H0.0101978V41.0643L0.775045 41.161C1.08098 41.1997 1.16002 41.4373 1.14982 41.7661V44.9354C1.14982 45.2919 1.05804 45.4881 0.764847 45.5378L0 45.6345V46.4635H4.63497V45.6345L3.83443 45.524C3.65342 45.4991 3.47241 45.3748 3.47241 44.9714V43.9435H7.04169V44.9051C7.04169 45.1814 6.9958 45.4577 6.68986 45.4936L5.87403 45.6014V46.4607H10.509V45.6014L9.69316 45.5019C9.53509 45.477 9.35408 45.3416 9.35408 44.9852V41.733C9.35408 41.3986 9.46626 41.1803 9.70336 41.1527L10.509 41.056V40.2077H5.87403V41.0394ZM36.7713 40.2022H31.0528V41.0505L31.7692 41.1306C31.8263 41.1384 31.8815 41.1585 31.9314 41.1896C31.9813 41.2208 32.0249 41.2624 32.0598 41.312C32.0947 41.3617 32.1201 41.4184 32.1346 41.4788C32.149 41.5392 32.1522 41.6021 32.144 41.6639V45.0322C32.1575 45.1442 32.131 45.2575 32.0698 45.349C32.0086 45.4404 31.9175 45.5031 31.8151 45.524L31.0502 45.6318V46.4607H36.7713C39.4024 46.4607 40.5343 45.0791 40.5343 43.2416C40.5471 41.592 39.4024 40.2022 36.7713 40.2022ZM35.8866 45.2532H34.413V41.3848H35.8866C37.2939 41.3848 37.8829 41.744 37.8829 43.319C37.8829 44.894 37.2939 45.2532 35.8866 45.2532ZM50.1842 45.4991C49.9292 45.4632 49.766 45.1924 49.5595 44.847L46.9642 40.5476C46.9119 40.449 46.8381 40.3659 46.7491 40.3056C46.6602 40.2454 46.5589 40.2098 46.4543 40.2022H42.0079V41.0505L43.0277 41.1803C43.0821 41.1862 43.1341 41.208 43.1779 41.2434C43.2217 41.2788 43.2558 41.3265 43.2765 41.3813C43.2972 41.4361 43.3038 41.496 43.2954 41.5546C43.2871 41.6131 43.2642 41.6681 43.2292 41.7136L41.2788 45.1537C41.241 45.2471 41.1831 45.3292 41.1098 45.3931C41.0366 45.4571 40.9503 45.501 40.8581 45.5212L40.078 45.6179V46.4469H43.7722V45.6014L43.1374 45.5157C42.8824 45.477 42.7065 45.3057 42.8824 45.0101L43.1552 44.532H46.7041L46.9412 44.9244C47.1962 45.3306 46.9412 45.477 46.6353 45.5157L46.0005 45.6014V46.4496H51V45.6014L50.1842 45.4991ZM43.79 43.4351L44.9016 41.5009L46.0336 43.4351H43.79Z" fill="#222222"/>
</svg>
