<svg width="61" height="39" viewBox="0 0 61 39" fill="none" xmlns="http://www.w3.org/2000/svg">
<path d="M31.2396 0.205048C27.1776 0.0446038 23.1721 1.20838 19.814 3.52472C16.4559 5.84106 13.923 9.18732 12.5889 13.0699H14.0325C15.2917 9.67905 17.5436 6.75702 20.4876 4.69356C23.4316 2.63009 26.928 1.52331 30.5102 1.52083C32.8212 1.52015 35.1097 1.97998 37.2448 2.87403C39.38 3.76808 41.32 5.07882 42.9539 6.73134C44.5878 8.38386 45.8836 10.3457 46.7672 12.5049C47.6508 14.664 48.1049 16.978 48.1036 19.3147C48.1036 19.6128 48.1036 19.9161 48.0782 20.2167L49.4329 20.3684C49.4329 20.024 49.4583 19.6668 49.4583 19.3404C49.4529 14.3895 47.5533 9.6326 44.1574 6.0658C40.7614 2.49899 36.1325 0.398835 31.2396 0.205048ZM2.20871 14.4499L0 15.6141L33.6771 19.3147L42.9033 14.4499H2.20871ZM11.5671 18.2611V19.3147C11.5865 23.8331 13.1836 28.1994 16.0767 31.6431C18.9698 35.0869 22.9729 37.3868 27.3797 38.137C31.7865 38.8872 36.3137 38.0395 40.1626 35.7435C44.0115 33.4475 46.9346 29.8507 48.4162 25.5878H46.9675C45.7097 28.9741 43.4605 31.892 40.52 33.9523C37.5796 36.0125 34.0876 37.1172 30.5102 37.1189C25.844 37.1121 21.3712 35.2334 18.0736 31.8954C14.776 28.5574 12.9232 24.0327 12.9218 19.3147V18.4101L11.5671 18.2611ZM27.3077 19.325L18.0814 24.2026H58.776L60.9949 23.0385V23.0231L27.3077 19.325ZM60.9949 23.0231L61 23.0256L60.9949 23.0076V23.0231Z" fill="#222222"/>
</svg>
