<svg width="41" height="43" viewBox="0 0 41 43" fill="none" xmlns="http://www.w3.org/2000/svg">
<path d="M20.5 0.664551C9.17888 0.664551 0 10.1443 0 21.8364C0 33.5286 9.17888 43.0083 20.5 43.0083C31.8211 43.0083 41 33.5286 41 21.8364C41 10.1443 31.8211 0.664551 20.5 0.664551ZM20.5 41.1805C10.156 41.1805 1.76983 32.5194 1.76983 21.8364C1.76983 11.1535 10.156 2.49239 20.5 2.49239C30.844 2.49239 39.2302 11.1535 39.2302 21.8364C39.2302 32.5194 30.844 41.1805 20.5 41.1805ZM29.3645 28.4191L28.905 29.7H27.224C27.6733 28.4491 33.3364 14.4969 22.2083 5.03302C19.8722 4.7758 17.5098 5.04548 15.2845 5.82344C15.6552 6.13219 19.5109 9.39972 21.3268 13.4365L20.7938 13.5847C19.7927 12.4573 16.154 8.32172 12.6878 6.98965C10.8218 8.03932 9.17118 9.45346 7.82758 11.1535C9.45562 12.0127 13.7111 14.6362 15.3272 16.6758C15.1736 16.7546 15.0216 16.8363 14.871 16.921C11.9054 14.5921 6.63688 13.3853 6.36867 13.3253C5.26037 15.2803 4.54731 17.447 4.27254 19.6946C12.4315 21.3883 14.6285 25.2875 15.0043 29.7H13.4583L10.8035 28.5056C10.664 28.4552 10.5187 28.4238 10.3713 28.4121H5.42738C6.21029 30.3198 7.32551 32.063 8.71763 33.5551H10.8257C11.0068 33.5551 11.1674 33.5322 11.3245 33.4386L13.4583 32.313H28.905L29.3645 33.5939C31.2837 33.3656 33.065 32.4505 34.399 31.0074C33.0652 29.5636 31.284 28.6479 29.3645 28.4191ZM22.292 27.3976C21.9601 27.1671 21.7013 26.8406 21.5482 26.459C21.395 26.0774 21.3543 25.6576 21.431 25.2522C21.5105 24.8474 21.7038 24.4759 21.9867 24.1841C22.2696 23.8922 22.6295 23.693 23.0215 23.6114C23.4139 23.5319 23.8203 23.5737 24.1897 23.7315C24.5592 23.8894 24.8755 24.1563 25.0988 24.4988C25.6284 25.3175 25.5379 26.4272 24.8477 27.1382C24.5163 27.4797 24.0806 27.6922 23.6147 27.7395C23.1488 27.7868 22.6815 27.666 22.292 27.3976Z" fill="#222222"/>
</svg>
