<svg width="43" height="46" viewBox="0 0 43 46" fill="none" xmlns="http://www.w3.org/2000/svg">
<path d="M21.5 0.776611C33.3662 0.776611 43 10.7262 43 22.9813C43 35.2364 33.3662 45.1859 21.5 45.1859C9.63379 45.1859 0 35.2364 0 22.9813C0 10.7262 9.63379 0.776611 21.5 0.776611ZM5.81396 33.2306C7.4879 35.9631 9.80391 38.214 12.5465 39.7737C15.2891 41.3334 18.3691 42.1513 21.5 42.1513C28.0951 42.1513 33.893 38.5912 37.186 33.2306L21.5 27.0577L5.81396 33.2306ZM24.9185 20.9422L37.9385 31.8872C39.3376 29.1413 40.0665 26.0842 40.0617 22.9813C40.0617 12.6617 32.1479 4.23499 22.2525 3.82605L24.9185 20.9422ZM20.7475 3.82605C10.8521 4.23499 2.93833 12.6617 2.93833 22.9813C2.93833 26.1954 3.70517 29.2245 5.06146 31.8872L18.0815 20.9422L20.7475 3.82605Z" fill="#222222"/>
</svg>
