<svg width="49" height="51" viewBox="0 0 49 51" fill="none" xmlns="http://www.w3.org/2000/svg">
<path d="M24.5 0.580078C10.9699 0.580078 0 11.6783 0 25.3667C0 39.0551 10.9699 50.1533 24.5 50.1533C38.0301 50.1533 49 39.0551 49 25.3667C49 11.6783 38.0301 0.580078 24.5 0.580078ZM24.5 2.19121C37.1502 2.19121 47.4055 12.5665 47.4055 25.3667C47.4055 38.1648 37.1522 48.5401 24.5 48.5401C11.8478 48.5401 1.59454 38.1648 1.59454 25.3667C1.59454 12.5685 11.8498 2.19121 24.5 2.19121ZM23.1157 3.4925C22.4434 3.5228 21.7683 3.5765 21.0904 3.65362L20.872 9.7346C21.3527 9.65239 21.8362 9.58762 22.3215 9.54044L22.4645 5.43412L22.4379 5.15114L22.5257 5.41966L23.8814 8.49527H25.1186L26.4743 5.42173L26.556 5.15114L26.5355 5.43412L26.6785 9.54044C27.1521 9.58588 27.6442 9.65198 28.128 9.7346L27.9055 3.65362C27.2323 3.57727 26.5569 3.52353 25.8802 3.4925L24.547 6.84902L24.5 7.09689L24.453 6.84902L23.1157 3.4925ZM36.7868 7.26007L33.6365 12.2752C34.0346 12.5851 34.5593 13.0415 34.8962 13.3534L37.8627 11.796L38.0505 11.6535L37.9097 11.8477L36.3743 14.8489C36.7071 15.2104 37.1869 15.7949 37.4564 16.1502L42.4177 12.961C42.1135 12.5627 41.8003 12.1715 41.4785 11.7878L38.3364 13.8822L38.122 14.0723L38.2812 13.8347L39.6696 11.0338L38.6896 10.0424L35.9211 11.4469L35.6863 11.6081L35.8721 11.3891L37.9505 8.21022C37.583 7.89626 37.2339 7.60915 36.7868 7.26007ZM11.2292 8.39819C10.4942 8.47461 9.92658 8.98274 8.38513 10.7219C7.85064 11.3348 7.33521 11.9644 6.83958 12.6098L11.074 16.6728C12.4766 15.103 13.0463 14.5205 14.1528 13.341C14.9348 12.5045 15.3778 11.544 14.5938 10.6207C14.1692 10.1209 13.4546 10.0114 12.8584 10.2592L12.8013 10.2799L12.8217 10.2262C12.8953 9.95212 12.8875 9.66218 12.7993 9.39256C12.711 9.12293 12.5463 8.88557 12.3255 8.71008C12.1723 8.58729 11.9965 8.49664 11.8082 8.44344C11.6199 8.39024 11.4231 8.37349 11.2292 8.39819ZM11.2414 9.6685C11.5191 9.59208 11.807 9.79243 11.8703 10.0816C11.9356 10.3708 11.7559 10.6434 11.5558 10.8707C11.1067 11.387 9.45088 13.1386 9.45088 13.1386L8.63013 12.3475C9.4815 11.2941 10.388 10.3357 10.7984 9.95561C10.9215 9.82576 11.0733 9.72736 11.2414 9.6685ZM24.5 10.6662C20.9034 10.6646 17.4341 12.013 14.7638 14.4505C12.0935 16.8881 10.412 20.2412 10.045 23.8609V23.865C9.81429 26.1615 10.121 28.4807 10.9403 30.635C11.7596 32.7894 13.0685 34.7184 14.7612 36.2662C16.4539 37.814 18.4828 38.9371 20.684 39.5446C22.8851 40.1522 25.1967 40.2272 27.4318 39.7636C30.7084 39.083 33.6521 37.2784 35.7652 34.6551C37.8782 32.0318 39.031 28.7507 39.0285 25.3667C39.0258 21.4694 37.4942 17.7326 34.7701 14.9771C32.046 12.2215 28.3522 10.6725 24.5 10.6703V10.6662ZM13.1953 11.166C13.2933 11.1646 13.3886 11.1943 13.4811 11.2548C13.6608 11.3767 13.7425 11.5853 13.6975 11.7919C13.6445 12.0377 13.4423 12.269 13.279 12.4487L11.1455 14.7621L10.288 13.9359C10.288 13.9359 11.8948 12.2174 12.4215 11.6659C12.6298 11.4469 12.7645 11.3147 12.9074 11.2425C12.9951 11.1937 13.0953 11.1675 13.1953 11.166ZM24.5 12.5975C26.158 12.5955 27.8001 12.9245 29.3323 13.5656C30.8645 14.2066 32.2566 15.1471 33.429 16.3332C34.6014 17.5193 35.531 18.9278 36.1647 20.4779C36.7983 22.028 37.1235 23.6893 37.1216 25.3667H24.5V38.1359C22.842 38.1378 21.1999 37.8088 19.6677 37.1678C18.1355 36.5268 16.7434 35.5863 15.571 34.4001C14.3986 33.214 13.469 31.8056 12.8353 30.2555C12.2017 28.7054 11.8765 27.0441 11.8784 25.3667H24.5V12.5975Z" fill="#222222"/>
</svg>
