<svg width="51" height="44" viewBox="0 0 51 44" fill="none" xmlns="http://www.w3.org/2000/svg">
<path d="M48.9674 39.7789H43.153C43.1876 39.416 43.3367 39.0775 43.575 38.8214C43.8133 38.5652 44.1258 38.4073 44.4591 38.3747H50.3456L50.325 37.0324H44.083C43.1399 37.0436 42.2374 37.4526 41.5649 38.1736C40.8925 38.8946 40.5023 39.8716 40.4764 40.8994C40.4738 40.9323 40.478 40.9655 40.4888 40.9964C40.4996 41.0273 40.5166 41.0552 40.5387 41.0779C40.5607 41.1006 40.5872 41.1175 40.6161 41.1275C40.6451 41.1374 40.6757 41.1401 40.7057 41.1353L47.7901 41.1072C47.96 41.1269 48.118 41.2116 48.2359 41.3463C48.3539 41.4811 48.4241 41.6571 48.4341 41.843C48.4289 41.9477 48.4047 42.0502 48.3629 42.1446C48.3212 42.2391 48.2627 42.3236 48.1909 42.3932C48.119 42.4629 48.0353 42.5165 47.9444 42.5507C47.8535 42.585 47.7573 42.5993 47.6613 42.5928H39.8813V37.0267H37.586V42.5928H33.3663C33.1827 42.6243 32.995 42.6089 32.8179 42.5479C32.6407 42.4869 32.479 42.3819 32.3454 42.2411C32.2118 42.1004 32.11 41.9278 32.048 41.7369C31.9859 41.5459 31.9654 41.3419 31.988 41.1409V36.9902H28.1831C27.8069 37.2711 27.4437 37.5744 27.0547 37.8327L24.7954 39.3464L21.8638 37.0127H12.9889C12.0111 36.9658 11.0479 37.2838 10.2582 37.9142C9.84747 38.2067 9.49672 38.5888 9.22805 39.0364C8.95937 39.4839 8.77859 39.9872 8.69707 40.5147H10.2428C9.60717 41.0114 9.12479 41.7066 8.85937 42.5086H3.7689C3.39768 42.5404 3.03003 42.4104 2.74656 42.1472C2.46309 41.884 2.28693 41.509 2.25671 41.1044V36.9621H0V41.2729C0 42.8231 1.35248 43.8931 3.51902 43.8931H17.2988V42.4889H11.8271C11.8689 42.1186 12.026 41.7752 12.2721 41.516C12.5183 41.2569 12.8386 41.0977 13.1796 41.0651H18.1412V39.6413H11.7627C11.688 39.2228 12.4016 38.4028 12.9503 38.4028H18.9501V37.639L22.8324 40.6775L20.179 42.4889H17.2988V43.8931H20.6324C20.9904 43.6291 21.3279 43.3511 21.6963 43.1067L24.0148 41.5706L26.962 43.865H30.311L25.8774 40.231L28.1547 38.6106C28.639 38.2624 29.1491 37.9703 29.6463 37.653V41.3038C29.6463 42.8484 30.0095 43.9183 32.8613 43.9183L48.9597 43.8762C49.2197 43.9004 49.4816 43.8653 49.7285 43.7731C49.9754 43.681 50.202 43.5338 50.394 43.341C50.5859 43.1481 50.7389 42.9139 50.8432 42.6531C50.9475 42.3923 51.0009 42.1107 51 41.8261C50.9759 41.2622 50.7491 40.7313 50.3688 40.3482C49.9884 39.9651 49.485 39.7606 48.9674 39.7789ZM25.5039 34.9907C34.3813 34.9907 40.1879 31.8763 43.5523 27.8744H40.1544C36.0041 31.4656 30.786 33.2651 25.4961 32.9294C11.9482 32.9294 6.94787 24.6308 6.94787 17.4837C7.04576 11.1032 12.4041 2.29912 25.8259 2.00986C26.3411 1.99301 26.7275 2.49851 26.3746 2.97592C24.0818 6.06507 17.541 16.0093 16.7965 17.2983C15.8918 18.5937 15.3384 20.1397 15.1993 21.7607C15.1321 22.3755 15.199 22.9989 15.3947 23.5801C15.5903 24.1613 15.9091 24.6839 16.325 25.1054C18.4391 26.5832 20.9814 27.1517 23.4584 26.7006H43.5034C43.8231 26.7295 44.1435 26.6545 44.4241 26.4851C44.7047 26.3156 44.9329 26.0593 45.08 25.7485C46.5592 23.3302 47.3644 20.4968 47.3985 17.5904C47.3985 12.0384 44.0933 5.04565 35.7209 1.8863L34.778 3.36628C41.4193 6.80085 44.1629 11.2941 44.1629 17.582C44.2041 19.4292 43.7219 21.2453 42.7821 22.783H23.2884C22.1214 22.783 21.9513 21.3395 22.3738 20.5363C24.0443 17.2918 25.9101 14.1715 27.9589 11.1959C29.9063 8.37952 31.8901 5.5934 33.9098 2.83832C34.4585 2.0576 34.0902 1.30497 32.9953 1.06065C30.5181 0.471643 27.9903 0.1732 25.4549 0.170415C9.45961 0.161991 3.60661 10.1764 3.60661 17.5988C3.60661 25.6503 9.50083 34.9907 25.5039 34.9907Z" fill="#222222"/>
</svg>
