<svg width="61" height="35" viewBox="0 0 61 35" fill="none" xmlns="http://www.w3.org/2000/svg">
<path d="M25.8793 16.0353H27.7016L29.2902 11.0467L30.2179 16.0353H32.0428L34.5285 8.3286L32.6223 8.33129L31.2955 12.5217L30.5356 8.33129H27.9685L27.905 8.53084L28.032 8.66027C28.1668 8.80319 28.1591 8.96768 28.0448 9.32362L25.8793 16.0353ZM35.408 9.32362L33.2399 16.038H36.4399C37.8124 16.038 38.5927 15.7144 39.2306 14.9944C40.0262 14.0992 40.7556 11.7721 40.7302 10.4912C40.7073 9.1834 39.9118 8.33399 38.2394 8.33399H35.3292L35.2682 8.53084L35.3952 8.66027C35.5274 8.80319 35.5249 8.96768 35.408 9.32362ZM37.1465 10.1595H37.942C38.4834 10.1595 38.7808 10.351 38.7884 10.7959C38.7935 11.0818 38.7197 11.4755 38.4402 12.3195C38.1911 13.0745 37.9928 13.514 37.7107 13.8349C37.487 14.0884 37.1846 14.199 36.4958 14.199H35.8324L37.1465 10.1595ZM47.4809 11.0952H42.6492L42.0214 12.9289H45.3713L41.5664 14.3014L41.33 14.9567L46.8124 13.0421L47.4809 11.0952ZM12.8176 16.038H17.7739L18.3737 14.199H15.4915L17.3977 8.33129H14.9094L14.8484 8.53084L14.973 8.66027C15.1077 8.80319 15.1026 8.96768 14.9857 9.32362L12.8176 16.038ZM18.2898 16.0353H20.3994L21.3119 14.3311H23.4952L23.5155 16.0353H25.4294L25.0176 8.33129H22.1532L22.0896 8.53084L22.1811 8.62791C22.3336 8.78431 22.2701 9.01082 21.7135 9.94922L18.2898 16.0353ZM23.363 10.4616H23.4291L23.4647 12.7914H22.1252L23.363 10.4616ZM20.3588 17.7045H17.2223L17.1588 17.904L17.2859 18.0388C17.4206 18.1764 17.413 18.3435 17.296 18.6995L15.1051 25.4139H17.108L17.9645 22.747H18.6431L19.3955 25.4112H21.4085L20.463 22.6877C20.873 22.6424 21.2587 22.4591 21.5635 22.1646C21.9422 21.7978 22.204 21.2855 22.42 20.5277C22.7352 19.4303 22.5446 18.802 22.3413 18.4784C22.0617 18.0361 21.472 17.7045 20.3588 17.7045ZM20.5316 20.5035C20.4045 20.8325 20.2673 20.9107 20.0868 20.9889C19.8827 21.0394 19.6736 21.0629 19.4641 21.059H18.5033L19.0244 19.4653H20.1808C20.5265 19.4653 20.6688 19.6541 20.6739 19.8752C20.6557 20.0912 20.6068 20.303 20.529 20.5035M47.0539 17.7045H43.92L43.859 17.904L43.9861 18.0388C44.1208 18.1764 44.1132 18.3435 43.9988 18.6995L41.8053 25.4139H43.8107L44.6647 22.7497H45.3433L46.0982 25.4112H48.1061L47.1657 22.6877C47.574 22.6413 47.9577 22.458 48.2612 22.1646C48.6424 21.7978 48.9042 21.2855 49.1203 20.5277C49.4354 19.4303 49.2473 18.802 49.044 18.4784C48.7644 18.0361 48.1697 17.7045 47.0539 17.7045ZM47.2318 20.5035C47.1047 20.8325 46.9675 20.9107 46.7895 20.9889C46.5855 21.0394 46.3763 21.0629 46.1668 21.059H45.2112L45.7271 19.4653H46.8836C47.2292 19.4653 47.3716 19.6541 47.3741 19.8752C47.3567 20.091 47.3087 20.3028 47.2318 20.5035ZM50.7063 7.71648C44.6952 4.42131 37.21 3.15933 30.5 3.15933C23.79 3.15933 16.3048 4.42131 10.2938 7.71648C6.91333 9.56901 2.63063 12.9073 2.63063 17.4079C2.63063 21.9084 6.91588 25.2467 10.2938 27.0992C16.3048 30.3944 23.79 31.6564 30.5 31.6564C37.21 31.6564 44.6952 30.3971 50.7063 27.0992C54.0841 25.2467 58.3694 21.9084 58.3694 17.4079C58.3694 12.9046 54.0867 9.56901 50.7063 7.71648ZM50.4013 26.4682C44.4792 29.7122 37.116 30.9445 30.5 30.9445C23.884 30.9445 16.5208 29.7122 10.5988 26.4682C7.46996 24.7451 3.30417 21.5767 3.30417 17.4079C3.30417 13.2336 7.46742 10.0679 10.5988 8.35017C16.5208 5.10623 23.8866 3.87391 30.5 3.87391C37.1134 3.87391 44.4792 5.10353 50.4013 8.35017C53.5351 10.0679 57.6958 13.2309 57.6958 17.4105C57.6958 21.5821 53.5326 24.7478 50.4013 26.4682ZM51.9135 5.23836C46.1846 2.09689 38.5825 0.368408 30.5 0.368408C22.42 0.368408 14.8179 2.09689 9.08646 5.23836C5.69333 7.09897 0 11.1546 0 17.4079C0 23.6611 5.69333 27.7167 9.08646 29.5773C14.8154 32.7188 22.42 34.45 30.5 34.45C38.58 34.45 46.1846 32.7215 51.9135 29.58C55.3067 27.7167 61 23.6638 61 17.4079C61 11.1519 55.3067 7.09897 51.9135 5.23836ZM51.1688 28.0511C45.6661 31.0631 38.3283 32.7242 30.5 32.7242C22.6717 32.7242 15.3364 31.0631 9.83117 28.0457C4.53942 25.1469 1.62158 21.3664 1.62158 17.4079C1.62158 13.4466 4.53942 9.66878 9.83117 6.7673C15.3364 3.75257 22.6742 2.0915 30.5 2.0915C38.3283 2.0915 45.6661 3.75526 51.1688 6.77C56.4631 9.66878 59.3784 13.4493 59.3784 17.4105C59.3784 21.3691 56.4631 25.1496 51.1688 28.0511ZM27.2518 17.6155H27.0205C25.6505 17.6155 24.8702 18.0038 24.2272 18.7265C23.4291 19.6244 22.6793 22.0432 22.6945 23.3268C22.7098 24.6319 23.5079 25.5379 25.1803 25.5379H25.4243C26.7968 25.5379 27.5796 25.1469 28.2201 24.4242C29.0182 23.5263 29.7528 21.1075 29.7375 19.824C29.7222 18.5188 28.9242 17.6128 27.2492 17.6128M27.3661 21.698C27.117 22.4558 26.9213 22.9438 26.6341 23.2647C26.4054 23.5182 26.108 23.6989 25.4141 23.6989C24.8753 23.6989 24.5754 23.4643 24.5754 23.022C24.5703 22.7335 24.644 22.2994 24.9338 21.4527C25.1828 20.6976 25.3785 20.2069 25.6683 19.886C25.892 19.6325 26.1944 19.4518 26.8832 19.4518C27.4246 19.4518 27.7245 19.6864 27.722 20.126C27.7296 20.4172 27.6559 20.854 27.3661 21.698ZM15.339 18.7022L9.85658 20.614L9.18813 22.5636H14.0224L14.6527 20.7273H11.3003L15.1051 19.3601L15.339 18.7022ZM35.2809 17.7072L32.6223 23.2486H32.5664L32.4317 17.7072H30.2077L30.1213 17.9067L30.3119 18.0308C30.4975 18.1683 30.5483 18.3085 30.5712 18.6941L30.8736 25.4139H33.3517L37.3498 17.7072H35.2809ZM41.3707 22.3236L41.9273 20.7138H39.3704L39.7669 19.4815H42.5322L43.1423 17.7018H37.9217L37.848 17.9283L37.975 18.0604C38.1098 18.1979 38.1021 18.3624 37.9852 18.7238L35.8121 25.4112H40.6921L41.2818 23.6234H38.4351L38.8519 22.3236H41.3707Z" fill="#222222"/>
</svg>
