<svg width="53" height="52" viewBox="0 0 53 52" fill="none" xmlns="http://www.w3.org/2000/svg">
<path d="M41.2072 38.0515C41.2588 38.1234 41.3218 38.178 41.3912 38.2109C41.4606 38.2438 41.5346 38.2543 41.6075 38.2414C41.907 38.1939 41.9149 37.566 41.9149 37.566C41.9149 37.566 41.9865 36.1312 41.9865 34.6856C41.9157 33.4248 41.5534 32.2285 40.9527 31.2722C40.9527 31.2722 30.2441 15.0265 26.4934 15.0265C22.7427 15.0265 12.034 31.2722 12.034 31.2722C11.4333 32.2285 11.071 33.4248 11.0002 34.6856C11.0002 36.1458 11.0718 37.5696 11.0718 37.5696C11.0718 37.5696 11.0718 38.1939 11.3793 38.2414C11.4521 38.2543 11.5261 38.2438 11.5955 38.2109C11.665 38.178 11.7279 38.1234 11.7795 38.0515C12.9776 36.6168 22.5333 25.3142 26.4934 25.3142C30.4535 25.3142 40.0118 36.6131 41.2072 38.0515ZM11.3872 23.2917C11.4596 23.304 11.5331 23.2933 11.6021 23.2604C11.671 23.2275 11.7335 23.1733 11.7848 23.1019C12.9776 21.6672 22.5333 10.3646 26.496 10.3646C30.4535 10.3646 40.0144 21.6818 41.2072 23.1055C41.2591 23.1768 41.3221 23.2307 41.3915 23.263C41.461 23.2952 41.5348 23.3051 41.6075 23.2917C41.907 23.2443 41.9149 22.6163 41.9149 22.6163C41.9149 22.6163 41.9865 21.178 41.9865 19.7359C41.9163 18.4739 41.5539 17.2762 40.9527 16.3189C40.9527 16.3189 30.2441 0.0732422 26.4934 0.0732422C22.7427 0.0732422 12.034 16.3189 12.034 16.3189C11.4328 17.2762 11.0705 18.4739 11.0002 19.7359C11.0002 21.178 11.0718 22.62 11.0718 22.62C11.0718 22.62 11.0824 23.2443 11.3872 23.2917ZM41.1065 42.4798C40.9063 42.3265 40.6808 42.2473 40.4518 42.2498C40.2213 42.2393 39.9933 42.3191 39.7944 42.4798C39.7188 42.5312 39.6544 42.6094 39.6079 42.7062C39.5613 42.803 39.5342 42.9151 39.5293 43.0311C39.5337 43.1477 39.5606 43.2605 39.6072 43.3581C39.6538 43.4556 39.7184 43.5343 39.7944 43.586C39.9949 43.7299 40.2177 43.8051 40.4438 43.8051C40.6699 43.8051 40.8927 43.7299 41.0932 43.586C41.2576 43.4509 41.4325 43.2209 41.6234 43.2209C41.8217 43.2707 42.0056 43.3974 42.1535 43.586C42.3539 43.738 42.5794 43.816 42.8082 43.8123C43.0402 43.8253 43.2701 43.7468 43.4709 43.586C43.5469 43.5343 43.6115 43.4556 43.6581 43.3581C43.7046 43.2605 43.7315 43.1477 43.7359 43.0311C43.7306 42.9158 43.7033 42.8044 43.6568 42.7083C43.6102 42.6121 43.5461 42.5346 43.4709 42.4835C43.2677 42.3301 43.0398 42.2497 42.8082 42.2497C42.5766 42.2497 42.3487 42.3301 42.1455 42.4835C41.9706 42.6295 41.8328 42.8485 41.6154 42.8485C41.3981 42.8485 41.292 42.6295 41.1065 42.4835M40.1204 50.0076V48.7408H43.9851V47.5762H40.1204V46.4189C40.1204 46.4189 40.1204 46.0831 40.4067 46.0831H44.8386V45.1485C44.8386 44.8783 44.6266 44.8929 44.6213 44.8929H38.4187C38.3939 44.892 38.3692 44.8979 38.3461 44.9103C38.3229 44.9227 38.3019 44.9413 38.2841 44.9651C38.2663 44.989 38.2521 45.0175 38.2425 45.049C38.2328 45.0805 38.2278 45.1143 38.2279 45.1485V50.1865C38.2278 50.3654 38.2536 50.5425 38.3038 50.7076C38.3539 50.8727 38.4273 51.0224 38.5198 51.1481C38.6123 51.2738 38.7219 51.3729 38.8425 51.4397C38.963 51.5065 39.092 51.5396 39.2219 51.5372H44.6557C44.7045 51.5372 44.7513 51.5108 44.786 51.4637C44.8207 51.4165 44.8406 51.3525 44.8413 51.2853V50.3544H40.3775C40.3435 50.3581 40.3094 50.3518 40.2773 50.3358C40.2452 50.3198 40.216 50.2945 40.1917 50.2616C40.1673 50.2287 40.1483 50.1891 40.136 50.1452C40.1237 50.1014 40.1184 50.0545 40.1204 50.0076ZM3.7878 45.7216C3.89382 45.7216 4.27287 45.6997 4.61745 45.7216C4.9513 45.7202 5.27989 45.8361 5.57211 46.0584C5.86434 46.2807 6.11053 46.6021 6.28737 46.9921C6.30385 47.0299 6.32715 47.0612 6.35502 47.083C6.38289 47.1047 6.41438 47.1162 6.44641 47.1162H8.30188C8.05551 46.3926 7.66183 45.7831 7.16868 45.3618C6.67553 44.9405 6.10414 44.7257 5.52398 44.7433C4.85601 44.7433 3.66852 44.6848 2.88922 44.7433C2.14112 44.7218 1.41385 45.0835 0.848212 45.7582C0.588635 46.0593 0.3787 46.4333 0.232429 46.8551C0.0861574 47.2769 0.00691741 47.7368 0 48.2041C0.0504102 49.1824 0.377933 50.0942 0.911955 50.743C1.44598 51.3918 2.14372 51.7255 2.85476 51.6723C3.97069 51.7234 4.08997 51.7271 5.55314 51.6723C6.13339 51.7154 6.70906 51.5096 7.20086 51.0833C7.69266 50.657 8.0764 50.0312 8.29922 49.292H6.44376C6.41147 49.2924 6.37982 49.3044 6.35192 49.3268C6.32403 49.3492 6.30087 49.3813 6.28472 49.4198C6.11503 49.8114 5.87429 50.1354 5.58616 50.3601C5.29803 50.5848 4.97241 50.7023 4.64131 50.7012H3.7825C3.53686 50.7195 3.2911 50.6687 3.0602 50.5519C2.8293 50.435 2.61811 50.2546 2.43952 50.0216C2.26094 49.7886 2.1187 49.5079 2.0215 49.1967C1.92429 48.8855 1.87416 48.5502 1.87416 48.2114C1.87416 47.8726 1.92429 47.5374 2.0215 47.2262C2.1187 46.9149 2.26094 46.6342 2.43952 46.4012C2.61811 46.1683 2.8293 45.9878 3.0602 45.871C3.2911 45.7541 3.53686 45.7033 3.7825 45.7216H3.7878ZM26.7293 49.0985C27.0995 49.0277 27.4405 48.7824 27.6942 48.4043C27.9479 48.0263 28.0987 47.5388 28.1209 47.0249C28.0694 46.3939 27.84 45.8159 27.482 45.4157C27.1239 45.0155 26.6661 44.8252 26.2071 44.8856H21.6559C21.5264 44.8842 21.3979 44.9183 21.2781 44.9862C21.1583 45.054 21.0495 45.1541 20.9582 45.2806C20.8668 45.4071 20.7947 45.5574 20.7461 45.7228C20.6975 45.8882 20.6734 46.0653 20.6752 46.2437V51.2817C20.6744 51.3142 20.6785 51.3467 20.6872 51.377C20.6958 51.4073 20.7088 51.4349 20.7254 51.4581C20.742 51.4813 20.7619 51.4996 20.7837 51.512C20.8056 51.5243 20.8291 51.5304 20.8528 51.5299H22.5624V49.1752H24.174C24.6733 49.1226 25.1679 49.3385 25.5539 49.7776C25.9399 50.2167 26.1874 50.8448 26.2442 51.5299H28.1288C28.0763 50.9885 27.9185 50.4768 27.6722 50.0488C27.4258 49.6208 27.1 49.2925 26.7293 49.0985ZM25.5285 48.0033H22.5624V46.6781C22.5597 46.5955 22.5697 46.513 22.5916 46.436C22.6135 46.359 22.6469 46.2891 22.6896 46.231C22.7323 46.1728 22.7834 46.1277 22.8396 46.0984C22.8957 46.0692 22.9557 46.0565 23.0157 46.0612H25.5365C25.7235 46.0612 25.9028 46.1635 26.035 46.3456C26.1673 46.5277 26.2416 46.7747 26.2416 47.0322C26.2416 47.2898 26.1673 47.5368 26.035 47.7189C25.9028 47.901 25.7235 48.0033 25.5365 48.0033H25.5285ZM11.0294 44.8747H9.50793C9.45872 44.8747 9.41152 44.9016 9.37673 44.9495C9.34193 44.9975 9.32238 45.0625 9.32238 45.1302V51.2671C9.32238 51.3348 9.34193 51.3998 9.37673 51.4478C9.41152 51.4957 9.45872 51.5226 9.50793 51.5226H11.2176V45.1375C11.2183 45.1034 11.214 45.0693 11.205 45.0375C11.196 45.0056 11.1825 44.9766 11.1652 44.9521C11.1479 44.9276 11.1272 44.9081 11.1043 44.8948C11.0814 44.8815 11.0542 44.8747 11.0294 44.8747ZM19.4771 44.8747H12.4157C12.367 44.8756 12.3204 44.903 12.2862 44.9508C12.252 44.9986 12.2328 45.0631 12.2328 45.1302V46.1926H13.9186C14.1998 46.1926 14.4695 46.3464 14.6684 46.6203C14.8672 46.8941 14.9789 47.2656 14.9789 47.6529V51.2817C14.9789 51.3494 14.9984 51.4144 15.0332 51.4624C15.068 51.5103 15.1152 51.5372 15.1644 51.5372H16.8768V46.5431C16.8775 46.4536 16.9037 46.3682 16.9499 46.3053C16.9961 46.2425 17.0584 46.2072 17.1233 46.2072H19.6573V45.1485C19.6591 45.1137 19.6558 45.0788 19.6474 45.0459C19.6391 45.013 19.6259 44.9828 19.6088 44.9572C19.5917 44.9315 19.5709 44.911 19.5478 44.8968C19.5247 44.8826 19.4997 44.8751 19.4744 44.8747M50.185 44.8747H46.0818C46.0129 44.8747 45.8565 44.9002 45.8565 45.1229V51.2671C45.8546 51.2997 45.8577 51.3326 45.8656 51.3635C45.8734 51.3944 45.8858 51.4228 45.902 51.4468C45.9182 51.4708 45.9378 51.4899 45.9596 51.503C45.9814 51.516 46.005 51.5227 46.0288 51.5226H47.7464V46.3897C47.7456 46.345 47.7515 46.3006 47.7637 46.2591C47.7759 46.2177 47.794 46.1801 47.8171 46.1487C47.8402 46.1172 47.8677 46.0926 47.8979 46.0763C47.9281 46.06 47.9605 46.0524 47.9929 46.0539H49.8828C50.2524 46.0913 50.5962 46.3283 50.8395 46.7133C51.0827 47.0982 51.2057 47.5999 51.1816 48.1092V51.2707C51.1812 51.3058 51.1861 51.3407 51.1959 51.3731C51.2057 51.4056 51.2203 51.4349 51.2387 51.4592C51.2571 51.4835 51.279 51.5023 51.3029 51.5145C51.3268 51.5267 51.3523 51.5319 51.3778 51.5299H53V48.2808C52.9809 47.801 52.8925 47.3312 52.7399 46.899C52.5874 46.4668 52.3739 46.0809 52.1117 45.7637C51.8496 45.4465 51.5442 45.2046 51.2134 45.0519C50.8826 44.8993 50.5329 44.839 50.185 44.8747ZM34.4454 44.7907C33.1412 44.7542 31.8212 44.7907 31.808 44.7907C31.4506 44.715 31.0856 44.7466 30.738 44.8834C30.3904 45.0201 30.0683 45.2588 29.7939 45.583C29.5196 45.9072 29.2993 46.3093 29.1483 46.7617C28.9973 47.2142 28.9191 47.7062 28.9191 48.2041C28.9191 48.7021 28.9973 49.1941 29.1483 49.6465C29.2993 50.0989 29.5196 50.501 29.7939 50.8253C30.0683 51.1495 30.3904 51.3881 30.738 51.5249C31.0856 51.6616 31.4506 51.6932 31.808 51.6175C31.808 51.6175 33.1333 51.654 34.4454 51.6175C34.8027 51.6932 35.1677 51.6616 35.5153 51.5249C35.8629 51.3881 36.185 51.1495 36.4594 50.8253C36.7338 50.501 36.954 50.0989 37.105 49.6465C37.256 49.1941 37.3342 48.7021 37.3342 48.2041C37.3342 47.7062 37.256 47.2142 37.105 46.7617C36.954 46.3093 36.7338 45.9072 36.4594 45.583C36.185 45.2588 35.8629 45.0201 35.5153 44.8834C35.1677 44.7466 34.8027 44.715 34.4454 44.7907ZM33.5441 50.6793C33.5441 50.6793 33.067 50.6976 32.7092 50.6793C32.4653 50.6885 32.2224 50.6314 31.9946 50.5112C31.7667 50.391 31.5583 50.2101 31.3813 49.9789C31.2043 49.7476 31.0621 49.4705 30.9629 49.1635C30.8638 48.8564 30.8095 48.5255 30.8034 48.1895C30.8109 47.8571 30.8661 47.53 30.9659 47.2271C31.0657 46.9242 31.208 46.6515 31.3847 46.4248C31.5614 46.1981 31.7689 46.0218 31.9953 45.9061C32.2218 45.7904 32.4626 45.7377 32.7039 45.7509C32.7039 45.7509 33.1704 45.7253 33.5441 45.7509C33.7861 45.7362 34.0278 45.7879 34.2551 45.9029C34.4824 46.0179 34.6909 46.1939 34.8685 46.4208C35.046 46.6476 35.1891 46.9208 35.2894 47.2245C35.3896 47.5281 35.4451 47.8561 35.4526 48.1895C35.4464 48.5258 35.3921 48.857 35.2928 49.1643C35.1934 49.4716 35.051 49.7489 34.8737 49.9802C34.6964 50.2115 34.4877 50.3923 34.2595 50.5123C34.0314 50.6323 33.7883 50.689 33.5441 50.6793Z" fill="#222222"/>
</svg>
