<svg width="59" height="26" viewBox="0 0 59 26" fill="none" xmlns="http://www.w3.org/2000/svg">
<path d="M10.2385 0.0251465V13.9238C10.2385 15.7333 9.14708 16.8077 7.37961 16.8077C5.6146 16.8077 4.67801 15.3938 4.67801 13.8676V11.3819H0V13.9265C0 16.5244 0.727636 21.1618 7.43369 21.1618C14.1373 21.1618 15.0739 16.185 15.0739 13.8115V0.0278191L10.2385 0.0251465ZM22.3281 5.78773C17.9082 5.78773 15.9367 10.1925 15.9367 13.9826C15.9367 17.7673 18.1712 21.4397 22.7436 21.4397C26.7456 21.4985 29.398 18.6734 29.398 16.5806H24.9781C24.9781 16.5806 24.4594 17.9383 22.8984 17.9383C21.3399 17.9383 20.4574 16.9761 20.4574 14.6588H29.4496C29.4496 7.37004 26.1236 5.78773 22.3281 5.78773ZM36.7014 5.78506C32.2839 5.78506 30.31 10.1899 30.31 13.9799C30.31 17.7646 32.5445 21.4371 37.1193 21.4371C41.1213 21.4959 43.7713 18.6707 43.7713 16.5779H39.3563C39.3563 16.5779 38.8351 17.9357 37.2766 17.9357C35.7156 17.9357 34.8331 16.9735 34.8331 14.6561H43.8229C43.8229 7.36736 40.4994 5.78239 36.7038 5.78239M53.2797 5.95077C51.0353 5.95077 50.0397 7.27916 49.9857 7.34598C49.671 7.7576 49.2802 8.19326 49.2802 7.1375V6.34635H44.8062V25.8445H49.3293V20.4748C49.3293 20.0793 49.6931 20.1381 49.9562 20.4748C50.2167 20.817 51.3574 21.6616 53.3362 21.6616C56.9228 21.6616 59 18.2724 59 13.6378C59 7.64801 55.5191 5.95077 53.2797 5.95077ZM22.7976 8.94432C24.4594 8.94432 25.1846 10.3021 25.1846 11.716H20.6123C20.6123 10.1872 21.185 8.947 22.7952 8.947M37.166 8.947C38.8302 8.947 39.5578 10.3048 39.5578 11.7187H34.9806C34.9806 10.1899 35.5534 8.94967 37.1635 8.94967M51.7163 9.7435C54.0073 9.7435 54.4203 11.6653 54.4203 13.6431C54.4203 15.621 54.1081 18.219 51.9301 18.219C49.7448 18.219 49.172 16.6955 49.2212 13.8142C49.2752 10.9302 50.3102 9.7435 51.7163 9.7435ZM57.3259 21.9476C56.9439 21.9476 56.5775 22.1126 56.3073 22.4063C56.0372 22.7 55.8854 23.0984 55.8854 23.5138C55.8859 23.8229 55.9706 24.1248 56.1288 24.3815C56.287 24.6382 56.5116 24.8382 56.7743 24.9562C57.037 25.0743 57.3259 25.105 57.6046 25.0446C57.8834 24.9842 58.1394 24.8353 58.3404 24.6168C58.5413 24.3983 58.6782 24.1199 58.7338 23.8169C58.7894 23.5138 58.7611 23.1996 58.6526 22.914C58.544 22.6284 58.3601 22.3842 58.124 22.2122C57.8879 22.0402 57.6102 21.9481 57.3259 21.9476ZM57.3259 22.1133C57.6676 22.1133 57.9952 22.2608 58.2368 22.5235C58.4783 22.7861 58.6141 23.1424 58.6141 23.5138C58.6134 23.8851 58.4775 24.2409 58.2361 24.5034C57.9946 24.7659 57.6674 24.9137 57.3259 24.9144C56.9843 24.9137 56.6568 24.766 56.415 24.5036C56.1731 24.2411 56.0367 23.8853 56.0354 23.5138C56.0354 22.7387 56.6131 22.1133 57.3259 22.1133ZM56.8097 22.6532V24.313H56.9867V23.594H57.4194L57.7045 24.3157H57.9012L57.6037 23.5459C57.6728 23.5267 57.7346 23.4847 57.7807 23.4256C57.848 23.3398 57.8854 23.231 57.8864 23.1183C57.8864 22.843 57.6898 22.6532 57.4071 22.6532H56.8097ZM56.9818 22.8349H57.4046C57.5816 22.8349 57.6947 22.9445 57.6947 23.1156C57.6947 23.308 57.5742 23.4256 57.38 23.4256H56.9818V22.8349Z" fill="#222222"/>
</svg>
