<svg width="46" height="51" viewBox="0 0 46 51" fill="none" xmlns="http://www.w3.org/2000/svg">
<path d="M23 48.7255C34.685 48.7255 44.157 38.3221 44.157 25.4881C44.157 12.6541 34.685 2.25073 23 2.25073C11.315 2.25073 1.84302 12.6541 1.84302 25.4881C1.84302 38.3221 11.315 48.7255 23 48.7255Z" stroke="#222222" stroke-width="3"/>
<path d="M5.01685 13.8696L14.5375 40.5926L20.8846 27.8121H25.116L31.4631 40.5926L40.9837 13.8696" stroke="#222222" stroke-width="3" stroke-linecap="round" stroke-linejoin="round"/>
<path d="M14.5371 4.57471L20.8842 19.679H25.1156L31.4627 4.57471" stroke="#222222" stroke-width="3" stroke-linecap="round" stroke-linejoin="round"/>
<path d="M44.157 25.4882C44.1606 22.1908 43.5236 18.9307 42.2886 15.9253C41.0536 12.9199 39.249 10.2385 36.9954 8.06011C33.1343 4.30864 28.155 2.24181 23 2.25076C17.845 2.24181 12.8658 4.30864 9.00467 8.06011C6.75101 10.2385 4.94643 12.9199 3.71144 15.9253C2.47645 18.9307 1.83947 22.1908 1.84303 25.4882" stroke="#222222" stroke-width="3" stroke-linecap="round"/>
</svg>
