<svg width="49" height="45" viewBox="0 0 49 45" fill="none" xmlns="http://www.w3.org/2000/svg">
<path d="M42.0093 28.9952L41.9889 29.0557C39.443 36.9253 32.4237 42.2026 24.5102 42.2026C16.5967 42.2026 9.56521 36.9145 7.02946 29.0471L7.00904 28.9844H1.44958V29.6951L3.76279 29.9824C5.19196 30.1552 5.49208 30.8249 5.88204 31.6674L5.98004 31.8747C9.32429 39.4246 16.6049 44.3001 24.5184 44.3001C32.4319 44.3001 39.7145 39.4246 43.0588 31.8855L43.1568 31.6803C43.5447 30.8379 43.8468 30.1682 45.276 29.9932L47.5913 29.7038V28.9952H42.0093ZM7.02946 16.1572C9.57542 8.28766 16.5967 3.00168 24.5102 3.00168C32.4237 3.00168 39.4532 8.28766 41.991 16.1572L42.0114 16.2177H47.581V15.5092L45.2658 15.2219C43.8366 15.0469 43.5365 14.3794 43.1465 13.5348L43.0506 13.3274C39.7063 5.79913 32.4217 0.923584 24.5102 0.923584C16.5865 0.923584 9.31408 5.79913 5.96983 13.349L5.87183 13.5542C5.48392 14.3967 5.18175 15.0663 3.75258 15.2413L1.43938 15.5286V16.2393H7.00087L7.02946 16.1572ZM35.331 19.5833L31.7724 25.621H33.3078L33.9407 24.5409H38.0914L38.7243 25.621H40.2494L36.6908 19.5833H35.331ZM37.4401 23.3982H34.592L36.0211 20.9701L37.4401 23.3982ZM43.1772 21.0954L47.4055 25.621H49V19.5833H47.7464V24.0873L43.5365 19.5833H41.9134V25.621H43.1772V21.0954ZM0 25.621H1.26379V21.0954L5.50229 25.621H7.09683V19.5833H5.83304V24.0873L1.62313 19.5833H0V25.621ZM9.88779 19.5833H11.1516V25.621H9.88575L9.88779 19.5833ZM19.0467 24.3443C19.0059 24.3551 18.8507 24.3551 18.7935 24.3551H13.767V25.5908H18.8711C18.9099 25.5908 19.2121 25.5908 19.2693 25.58C20.3105 25.4763 20.7862 24.5604 20.7862 23.7589C20.7862 22.9359 20.2901 22.0524 19.3468 21.9595C19.1631 21.9379 19.0079 21.9379 18.9385 21.9379H15.6045C15.4807 21.9397 15.357 21.9296 15.2349 21.9076C14.9715 21.8342 14.8756 21.5879 14.8756 21.3827C14.8756 21.1969 14.9715 20.9507 15.2431 20.8686C15.3585 20.8432 15.4765 20.8331 15.5943 20.8383H20.4065V19.6243H15.5167C15.3125 19.6243 15.1573 19.633 15.0308 19.6546C14.6321 19.7055 14.2657 19.912 14.0033 20.2336C13.7409 20.5552 13.6013 20.9688 13.6118 21.3935C13.6118 22.1345 14.0487 22.9985 15.0103 23.1433C15.1859 23.1627 15.4289 23.1627 15.5371 23.1627H18.7833C18.8425 23.1627 18.9875 23.1627 19.0161 23.1735C19.3856 23.2232 19.5122 23.5127 19.5122 23.7697C19.5163 23.9097 19.4708 24.0461 19.3847 24.1524C19.2986 24.2587 19.178 24.3272 19.0467 24.3443ZM28.5548 24.3443C28.5139 24.3551 28.3588 24.3551 28.2914 24.3551H23.275V25.5908H28.3792C28.418 25.5908 28.7201 25.5908 28.7773 25.58C29.8185 25.4763 30.2943 24.5604 30.2943 23.7589C30.2943 22.9359 29.7981 22.0524 28.8549 21.9595C28.6711 21.9379 28.516 21.9379 28.4465 21.9379H25.1125C24.9887 21.9397 24.865 21.9296 24.743 21.9076C24.4796 21.8342 24.3836 21.5879 24.3836 21.3827C24.3836 21.1969 24.4796 20.9507 24.7511 20.8686C24.8666 20.8432 24.9845 20.8331 25.1023 20.8383H29.9145V19.6243H25.0247C24.8205 19.6243 24.6654 19.633 24.5388 19.6546C24.1401 19.7055 23.7738 19.912 23.5113 20.2336C23.2489 20.5552 23.1093 20.9688 23.1198 21.3935C23.1198 22.1345 23.5568 22.9985 24.5204 23.1433C24.694 23.1627 24.9369 23.1627 25.0451 23.1627H28.2914C28.3506 23.1627 28.4955 23.1627 28.5241 23.1735C28.8937 23.2232 29.0203 23.5127 29.0203 23.7697C29.0199 23.9084 28.9729 24.0424 28.8875 24.1478C28.8022 24.2531 28.6842 24.3228 28.5548 24.3443Z" fill="#222222"/>
</svg>
