<svg width="46" height="50" viewBox="0 0 46 50" fill="none" xmlns="http://www.w3.org/2000/svg">
<path d="M20.8399 26.2763H21.7791L21.7772 23.3396H20.8399V22.6884H24.5582V23.3396H23.6325V26.2743H24.4931C25.2885 26.2743 25.8098 25.7201 25.8098 24.9678H26.4232V26.9337H20.8399V26.2763ZM29.1065 26.9377H31.28L33.1238 23.3396H34.0477V22.6884H31.2685V23.3396H32.0716L30.728 25.9588L29.3672 23.3396H30.3447L30.3408 22.6884H26.3082V23.3396H27.232L29.1065 26.9377ZM9.72325 22.6884H5.68867V23.3396H6.61058L8.48892 26.9377H10.6605L12.5043 23.3396H13.4282V22.6884H10.649V23.3396H11.4502L10.1085 25.9588L8.74767 23.3396H9.72325V22.6884ZM16.8283 22.5994C18.6971 22.5994 19.6995 23.5823 19.6995 24.8161C19.6995 26.066 18.7527 27.0631 16.8379 27.0631C14.9232 27.0631 13.9687 26.066 13.9687 24.8161C13.9687 23.5823 14.9596 22.5994 16.8283 22.5994ZM16.8609 23.2668C16.2227 23.2567 15.8508 23.9707 15.8374 24.7898C15.8259 25.5786 16.1249 26.3754 16.8072 26.3876C17.5087 26.4017 17.8116 25.5988 17.8231 24.8262C17.8384 24.0071 17.5011 23.281 16.8609 23.2689V23.2668ZM37.4421 22.5994C39.3089 22.5994 40.3113 23.5823 40.3113 24.8161C40.3113 26.066 39.3664 27.0631 37.4517 27.0631C35.535 27.0631 34.5805 26.066 34.5805 24.8161C34.5805 23.5823 35.5733 22.5994 37.4421 22.5994ZM36.4512 24.7898C36.4377 25.5786 36.7387 26.3754 37.421 26.3876C38.1225 26.4017 38.4253 25.5988 38.4368 24.8262C38.4522 24.0071 38.1148 23.281 37.4747 23.2689C36.8345 23.2567 36.4646 23.9707 36.4512 24.7898ZM41.9271 11.3057L39.5907 13.7691C41.6633 17.1412 42.7633 21.0759 42.757 25.0952C42.757 36.6094 33.9116 45.9433 23 45.9433C12.0884 45.9433 3.243 36.6094 3.243 25.0952C3.243 13.581 12.0884 4.24708 23 4.24708C26.9675 4.24708 30.659 5.48082 33.7544 7.60446L36.0908 5.13901C32.2478 2.32267 27.6789 0.817033 23 0.824982C10.2983 0.824982 0 11.692 0 25.0952C0 38.4984 10.2983 49.3654 23 49.3654C35.7017 49.3654 46 38.4984 46 25.0952C46 19.9721 44.4954 15.2213 41.9271 11.3057ZM34.569 1.77961V2.4612C35.9643 3.25807 37.2772 4.19854 38.4924 5.25632L35.2149 8.71482C36.4516 9.73863 37.568 10.9146 38.5403 12.2178L41.814 8.76336C42.8183 10.0497 43.7096 11.4371 44.4667 12.8852H45.0953V1.78163L34.569 1.77961Z" fill="#222222"/>
</svg>
