<svg width="61" height="14" viewBox="0 0 61 14" fill="none" xmlns="http://www.w3.org/2000/svg">
<path d="M35.3876 12.0417C35.3893 12.1526 35.4241 12.2097 35.4918 12.2129C35.5462 12.2091 35.5979 12.1891 35.6393 12.1558L54.6509 0.615121C54.9721 0.404724 55.357 0.296375 55.7489 0.306038H59.9274C60.5679 0.306038 61 0.705468 61 1.30461V8.76777C61 9.67124 60.7865 10.1943 59.9325 10.6722L54.8644 13.5253C54.8139 13.5577 54.7552 13.5773 54.6941 13.5823C54.6331 13.5823 54.5721 13.5372 54.5721 13.3731V4.6641C54.5721 4.56187 54.5416 4.4953 54.4679 4.4953C54.4135 4.49902 54.3618 4.51903 54.3205 4.55236L40.4278 12.9951C40.1134 13.1957 39.7408 13.3012 39.3603 13.297H30.1493C29.5037 13.297 29.0767 12.8976 29.0767 12.2937V1.53761C29.0767 1.45915 29.0385 1.38545 28.9648 1.38545C28.9113 1.38967 28.8606 1.40965 28.82 1.44251L19.6522 6.58517C19.5607 6.64223 19.5352 6.68265 19.5352 6.72307C19.5352 6.75636 19.5556 6.79202 19.6166 6.85384L26.1665 12.9761C26.2529 13.0569 26.3139 13.1187 26.3139 13.1877C26.3139 13.2447 26.2148 13.2899 26.1004 13.2899H20.1808C19.7157 13.2899 19.3573 13.2281 19.1057 12.9927L15.1356 9.2837C15.1203 9.26715 15.1016 9.25359 15.0807 9.2438C15.0598 9.23401 15.037 9.22818 15.0136 9.22664C14.9704 9.22861 14.9284 9.24089 14.8916 9.2623L8.25788 12.9951C7.94067 13.1944 7.56471 13.2958 7.18275 13.2851H1.08021C0.427 13.2899 0 12.8857 0 12.2889V4.96605C0 4.06258 0.2135 3.53952 1.07258 3.06401L6.17625 0.194293C6.2157 0.17043 6.26145 0.157261 6.30842 0.15625C6.38975 0.15625 6.43042 0.227578 6.43042 0.394007V10.1991C6.43042 10.3013 6.45583 10.3488 6.53463 10.3488C6.58952 10.3412 6.64174 10.3217 6.68713 10.2918L23.9095 0.593721C24.2431 0.383012 24.641 0.279535 25.043 0.298905H34.315C34.9555 0.298905 35.3876 0.698335 35.3876 1.29748L35.3825 12.0393L35.3876 12.0417Z" fill="#222222"/>
</svg>
