<svg width="63" height="25" viewBox="0 0 63 25" fill="none" xmlns="http://www.w3.org/2000/svg">
<path d="M52.9226 15.6421H53.1747C53.2534 15.5828 53.2849 15.354 53.3133 15.1591C53.3448 14.9642 53.3133 14.676 53.3133 14.4303V14.1337C53.3146 14.0261 53.3051 13.9197 53.2856 13.8256C53.2662 13.7316 53.2377 13.6535 53.203 13.5998C53.0817 13.486 52.9531 13.4398 52.825 13.4642H47.3815C47.1879 13.4896 46.9939 13.4669 46.8019 13.3964C46.7781 13.3857 46.756 13.3568 46.7381 13.3133C46.7202 13.2697 46.7074 13.2133 46.7011 13.1506C46.6724 12.8303 46.6881 12.493 46.7452 12.2015C46.7778 12.0981 46.8191 12.0171 46.8657 11.9655C46.9122 11.9139 46.9628 11.8931 47.013 11.9049H52.6108C52.6595 11.921 52.7089 11.8952 52.7519 11.8313C52.7949 11.7674 52.8293 11.6686 52.8502 11.549C52.893 11.1791 52.9037 10.7878 52.8817 10.4049C52.8791 10.268 52.8612 10.1364 52.8303 10.0275C52.7993 9.91857 52.7569 9.83742 52.7084 9.79476C52.5177 9.74788 52.3258 9.74788 52.1351 9.79476H47.0161C46.9082 9.82036 46.7997 9.77074 46.7011 9.65069C46.6824 9.31642 46.6824 8.97651 46.7011 8.64224C46.7278 8.5442 46.7638 8.4673 46.8054 8.41959C46.847 8.37188 46.8926 8.35512 46.9374 8.37105H52.721C52.8085 8.38965 52.8965 8.37539 52.9825 8.32869C53.0252 8.28876 53.0623 8.2145 53.0888 8.11597C53.1152 8.01745 53.1298 7.89941 53.1306 7.77785C53.1377 7.44763 53.1377 7.11656 53.1306 6.78634C53.1247 6.63683 53.0993 6.49774 53.059 6.39379C53.0186 6.28984 52.9658 6.22775 52.91 6.21855H44.9401C44.8234 6.20729 44.7078 6.28358 44.6062 6.43889C44.5086 6.67634 44.447 7.00214 44.433 7.35412C44.4015 9.30324 44.3794 11.2524 44.4015 13.2015C44.3914 13.7882 44.4041 14.3761 44.4393 14.9557C44.4667 15.1663 44.5172 15.3495 44.5842 15.4811C44.7022 15.64 44.8336 15.713 44.9654 15.693H52.9226V15.6421ZM52.8092 15.9811H52.7179C52.1131 17.8963 51.4956 19.7946 50.8908 21.7013C50.6682 22.368 50.4508 23.0403 50.2387 23.7183C50.2072 23.8284 50.1694 23.9471 50.1127 23.9301C50.1694 23.9301 50.2072 23.8284 50.2387 23.7183C50.4508 23.0403 50.6682 22.368 50.8908 21.7013C51.4988 19.7861 52.1162 17.8963 52.7179 15.9726H49.048L46.6003 23.5996C46.5464 23.753 46.4999 23.9238 46.4617 24.1081H50.1946C50.3731 23.5657 50.5495 23.0205 50.7238 22.4725L52.7557 16.1336L52.8092 15.9811ZM52.532 5.84568H52.9416C53.0252 5.85985 53.1044 5.95235 53.1654 6.10713C53.2264 6.26191 53.2653 6.46921 53.2755 6.69312C53.2834 7.04024 53.2834 7.38835 53.2755 7.73547C53.2729 7.92352 53.2493 8.10511 53.2077 8.25636C53.1661 8.40762 53.1085 8.52146 53.0424 8.58292C52.9665 8.63886 52.8874 8.6561 52.8092 8.63376H51.3948L51.1491 9.40494H52.3147C52.4566 9.37004 52.5997 9.38714 52.7399 9.45578C52.8109 9.51886 52.8732 9.63703 52.9192 9.7954C52.9652 9.95376 52.9927 10.1452 52.9983 10.3456C53.0177 10.7709 53.007 11.2022 52.9667 11.6168C52.9379 11.8033 52.8872 11.9596 52.8224 12.062C52.7577 12.1644 52.6823 12.2074 52.6076 12.1846H50.2513L49.952 13.1167H52.8817C53.0075 13.1066 53.1328 13.1643 53.2503 13.2862C53.3255 13.3836 53.3833 13.5573 53.4109 13.7693C53.6629 13.015 53.8992 12.2269 54.1512 11.4812C55.1719 8.28914 56.1946 5.09993 57.2195 1.91354C57.3581 1.4644 57.5124 1.02372 57.6447 0.557628C57.5124 1.02372 57.3612 1.45592 57.2195 1.91354C56.1946 5.09993 55.1719 8.28914 54.1512 11.4812C53.8992 12.2269 53.6629 13.015 53.4109 13.7693L53.4298 13.9811C53.8897 12.5687 54.3455 11.1563 54.797 9.74392L56.9832 2.96437C57.251 2.11693 57.5345 1.26948 57.7928 0.422039H54.0441L52.2958 5.8711L52.532 5.84568ZM8.84879 7.82022C8.23439 7.01295 7.56821 6.52968 6.88625 6.39651C5.9097 6.09991 4.9174 6.20161 3.93455 6.15076C2.85089 6.15076 1.77039 6.10839 0.689885 6.15076C0.588441 6.12805 0.486356 6.1631 0.390284 6.25363C0.294213 6.34416 0.206311 6.48813 0.132307 6.67617C0.0409522 6.95583 0.0756039 7.35412 0.0504026 7.6931C0.0283515 8.82867 0.00315016 9.9812 0 11.1168V13.5405C0.0252013 14.1083 -0.0378021 14.7862 0.116556 15.2353C0.203562 15.4282 0.304427 15.5706 0.412837 15.6537C0.521247 15.7368 0.634868 15.7588 0.746587 15.7184H4.12356C4.29051 15.7184 4.45747 15.6591 4.62758 15.7184C5.75976 15.827 6.89315 15.6312 8.01085 15.1337C8.30395 14.9936 8.58819 14.7425 8.85509 14.3879C9.04753 14.1393 9.2166 13.7769 9.34969 13.3279C9.48279 12.8789 9.57646 12.3548 9.62373 11.7947C9.68882 11.103 9.66666 10.3727 9.56073 9.71849C9.40659 8.89406 9.15661 8.22753 8.84879 7.82022ZM7.33987 11.4388C7.27494 11.8464 7.17271 12.2031 7.04272 12.4758C6.91273 12.7484 6.7592 12.9281 6.59643 12.9981C6.33968 13.1858 6.07715 13.3106 5.81204 13.371C5.65453 13.371 5.49703 13.371 5.33322 13.4557H2.9832C2.78813 13.4827 2.59256 13.4486 2.40042 13.354C2.36818 13.3048 2.34202 13.2312 2.32522 13.1423C2.30842 13.0534 2.3017 12.9531 2.30592 12.854V9.02359C2.30592 8.69309 2.44137 8.56597 2.54533 8.55749H4.12041C4.96592 8.41457 5.81468 8.6001 6.64053 9.10834C6.87213 9.27537 7.07893 9.63049 7.23276 10.1253C7.28298 10.313 7.31839 10.5263 7.33681 10.7522C7.35523 10.9781 7.35627 11.2118 7.33987 11.4388ZM42.7256 6.50668C42.645 6.45811 42.5624 6.43817 42.4799 6.44736H37.8334C37.2034 6.44736 36.5985 6.44736 35.9843 6.57448C35.3819 6.6704 34.7878 6.99861 34.2202 7.54904L33.9808 7.84565L33.7476 8.21852L33.5586 8.62529L33.4326 8.98969C33.3188 9.37916 33.2409 9.83566 33.2053 10.3218C33.1697 10.8079 33.1774 11.3097 33.2279 11.7863L33.2783 12.1591C33.4561 13.0954 33.757 13.8203 34.1225 14.193C34.6855 14.8005 35.2811 15.161 35.8866 15.2608C36.508 15.3945 37.1314 15.4454 37.7546 15.4133H42.1113C42.2608 15.4566 42.4117 15.3737 42.5429 15.176C42.5886 15.0719 42.6253 14.942 42.6503 14.7956C42.6754 14.6492 42.6881 14.4898 42.6878 14.3286C42.7193 13.4303 42.6878 12.549 42.6878 11.6422V10.71L42.6594 10.4558C42.6158 10.3154 42.5606 10.2041 42.4983 10.1306C42.436 10.0571 42.3683 10.0234 42.3003 10.032H37.8397C37.7263 10.032 37.5782 10.1592 37.5814 10.5066V11.6083C37.5937 11.6958 37.6165 11.7699 37.6461 11.819C37.6757 11.868 37.7106 11.8893 37.7452 11.8795H39.9661C40.1133 11.85 40.2613 11.8671 40.4071 11.9303C40.5016 11.9896 40.5457 12.2354 40.5866 12.4388C40.6276 12.6422 40.5866 12.6676 40.5866 12.7862C40.5955 13.0552 40.5699 13.3243 40.5142 13.5489H40.4921C40.325 13.6049 40.1564 13.6248 39.9881 13.6083H37.3861L36.8978 13.5235C36.6612 13.4351 36.4267 13.3107 36.1953 13.1506C35.9861 13.0025 35.7879 12.7588 35.6094 12.4303C35.5094 12.2293 35.4315 11.9595 35.3838 11.6492C35.3361 11.339 35.3204 10.9998 35.3385 10.6676L35.3574 10.4388L35.3826 10.227C35.4807 9.6424 35.6574 9.17925 35.8771 8.93037C36.3656 8.46572 36.8806 8.23623 37.3987 8.25241H42.4925C42.587 8.25241 42.7382 8.25241 42.7508 7.91344C42.7758 7.44591 42.7715 6.97044 42.7382 6.50668H42.7256ZM31.6024 8.74393C31.4049 8.22571 31.173 7.81177 30.9188 7.52362C30.3692 6.92355 29.7896 6.54655 29.1988 6.40499C28.4177 6.21068 27.6332 6.12864 26.8488 6.15923H23.2419C22.9621 6.04611 22.6767 6.2184 22.4417 6.64227C22.3157 7.04905 22.3661 7.63378 22.3409 8.1253C22.3157 8.61682 22.3409 9.07444 22.3094 9.54053V14.2269C22.3136 14.4416 22.321 14.6676 22.3315 14.9048C22.3806 15.1724 22.4578 15.3952 22.5536 15.5458C22.6493 15.6965 22.7594 15.7682 22.8701 15.7523C23.0623 15.8031 23.2576 15.7523 23.4529 15.7523H26.6031C26.8047 15.676 27.0063 15.7523 27.2079 15.7523C28.0029 15.7831 28.7979 15.6982 29.5894 15.4981C29.894 15.3879 30.1951 15.218 30.4904 14.9896C30.6352 14.8953 30.7773 14.7736 30.9156 14.6252C31.0981 14.4454 31.2692 14.191 31.4228 13.871C31.6792 13.3123 31.857 12.535 31.9268 11.6676C31.9494 11.2177 31.9494 10.7616 31.9268 10.3117C31.873 9.72019 31.7609 9.17863 31.6024 8.74393ZM29.4823 12.2015C29.2741 12.6872 29.0221 13.0174 28.7515 13.1591C28.0027 13.5051 27.2424 13.6358 26.4834 13.5489H25.0816C24.9408 13.5784 24.7991 13.5441 24.6626 13.4472C24.5586 13.3286 24.5492 12.9981 24.5492 12.7439V9.18461C24.5452 9.08346 24.5509 8.98123 24.5658 8.88774C24.5806 8.79424 24.6042 8.71262 24.6342 8.65071C24.7925 8.51015 24.9595 8.45542 25.1257 8.4897H26.9149C27.3293 8.46162 27.7439 8.50692 28.1561 8.62529C28.499 8.70537 28.8356 8.92243 29.1547 9.26934C29.3508 9.46315 29.5119 9.85119 29.6052 10.3541C29.6507 10.6622 29.6633 10.9985 29.6416 11.3249C29.6199 11.6513 29.5648 11.9549 29.4823 12.2015ZM19.6129 7.12532C19.4554 6.98973 19.2979 6.86826 19.1404 6.76092L19.0301 6.70159C18.7624 6.54295 18.4923 6.41572 18.2205 6.32024C17.7548 6.17464 17.2872 6.0757 16.8187 6.02364C15.7432 5.91081 14.6662 6.00994 13.5961 6.32024C12.9403 6.49296 12.3007 6.97187 11.706 7.73547C11.4119 8.12714 11.1643 8.73171 10.9909 9.48121C10.8897 9.99663 10.8424 10.5763 10.8541 11.1583C10.8657 11.7404 10.9359 12.303 11.0571 12.7862C11.2936 13.6054 11.6114 14.2281 11.9737 14.5828C12.1376 14.7767 12.3073 14.9326 12.4809 15.0489C13.4817 15.7119 14.509 16.042 15.5397 16.0319C16.7336 16.1312 17.9282 15.9098 19.1057 15.3709C19.5835 15.1322 20.0433 14.6826 20.4666 14.0405C20.7573 13.5971 20.9804 12.8918 21.0966 12.049C21.1625 11.5693 21.1812 11.0519 21.1508 10.547C21.1205 10.0422 21.0421 9.56699 20.9233 9.16766C20.5631 8.18289 20.1101 7.47143 19.6129 7.12532ZM18.8348 11.2863C18.7872 11.6124 18.7134 11.9062 18.6186 12.1465C18.5239 12.3868 18.4105 12.5676 18.2867 12.6761C17.8594 13.124 17.4087 13.3899 16.951 13.4642C16.3535 13.5955 15.7529 13.5955 15.1554 13.4642C14.6843 13.3851 14.2203 13.1166 13.7788 12.6676C13.6589 12.562 13.548 12.3928 13.4528 12.1702C13.3576 11.9475 13.2799 11.6757 13.2244 11.371C13.1939 11.1176 13.1901 10.8465 13.2135 10.5877C13.2368 10.3288 13.2864 10.0925 13.3567 9.90493C13.5737 9.36607 13.8401 8.99176 14.1285 8.8202C14.8728 8.3603 15.6367 8.17217 16.3997 8.26089H16.4218C16.8109 8.26607 17.1989 8.3682 17.581 8.56597C17.9516 8.72176 18.3046 9.09814 18.6143 9.66765C18.7068 9.84557 18.7774 10.0943 18.8167 10.3814C18.856 10.6685 18.8623 10.9809 18.8348 11.2778M59.2576 0.396613C57.0462 7.2948 54.8306 14.1958 52.6108 21.0997L51.6657 24.0911H55.3357C55.4365 24.1335 55.4806 23.8538 55.5404 23.6928L62.7543 1.20169C62.8428 0.933476 62.9248 0.65043 63 0.354248L59.2576 0.396613Z" fill="#222222"/>
</svg>
