<svg width="63" height="43" viewBox="0 0 63 43" fill="none" xmlns="http://www.w3.org/2000/svg">
<path d="M7.31588 10.0859H12.8389L11.7941 6.92198H30.534V10.0771H31.1588V5.83067H5.60437L7.31588 10.0859ZM7.84613 14.2575H31.1535V11.0936H7.54425L7.84613 14.2575ZM13.7655 19.5555H8.358L7.938 15.2387H31.1588V19.5555H30.5314V16.2508H13.5686L13.7655 19.5555ZM22.4254 22.6006H31.1561V24.8668H22.4254V22.6006ZM31.8465 5.83067H40.6586V12.1849H31.8465V5.83067ZM9.61538 30.3365C9.75712 30.715 10.0222 31.155 10.9016 31.573C11.2849 31.7359 11.7023 31.8987 12.2535 32.1099L12.4635 32.1935H21.8138V29.9493H9.492C9.527 30.0842 9.56725 30.2133 9.61275 30.3365H9.61538ZM21.8138 26.9086H9.07987L8.45512 20.572H21.8138V26.9086ZM22.4227 35.8018C25.6856 36.9151 28.8724 37.9492 31.1614 38.5741V27.9339H22.4227V35.8018ZM54.6473 19.5555H41.2598V13.197H55.2589L54.6473 19.5555ZM41.2598 7.85046V10.1079L55.6579 10.0991L56.5609 7.85046H41.2598ZM0 0.809814L4.242 11.2344C4.70662 15.6612 5.922 27.0714 6.06112 28.1759L6.07688 28.3167C6.46537 31.4234 6.70425 33.3288 10.2506 34.7985C15.0413 36.7787 25.9928 40.6203 31.4974 42.1208C37.002 40.6203 47.9588 36.7743 52.752 34.7985C56.2958 33.3288 56.532 31.4234 56.9231 28.3167L56.9389 28.1759C57.078 27.0626 58.2934 15.6612 58.758 11.2344L63 0.809814H0ZM56.3167 11.0848L55.5896 18.6403C55.1696 23.0143 54.8888 25.9317 54.7496 27.2254L54.7313 27.3795L54.6997 27.6875C54.3664 30.7326 54.2194 32.0967 52.311 32.99C48.3315 34.6313 36.8025 38.7545 31.5026 40.145C26.2054 38.7545 14.6764 34.6269 10.6995 32.99C8.79113 32.0967 8.64412 30.7326 8.31075 27.6831L8.26087 27.2254C8.12175 25.9581 7.85137 23.1331 7.44712 18.9087L6.69375 11.0804L3.3495 2.76359H59.6558L56.3167 11.0848ZM32.4712 24.8668H31.8465V20.572H54.5527L54.1327 24.8756H48.8722C48.9536 24.1232 49.1085 21.9758 49.1321 21.6633H32.4712V24.8668ZM31.8465 29.012H53.6917L54.0435 25.8613H31.8465V29.012ZM31.8465 15.2431H40.6613V17.5138H31.8465V15.2431ZM31.8465 29.9493V38.5697C37.3984 36.9855 48.1819 33.2672 52.1063 31.5642C52.9935 31.1814 53.256 30.715 53.3977 30.3365C53.4447 30.2143 53.4842 30.0846 53.5159 29.9493H31.8465ZM37.8735 35.5906L36.7841 35.9515C36.2329 36.1363 35.0385 36.5015 33.9885 36.8271L32.4739 37.2936V31.0362H47.9089C47.2001 32.4883 45.7774 32.9592 37.8735 35.5906Z" fill="#222222"/>
</svg>
