<svg width="57" height="48" viewBox="0 0 57 48" fill="none" xmlns="http://www.w3.org/2000/svg">
<path d="M10.4602 42.9243C7.87283 42.6971 5.2855 42.473 2.69816 42.2518C2.46942 42.2586 2.24403 42.193 2.05133 42.0635C1.97182 41.9729 1.91589 41.8623 1.88894 41.7424C1.86199 41.6226 1.86492 41.4974 1.89745 41.3791C1.95159 41.0802 2.27929 40.9696 2.53859 40.9846C5.71577 40.9636 8.89295 40.9846 12.0701 40.9666V39.4005C8.93569 39.3856 5.81835 39.4005 2.69246 39.4005C2.08724 39.3462 1.47858 39.4489 0.92008 39.6994C0.637075 39.8453 0.400692 40.0745 0.239784 40.359C0.0788765 40.6435 0.00040357 40.9709 0.013943 41.3014C-0.0245817 41.7834 0.016875 42.2688 0.136471 42.736C0.219304 42.952 0.344953 43.1471 0.505098 43.3084C0.665243 43.4697 0.856228 43.5934 1.0654 43.6715C1.74956 43.8732 2.45503 43.9846 3.16548 44.0032C5.44507 44.2035 7.70471 44.3977 9.9729 44.601C10.1033 44.5915 10.2341 44.6135 10.3551 44.6653C10.4761 44.7171 10.5842 44.7973 10.671 44.8998C10.7373 45.0426 10.7649 45.2017 10.7509 45.3599C10.7368 45.518 10.6816 45.669 10.5912 45.7965C10.4137 45.9397 10.1896 46.0041 9.9672 45.9758H0.36443C0.338729 46.4935 0.338729 47.0122 0.36443 47.5299C3.78382 47.5538 7.18325 47.5299 10.5941 47.5299C11.1337 47.563 11.6652 47.3804 12.0815 47.0189C12.2829 46.7856 12.4385 46.5129 12.5392 46.2165C12.6399 45.92 12.6839 45.6057 12.6685 45.2914C12.7011 44.9825 12.6737 44.67 12.588 44.3726C12.5023 44.0752 12.36 43.7991 12.1699 43.5609C11.6834 43.155 11.0817 42.931 10.4602 42.9243ZM27.0841 41.0055C27.2129 41.0148 27.3423 41.0058 27.4688 40.9786V39.4125L27.3263 39.3946H15.3328V44.6607C15.2853 45.3364 15.4537 46.0094 15.8115 46.5735C16.0456 46.8712 16.338 47.1125 16.6689 47.2811C16.9998 47.4498 17.3614 47.5418 17.7292 47.5509H23.8955C25.0894 47.5509 26.2862 47.5748 27.4745 47.5299V45.9877H18.7379C18.5255 46.0182 18.3092 45.9911 18.1097 45.909C17.9102 45.8268 17.734 45.6924 17.5981 45.5185C17.4338 45.0935 17.3712 44.6328 17.4158 44.1766H26.4714C26.6722 44.1835 26.8732 44.1745 27.0727 44.1497V42.6194C26.2178 42.5656 25.363 42.6194 24.5081 42.5955H17.4101V40.9965C20.6414 41.0085 23.8642 40.9995 27.0841 41.0055ZM44.352 19.5821L11.8507 13.243V17.4272C18.3096 18.5928 24.7684 19.7495 31.2272 20.8972C32.8343 21.1751 34.4329 21.4949 36.04 21.743C36.0543 21.8954 35.9175 21.991 35.832 22.0927C35.2187 22.6156 34.4329 22.8627 33.6465 22.7801C30.076 22.7442 26.5227 22.7442 22.9381 22.6844C19.2425 22.6074 15.5488 22.4509 11.8593 22.2152C11.9675 24.391 12.0473 26.5728 12.2012 28.7456C12.2132 29.1498 12.2903 29.549 12.4292 29.9262C12.6115 30.1918 12.8783 30.3804 13.1814 30.4582C13.7429 30.5911 14.3157 30.6642 14.8911 30.6764C22.0432 31.2276 29.2195 31.3494 36.3848 31.041C38.0546 31.0116 39.7206 30.8638 41.3714 30.5987C41.9422 30.5151 42.4903 30.308 42.9808 29.9906C43.4714 29.6731 43.8936 29.2522 44.2209 28.7546C44.7191 27.7101 44.9665 26.5539 44.9418 25.3863C45.0074 23.5213 45.0415 21.6563 45.1014 19.7913L45.0729 19.7256C44.8358 19.6616 44.595 19.6136 44.352 19.5821ZM56.9837 39.3916H45.204V40.9876H48.971C49.3158 40.9876 49.6606 41.0085 50.0054 40.9636C50.125 41.1489 50.031 41.394 50.0538 41.6062C50.0538 43.6027 50.031 45.5992 50.0737 47.5837H52.1311V40.9756H56.9923C57.0037 40.4675 57.0037 39.9295 56.9837 39.3916ZM31.3783 40.2224C30.8672 40.8346 30.608 41.6341 30.6573 42.4461C30.6716 44.1676 30.6573 45.8921 30.6716 47.6136H32.7375C32.7631 46.8096 32.7004 45.9967 32.7688 45.1957C35.3789 45.2256 37.9919 45.1718 40.5992 45.2226V47.6136H42.6651V39.3975H33.5695C32.7643 39.3609 31.9775 39.6571 31.3783 40.2224ZM40.585 40.9965V43.5788H32.7289V42.8286C32.7024 42.4119 32.7687 41.9944 32.9227 41.6092C33.0375 41.4119 33.202 41.2517 33.3981 41.1462C33.5942 41.0408 33.8142 40.9941 34.034 41.0115C36.2224 40.9995 38.4051 41.0145 40.585 40.9965ZM20.6898 8.9571C20.8902 8.70034 21.1394 8.49015 21.4215 8.3399C21.7036 8.18965 22.0124 8.10263 22.3283 8.08438C24.8244 7.95586 27.3263 7.98276 29.8224 7.9738C34.6466 7.9738 39.4651 8.19795 44.2807 8.46096C44.5507 8.48719 44.8221 8.49319 45.0928 8.4789C44.9532 6.5123 44.9105 4.53972 44.7594 2.57611C44.7525 2.16562 44.6723 1.76012 44.5229 1.38061C44.294 1.07111 43.9584 0.868266 43.5883 0.815733C42.9362 0.70918 42.2788 0.64232 41.6193 0.615487C35.3761 0.197062 29.1129 -0.0330717 22.8611 0.197062C20.8465 0.271781 18.8206 0.349488 16.8259 0.543757C15.5138 0.568678 14.2487 1.06087 13.2384 1.93951C12.7169 2.5085 12.3688 3.22744 12.2382 4.00473C12.0576 5.09011 11.9727 6.19064 11.9846 7.29236C11.9561 8.67615 11.902 10.057 11.8849 11.4378C19.4531 12.7917 27.0128 14.1784 34.5754 15.5443C38.0916 16.1749 41.6051 16.8354 45.1185 17.4452V13.7122C38.8496 12.4868 32.6007 11.2853 26.3461 10.057C24.4625 9.68635 22.579 9.30678 20.6898 8.9571Z" fill="#222222"/>
</svg>
