<svg width="68" height="27" viewBox="0 0 68 27" fill="none" xmlns="http://www.w3.org/2000/svg">
<path d="M68 14.4163V14.4027C67.983 14.294 67.8196 14.2373 67.5099 14.2328L62.9909 14.0833C56.0807 13.9405 43.2207 13.655 42.6371 13.655H42.4954C41.8199 13.5749 41.1442 13.8009 40.5037 14.3212L40.243 14.5047C39.5152 15.1158 38.7586 15.5085 37.9906 15.6739C37.1888 15.7419 34.1289 15.7351 34.0014 15.7351C33.8739 15.7351 30.8112 15.7351 30.0094 15.6807C29.241 15.5224 28.484 15.1295 27.757 14.5115L27.502 14.328C26.8588 13.8052 26.1801 13.5791 25.5018 13.6618H25.3771C24.7907 13.6618 11.9307 13.7977 5.02332 13.9541L0.487346 14.09C0.175693 14.09 -0.00279999 14.1444 3.32247e-05 14.2668L0.257856 14.4231C1.2117 14.8899 2.175 15.1709 3.14773 15.266C4.99782 15.3544 18.5463 16.1701 18.8721 16.1837C19.603 16.1362 20.3312 16.4488 21.0111 17.0946H25.2525C25.2525 17.0946 23.5412 17.3325 23.5157 17.5909H23.408C22.9831 17.5909 21.6911 17.5909 20.9601 17.5093C20.9601 17.5093 20.9063 17.9987 21.6515 17.9987C21.9121 18.4202 22.1869 18.8212 22.4334 19.1543H26.0798C26.0798 19.1543 24.6462 19.3583 24.6178 19.6166C24.4478 19.6166 23.8245 19.5758 23.2296 19.535L22.3938 19.4738C22.3938 19.4738 22.3513 19.9089 23.0369 19.9157L23.1531 20.0924C24.5215 21.5675 25.9721 22.56 27.4595 23.0358C28.0262 23.2986 28.5957 23.4799 29.168 23.5796C29.168 23.5796 29.8621 23.7292 29.7403 23.7156C28.1195 23.5568 26.5077 23.0541 24.9238 22.2133C23.643 21.4673 22.4211 20.2276 21.3058 18.5425C20.6844 17.5561 19.9598 17.0095 19.2149 16.9655C18.7332 16.8907 3.2129 15.4224 3.1789 15.4224C2.18222 15.3416 1.19137 15.0228 0.221024 14.4707L0.00286644 14.2736C0.00286644 14.3755 0.110529 14.6475 0.201191 14.8446C0.682838 15.8642 2.49609 17.9783 3.55572 18.6037C5.39731 19.6709 16.716 23.1242 18.7276 23.668L19.8382 23.9671C22.8782 24.7556 26.7002 25.7617 28.6467 26.2375C29.0166 26.3989 29.3972 26.3476 29.7573 26.088C31.1143 24.8761 32.5537 24.2836 34.0014 24.341C35.4531 24.3122 36.8952 24.9061 38.2598 26.0948C38.6154 26.349 38.9909 26.4002 39.3562 26.2443C41.3055 25.7753 45.136 24.7488 48.1505 23.9535L49.2753 23.6544C51.2869 23.1174 62.6056 19.7933 64.4443 18.7261C65.5068 18.1143 67.32 15.9934 67.7988 14.9737C67.8782 14.8202 67.9454 14.6337 67.9972 14.4231L68 14.4163ZM33.2506 21.18C30.9982 21.18 28.7713 21.1053 28.1225 20.7178C26.5784 19.8001 25.8588 18.1075 25.7369 17.5909C25.6151 17.081 25.6463 17.0878 25.8361 17.0878H42.1554C42.3481 17.0878 42.3594 17.1354 42.2518 17.5977C42.1441 18.0599 41.4188 19.8001 39.869 20.7178C39.2202 21.1053 36.9933 21.1664 34.7409 21.18H33.2506ZM67.7818 14.5795C66.8113 15.1295 65.8206 15.4505 64.824 15.538C64.79 15.538 49.2526 16.8771 48.7851 16.9655C48.0403 17.0095 47.3156 17.5561 46.6942 18.5425C45.5798 20.227 44.3589 21.4666 43.0791 22.2133C41.4944 23.0568 39.8816 23.5618 38.2598 23.7224C38.1379 23.7224 38.8321 23.5796 38.8321 23.5796C39.4047 23.4814 39.9742 23.2998 40.5377 23.0358C42.0247 22.5572 43.4752 21.5659 44.8441 20.0924L44.9801 19.9157C45.6629 19.9157 45.6261 19.4738 45.6261 19.4738L44.7903 19.5418C44.1727 19.5758 43.538 19.6098 43.3794 19.6098C43.351 19.3651 41.9344 19.1543 41.9344 19.1543H45.5751C45.8351 18.7932 46.0902 18.4123 46.3401 18.0123C47.088 18.0123 47.037 17.5229 47.037 17.5229C46.1854 17.5763 45.3334 17.5989 44.4815 17.5909C44.456 17.3393 42.8666 17.1014 42.8666 17.1014H46.9662C47.6506 16.4499 48.3835 16.1422 49.1195 16.1973L64.8523 15.4224C65.8235 15.3255 66.7899 15.0413 67.7422 14.5727L67.9348 14.4571L67.7818 14.5795ZM33.8909 18.1958H34.1459L33.6501 19.0456V19.7185H33.2761V19.0592L32.7407 18.1958H33.1798L33.5425 18.7397L33.8909 18.1958ZM36.183 19.4398H37.0386V19.7117H35.809V18.1891H36.183V19.4398ZM37.7129 19.4398H38.5997V19.7117H37.3475V18.1891H38.5884V18.4678H37.7129V18.8144H38.5714V19.0931H37.7129V19.4398ZM30.5676 18.1958H30.9416V19.7185H30.5591V19.0999H29.7714V19.7117H29.3975V18.1958H29.7714V18.8076H30.5591L30.5676 18.1958ZM32.2618 19.0524L32.7435 19.7185H32.3185C32.3185 19.7185 31.9332 19.0592 31.8425 18.8892C32.225 18.9232 32.2873 18.8212 32.2873 18.6717C32.2873 18.5221 31.987 18.427 31.647 18.4746V19.7185H31.2504V18.2027H32.1145C32.5395 18.2027 32.6698 18.4134 32.6698 18.6309C32.6698 18.8212 32.514 18.998 32.2618 19.0524ZM39.9512 18.6717C39.9512 18.5153 39.6509 18.427 39.3109 18.4746V19.7321H38.9142V18.2162H39.7699C40.1948 18.2162 40.3252 18.4474 40.3252 18.6445C40.3252 18.8416 40.1693 19.0116 39.9172 19.0524L40.3988 19.7185H39.9739C39.9739 19.7185 39.5885 19.0592 39.4979 18.8892C39.8775 18.9232 39.9512 18.8212 39.9512 18.6717ZM35.5399 19.2631C35.5399 19.6506 35.1914 19.7797 34.8287 19.7797C34.6317 19.7726 34.435 19.7408 34.2394 19.6845L34.2791 19.3583C34.4569 19.431 34.6371 19.4629 34.8174 19.4534C35.1206 19.4534 35.1404 19.3651 35.1404 19.2699C35.1404 19.1747 35.0554 19.1135 34.9194 19.1135L34.6417 19.0388C34.3698 18.9572 34.2593 18.93 34.2593 18.5425C34.2593 18.1551 34.6106 18.0871 34.8344 18.0871C35.0316 18.1032 35.2283 18.1441 35.4237 18.2094L35.3954 18.5017C35.2418 18.4417 35.0864 18.4122 34.9307 18.4134C34.6899 18.4134 34.6389 18.4406 34.6389 18.5493C34.6389 18.6581 34.7154 18.7057 34.8372 18.7057L35.1574 18.7601C35.4086 18.8371 35.5361 19.0048 35.5399 19.2631ZM27.9809 18.93C27.9809 19.2835 28.3407 19.433 28.5787 19.433C28.8167 19.433 29.0433 19.3651 29.0971 19.3651L29.0575 19.6845C28.9895 19.6981 28.7572 19.7525 28.5022 19.7525C28.0262 19.7525 27.6012 19.4806 27.6012 18.93C27.6012 18.3794 28.0262 18.1007 28.5022 18.1007C28.7798 18.1007 28.998 18.1687 29.0575 18.1687L29.0971 18.4882C28.9248 18.4465 28.7518 18.4238 28.5787 18.4202C28.3293 18.4202 27.9809 18.5765 27.9809 18.93ZM30.8056 3.97508L29.2473 0.596632H30.2843L30.8764 1.79982L31.5224 3.13217L31.6414 3.38368L31.7547 3.13897L32.9531 0.617026H33.3555L31.9105 3.94789L31.8567 4.08385V7.01365H30.8651V4.10424L30.8056 3.97508ZM46.0398 7.01365H41.8664V0.589838H42.7901V6.21832H46.0398V7.01365ZM52.2332 6.97286H47.9918V0.603432H52.1793V1.39196H48.8843V3.37689H52.1255V4.19261H48.8843V6.18434H52.2332V6.97286ZM17.0616 6.98646H16.1182V0.576237H17.0616V3.41088H19.6512V0.576237H20.589V6.98646H19.654V4.17902H17.0588L17.0616 6.98646ZM24.2693 6.96607H23.3174V0.542248H25.8191C26.2951 0.474271 26.7739 0.671404 27.2102 1.12005C27.3043 1.21918 27.3854 1.37782 27.4447 1.57898C27.5041 1.78014 27.5396 2.01626 27.5474 2.26206C27.5445 2.99622 27.3207 3.71677 26.5246 3.9207L26.2979 3.98868L26.4708 4.31497C26.7257 4.8112 27.3547 6.32029 27.6494 6.98646L27.6777 7.00685H26.5869C26.4254 6.5786 25.5301 4.62766 25.142 3.67599C25.5159 3.65317 25.8879 3.5416 26.2526 3.3429C26.3325 3.28424 26.4026 3.16657 26.453 3.00667C26.5033 2.84677 26.5314 2.65279 26.5331 2.4524C26.5301 2.32809 26.5152 2.2071 26.4897 2.0987C26.4641 1.9903 26.4286 1.89736 26.3858 1.82701C26.1591 1.37157 25.635 1.37157 25.023 1.37157H24.2693V6.96607ZM38.1663 5.32102C38.1663 4.93356 38.0274 4.75002 37.8886 4.65485C37.7 4.53458 37.5077 4.45048 37.3135 4.40334C36.9878 4.30812 36.6629 4.19934 36.3388 4.07705C36.0025 4.01012 35.6751 3.78369 35.3755 3.41088C35.2911 3.29104 35.222 3.11816 35.1756 2.9109C35.1291 2.70364 35.1072 2.46989 35.1121 2.23488C35.1092 1.5619 35.35 1.13365 35.741 0.854945C36.1566 0.610228 36.5787 0.496932 37.0075 0.515059C37.6704 0.533186 38.3315 0.655544 38.9907 0.882133L38.9256 1.65707C38.4209 1.43319 37.9088 1.31943 37.3956 1.31719C37.1154 1.28638 36.8347 1.33889 36.5598 1.47353C36.387 1.58909 36.2822 1.84061 36.2822 2.13971C36.2876 2.30164 36.3149 2.4549 36.3599 2.57632C36.4049 2.69775 36.4651 2.78072 36.5315 2.81268C36.701 2.92593 36.8746 3.00103 37.05 3.037C37.3446 3.10498 37.7554 3.24094 38.1464 3.37689C38.4745 3.4406 38.7937 3.66501 39.0842 4.03627C39.1699 4.15004 39.2411 4.31777 39.29 4.52141C39.339 4.72505 39.3638 4.95686 39.3619 5.19187C39.3647 5.84445 39.1182 6.34748 38.6706 6.69416C38.1256 7.04205 37.5628 7.20226 36.999 7.17L37.0046 7.12921C36.3655 7.11263 35.7275 6.99226 35.0951 6.76893L35.1772 5.85124C35.7609 6.15941 36.3511 6.31349 36.948 6.31349C37.2861 6.36479 37.6252 6.25387 37.9453 5.9872C38.006 5.94328 38.0597 5.85598 38.0991 5.73695C38.1386 5.61792 38.162 5.47282 38.1663 5.32102ZM9.02099 3.81874C9.02099 2.7447 9.31281 1.97656 9.80862 1.41235C10.4149 0.79058 11.0705 0.49364 11.7295 0.542248C12.2716 0.551311 12.8109 0.641953 13.3473 0.814161L13.4238 1.69106C12.9339 1.54785 12.4412 1.46617 11.9477 1.44634C11.5222 1.43208 11.0993 1.60963 10.7011 1.96976C10.3243 2.32324 10.0126 2.90105 10.0126 3.79834C10.0126 4.68884 10.3243 5.27344 10.7011 5.62692C11.0977 5.9804 11.5227 6.15714 11.9477 6.14355C12.4402 6.12574 12.9319 6.04633 13.421 5.90563L13.3246 6.80292C12.7897 6.98581 12.25 7.07668 11.7097 7.07483C11.0579 7.12296 10.4095 6.83313 9.80862 6.22512C9.29864 5.66091 9.02099 4.86558 9.02099 3.81874ZM55.5424 7.03405H54.6046V0.603432H57.1063C57.5825 0.540329 58.0585 0.740327 58.4974 1.18803C58.5911 1.28662 58.6719 1.44421 58.7312 1.64407C58.7906 1.84394 58.8263 2.07863 58.8346 2.32324C58.8317 3.06419 58.6079 3.78475 57.8118 3.98868L57.5851 4.04306L57.7579 4.38295C58.0129 4.87238 58.6419 6.34748 58.9366 7.04764L57.8628 7.05444C57.7013 6.62618 56.8031 4.67525 56.4178 3.72357C56.7927 3.69897 57.1657 3.58511 57.5313 3.38368C57.6102 3.32422 57.6794 3.20707 57.7291 3.04862C57.7789 2.89017 57.8068 2.69835 57.8089 2.49998C57.8059 2.37568 57.791 2.25468 57.7655 2.14628C57.74 2.03788 57.7044 1.94494 57.6616 1.8746C57.4293 1.41235 56.9108 1.41235 56.2988 1.41235H55.5452L55.5424 7.03405Z" fill="#222222"/>
</svg>
