<svg width="51" height="41" viewBox="0 0 51 41" fill="none" xmlns="http://www.w3.org/2000/svg">
<path d="M25.4979 22.2132C25.4214 22.2132 25.2748 22.1168 25.0261 21.6679C23.9872 19.7547 22.5582 18.0744 20.8293 16.7328C19.4727 15.6844 17.9678 14.8378 16.3625 14.2201L15.6294 13.9349C13.4789 13.0959 11.2498 12.2297 9.18 11.0468C8.95057 10.9186 8.72386 10.7857 8.5 10.6482C8.91225 9.93514 9.3925 9.25349 9.92375 8.63056C10.6936 7.71996 11.59 6.92135 12.5864 6.25842C13.6536 5.55062 14.8093 4.98238 16.0246 4.56792C18.6129 3.65766 21.7132 3.21091 25.4979 3.20672C29.2867 3.21091 32.385 3.65766 34.9733 4.57002C36.1892 4.98366 37.3456 5.55119 38.4136 6.25842C39.4098 6.9207 40.3062 7.71861 41.0762 8.62847C41.6075 9.25349 42.0856 9.93514 42.5 10.6482C42.279 10.7839 42.0523 10.9181 41.82 11.0509C39.746 12.2339 37.5211 13.1001 35.3664 13.937L34.6333 14.2222C33.0295 14.8403 31.526 15.6868 30.1707 16.7349C28.4416 18.0771 27.0126 19.7581 25.9739 21.6721C25.7252 22.1189 25.5765 22.2132 25.4979 22.2132ZM25.4979 37.0481C22.2169 37.0439 19.5521 36.7775 17.3591 36.2364C15.2065 35.7078 13.4172 34.8941 11.8851 33.7447C10.7109 32.8542 9.70892 31.7622 8.92713 30.521C8.19486 29.3628 7.61637 28.1165 7.20587 26.8128C6.5655 24.7868 6.23112 22.6786 6.2135 20.5563C6.2135 19.1427 6.31337 17.8024 6.50037 16.5692C8.85063 17.8192 11.0755 18.4463 13.0454 19.0021L13.5023 19.128C16.2435 19.9061 18.4195 20.9255 20.1641 22.2489C21.1735 23.0207 22.0554 23.9121 22.7779 24.9C23.562 25.9655 24.1867 27.182 24.6415 28.518C24.8455 29.1241 25.0665 29.4996 25.4979 29.4996C25.9377 29.4996 26.1524 29.122 26.3585 28.518C27.1666 26.0263 28.7293 23.839 30.8359 22.251C32.5784 20.9255 34.7565 19.9061 37.4977 19.128L37.9567 19.0021C39.9245 18.4463 42.1494 17.8192 44.4975 16.5692C44.6888 17.8045 44.7865 19.1427 44.7865 20.5542C44.7865 21.5148 44.6888 24.0443 43.7984 26.8128C43.3885 28.1164 42.8108 29.3627 42.0793 30.521C41.2949 31.7629 40.29 32.855 39.1128 33.7447C37.5764 34.8941 35.7871 35.7078 33.643 36.2364C31.4436 36.7775 28.781 37.0439 25.4979 37.0481ZM46.0934 6.51849C42.0368 2.21885 35.4896 0.247303 25.4979 0.236816C15.5104 0.247303 8.96325 2.21675 4.90662 6.5164C1.89125 9.70652 0 14.1215 0 20.1117C0 23.4234 0.82875 31.857 7.5735 36.2112C11.611 38.8162 16.8258 40.5025 25.4979 40.5151C34.1742 40.5025 39.3869 38.8162 43.4265 36.2112C50.1691 31.857 51 23.4213 51 20.1117C51 14.1383 49.0939 9.69184 46.0913 6.5143L46.0934 6.51849Z" fill="#222222"/>
</svg>
