<svg width="37" height="52" viewBox="0 0 37 52" fill="none" xmlns="http://www.w3.org/2000/svg">
<path d="M3.29657 13.7782L3.28196 13.804C3.47187 13.9718 3.91011 13.9486 4.25584 13.5226C4.27387 13.5903 4.30477 13.6534 4.34664 13.708C4.38851 13.7627 4.44046 13.8076 4.49931 13.8402C4.59441 13.8942 4.69963 13.9253 4.8074 13.9311C4.91517 13.9369 5.02281 13.9173 5.12259 13.8737C5.31493 13.7756 5.36606 13.3573 5.00816 12.9158C7.50178 11.374 10.3339 10.5549 13.2204 10.5404C14.0723 10.5955 14.8906 10.9131 15.5747 11.4544C15.5747 10.7522 14.6447 10.1635 13.8315 10.0525C14.0208 9.71636 14.2973 9.44514 14.628 9.27117C14.9587 9.09719 15.3296 9.02781 15.6965 9.07131C15.5815 8.98905 15.4601 8.91736 15.3337 8.85701C15.165 8.78054 14.9858 8.73346 14.8029 8.71758C14.5802 8.70527 14.3582 8.75325 14.1577 8.85701C13.7323 9.10598 13.4004 9.50253 13.2179 9.98015L11.5137 10.0034C11.5568 9.59481 11.6831 9.20103 11.8837 8.84926C12.1785 8.38721 12.6172 8.04993 13.123 7.89652C12.7256 7.74072 12.287 7.75239 11.8975 7.92914C11.508 8.10589 11.1972 8.43427 11.0292 8.84668C10.8669 9.22337 10.7775 9.63074 10.7662 10.0447L8.91584 10.5017C8.86006 9.90749 9.02712 9.31387 9.38087 8.84926C9.56078 8.63733 9.75974 8.44449 9.97493 8.27349C9.7021 8.20924 9.41762 8.22934 9.15524 8.3314C8.89286 8.43345 8.66359 8.61318 8.49464 8.84926C8.17062 9.42113 8.06112 10.1013 8.18787 10.7547L6.15003 11.4648C6.0794 10.9841 6.13444 10.4921 6.30916 10.0424C6.48387 9.59259 6.77158 9.20224 7.14095 8.91381C7.01621 8.92521 6.89249 8.94679 6.77088 8.97836C6.28344 9.17132 5.88368 9.55405 5.65299 10.0486C5.4223 10.5432 5.37802 11.1124 5.52918 11.6403C5.53545 11.7189 5.54849 11.7967 5.56814 11.8727L5.35632 11.9967L4.62591 12.4433C4.4287 11.883 4.26314 11.7798 3.92472 11.8417C3.84498 11.8491 3.76896 11.8808 3.70587 11.9331C3.64278 11.9853 3.59532 12.0558 3.56926 12.1361C3.56423 12.2582 3.58328 12.38 3.62521 12.4938C3.66713 12.6076 3.731 12.7109 3.81273 12.7971C3.62291 12.836 3.44831 12.934 3.31118 13.0785C3.23255 13.1635 3.18402 13.2747 3.17381 13.3932C3.16361 13.5118 3.19235 13.6305 3.25518 13.7291L3.29657 13.7782ZM3.32579 12.7067L3.28196 12.5724L3.2211 12.3633L3.26005 12.7067H3.32579ZM6.68079 9.9311C6.62362 10.0681 6.58273 10.212 6.55906 10.3597C6.65275 10.1762 6.76369 10.0032 6.89018 9.84331C7.11381 9.58779 7.35822 9.35365 7.62058 9.1436V9.05582L7.59867 9.02742H7.54754C7.24081 9.23139 6.97249 9.49404 6.75627 9.802C6.72718 9.84231 6.7019 9.88555 6.68079 9.9311ZM3.26736 14.3824C3.3435 14.3988 3.42095 14.4074 3.49865 14.4082C3.61936 14.4243 3.74195 14.4093 3.85599 14.3643C3.97002 14.3194 4.07212 14.2458 4.15358 14.15C4.18785 14.1968 4.22706 14.2392 4.27045 14.2765C4.36177 14.3496 4.46714 14.4004 4.57907 14.4254C4.69099 14.4503 4.80674 14.4489 4.91808 14.4211C5.00984 14.4221 5.10089 14.404 5.18604 14.3677C5.27119 14.3314 5.34876 14.2776 5.41432 14.2096C5.47989 14.1415 5.53216 14.0603 5.56816 13.9708C5.60416 13.8813 5.62318 13.7851 5.62414 13.6878V13.582C5.60385 13.6585 5.57696 13.7328 5.54379 13.804C5.49376 13.9208 5.41434 14.0206 5.31425 14.0926C5.21417 14.1646 5.0973 14.2059 4.97651 14.212C4.76322 14.2657 4.53889 14.2373 4.34349 14.1319C4.27222 14.0827 4.2096 14.0207 4.15845 13.9486C4.05771 14.0511 3.93533 14.1266 3.80151 14.1688C3.66769 14.2111 3.52629 14.2188 3.38909 14.1913L3.27953 14.1758C3.17715 14.1559 3.08164 14.1074 3.00288 14.0352C2.92412 13.963 2.86497 13.8698 2.83155 13.7653C2.80946 13.7208 2.79152 13.6741 2.77798 13.6259C2.77898 13.7412 2.79454 13.8558 2.82424 13.9667V13.9899C2.85504 14.0934 2.91315 14.1853 2.99167 14.2549C3.0702 14.3244 3.16586 14.3687 3.26736 14.3824ZM6.55419 10.3545L6.55906 10.3442L6.55662 10.3468L6.55419 10.3545ZM6.55419 10.3545C6.47009 10.5268 6.41724 10.7142 6.39837 10.9071C6.42208 10.7152 6.47469 10.5287 6.55419 10.3545ZM5.2005 11.7385C5.17778 11.5405 5.15181 11.3417 5.12259 11.142C5.11536 11.342 5.13006 11.5421 5.16641 11.7385H5.2005ZM24.0694 24.6921L24.0961 24.0853V15.5959H12.8381H12.8503L12.8746 23.1842V23.587H12.9039V24.5811C12.9437 25.3672 13.1293 26.1373 13.45 26.8473C13.7706 27.5573 14.2202 28.1933 14.7728 28.7189C15.3254 29.2445 15.9704 29.6495 16.6707 29.9106C17.371 30.1717 18.113 30.2839 18.8542 30.2407L19.0174 30.2278C20.3732 30.1742 21.6577 29.5694 22.6046 28.5388C23.5514 27.5083 24.0881 26.1309 24.1034 24.6921H24.0694ZM22.852 15.9625H23.412V16.2207H23.2464V17.5117H23.003V16.2207H22.8471L22.852 15.9625ZM21.4813 15.9367H22.0534C22.157 15.9432 22.2563 15.983 22.3381 16.0508C22.4198 16.1186 22.4802 16.2112 22.5112 16.3163C22.5496 16.4571 22.5496 16.6066 22.5112 16.7474C22.4886 16.8199 22.4475 16.8843 22.3925 16.9336C22.3375 16.9828 22.2707 17.0149 22.1995 17.0263L22.4771 17.4549L22.2652 17.6021L21.9487 17.1037H21.7442V17.5039H21.4813V15.9367ZM20.2298 17.0676L20.6876 15.7456L20.785 16.0271L20.97 16.5435L21.2938 17.4678L21.0503 17.5608L20.9724 17.2793H20.3905L20.3272 17.4755L20.3005 17.5608L20.2615 17.5375L20.0716 17.491L20.2298 17.0676ZM18.7983 16.6261C18.8052 16.498 18.842 16.3738 18.9054 16.2646C18.9342 16.1973 18.9762 16.1374 19.0287 16.0889C19.0812 16.0403 19.143 16.0043 19.2097 15.9832C19.2928 15.9597 19.3803 15.96 19.4633 15.9841C19.5462 16.0081 19.6217 16.055 19.682 16.12L19.5067 16.3085C19.4792 16.2826 19.449 16.2601 19.4167 16.2414C19.3911 16.2289 19.3633 16.2224 19.3351 16.2224C19.3069 16.2224 19.2791 16.2289 19.2535 16.2414C19.2063 16.2756 19.1651 16.3185 19.1318 16.3679C19.09 16.4481 19.062 16.5355 19.049 16.6261C19.0346 16.7513 19.0346 16.8779 19.049 17.003C19.0496 17.0686 19.062 17.1335 19.0855 17.1941H19.1075C19.1465 17.2852 19.2058 17.365 19.2803 17.4265C19.2957 17.4366 19.3134 17.4419 19.3314 17.442C19.3676 17.4462 19.4042 17.4418 19.4386 17.4291C19.496 17.3949 19.542 17.3425 19.57 17.2793L19.5847 17.1915C19.596 17.1059 19.6033 17.0197 19.6066 16.9333H19.4021V16.6751H19.85V17.1321C19.8426 17.2392 19.809 17.3425 19.7526 17.4317C19.6938 17.5476 19.5954 17.6354 19.4775 17.6769C19.3909 17.6973 19.3012 17.6973 19.2146 17.6769C19.1667 17.6654 19.1207 17.6463 19.0782 17.6201C19.0384 17.5898 19.0031 17.5532 18.9735 17.5117C18.9452 17.4705 18.9207 17.4264 18.9005 17.38C18.7934 17.1479 18.7543 16.8871 18.7885 16.6313L18.7983 16.6261ZM17.9266 15.9625H18.4915V16.2207H18.3235V17.5117H18.08V16.2207H17.9218L17.9266 15.9625ZM16.9528 15.9625H17.5176V16.2207H17.3472V17.5117H17.1037V16.2207H16.9454L16.9528 15.9625ZM15.6015 16.1407H15.845V17.2612C15.8609 17.301 15.8841 17.337 15.9131 17.3672C15.9422 17.3974 15.9766 17.4212 16.0144 17.4373C16.0522 17.4534 16.0926 17.4614 16.1333 17.4608C16.174 17.4603 16.2142 17.4513 16.2516 17.4342C16.3245 17.4004 16.3828 17.3386 16.4147 17.2612V16.1407H16.6582V17.2612C16.63 17.3874 16.5625 17.4998 16.4666 17.5802C16.3707 17.6606 16.2521 17.7044 16.1298 17.7044C16.0076 17.7044 15.8889 17.6606 15.793 17.5802C15.6972 17.4998 15.6297 17.3874 15.6015 17.2612V16.1407ZM14.6763 15.9548H15.2387V16.213H15.0732V17.5039H14.8297L14.8151 16.213H14.6568L14.6763 15.9548ZM14.1894 17.1373C14.1758 17.0993 14.1539 17.0652 14.1256 17.0378C14.0973 17.0105 14.0632 16.9906 14.0263 16.9798C13.927 16.9785 13.8284 16.9611 13.7341 16.9282C13.6624 16.9136 13.5964 16.8765 13.5448 16.8217C13.4931 16.7669 13.4581 16.697 13.4444 16.6209C13.4102 16.5137 13.4102 16.3976 13.4444 16.2904C13.473 16.217 13.5189 16.1525 13.5777 16.1032C13.6366 16.054 13.7063 16.0215 13.7804 16.009C13.876 15.9885 13.9745 15.9885 14.0701 16.009C14.1235 16.0185 14.1745 16.0397 14.2198 16.0712C14.2651 16.1028 14.3036 16.1441 14.333 16.1923L14.1382 16.3472C14.0975 16.3111 14.0514 16.2824 14.0019 16.262C13.9702 16.2467 13.9357 16.2387 13.9009 16.2387C13.866 16.2387 13.8315 16.2467 13.7998 16.262C13.7508 16.2883 13.7064 16.3233 13.6684 16.3653C13.6569 16.3921 13.651 16.4211 13.651 16.4505C13.651 16.4799 13.6569 16.5089 13.6684 16.5357C13.6951 16.5925 13.7073 16.6416 13.7877 16.6674C13.868 16.6932 13.9776 16.6958 14.0701 16.7242C14.1555 16.7434 14.2344 16.7866 14.2987 16.8493C14.3629 16.912 14.4101 16.9919 14.4353 17.0805C14.4639 17.171 14.4639 17.2689 14.4353 17.3594C14.4088 17.4434 14.3613 17.5183 14.2978 17.5761C14.2344 17.6338 14.1573 17.6722 14.0749 17.6873C13.9694 17.7059 13.8616 17.7059 13.756 17.6873C13.6863 17.6735 13.6198 17.6452 13.5604 17.604C13.5011 17.5628 13.45 17.5095 13.4103 17.4471L13.6343 17.3284C13.6717 17.3757 13.7193 17.4129 13.773 17.4368C13.8598 17.4629 13.9517 17.4629 14.0384 17.4368C14.093 17.4261 14.1413 17.393 14.1728 17.3446C14.2043 17.2962 14.2164 17.2365 14.2064 17.1786L14.1894 17.1373ZM23.2513 23.8091H23.0078C22.8733 23.7439 22.736 23.6854 22.5964 23.6335C22.5414 23.6117 22.4809 23.6117 22.4259 23.6335C22.3317 23.683 22.2487 23.7534 22.1825 23.84C22.1435 23.8762 22.1411 23.902 22.1532 23.9304C22.1916 24.0853 22.1916 24.248 22.1532 24.4029C22.1294 24.5115 22.0891 24.6152 22.034 24.7102C21.8534 24.9425 21.6989 25.1964 21.5738 25.4667C21.5299 25.6242 21.5299 25.7919 21.5738 25.9495C21.6426 26.1012 21.7311 26.242 21.8367 26.3678C21.9092 26.4558 21.9759 26.549 22.0364 26.6466C22.0632 26.7008 22.0753 26.768 22.0364 26.799C22.0112 26.8093 21.9893 26.8269 21.9729 26.8496C21.9566 26.8724 21.9465 26.8996 21.9439 26.9281C21.9439 27.0959 21.8976 27.0959 21.8489 27.132C21.6976 27.2781 21.5643 27.4438 21.4521 27.6252C21.4166 27.6813 21.3864 27.741 21.362 27.8033C21.3515 27.8594 21.3286 27.9121 21.2951 27.957C21.2617 28.0019 21.2187 28.0377 21.1696 28.0615C20.947 28.1705 20.737 28.3065 20.5439 28.4669C20.4831 28.5366 20.5098 28.6605 20.5439 28.7483C20.5517 28.7657 20.5557 28.7846 20.5557 28.8038C20.5557 28.823 20.5517 28.842 20.5439 28.8594C20.4806 29.0065 20.2274 28.9446 20.1276 29.0375C20.0998 29.0529 20.0689 29.0609 20.0375 29.0609C20.0061 29.0609 19.9752 29.0529 19.9474 29.0375C19.8793 29.0143 19.8817 28.8929 19.9474 28.818C20.0284 28.6899 20.1171 28.5675 20.2128 28.4514C20.2428 28.3378 20.3028 28.2357 20.3857 28.1571C20.5707 27.9608 20.7411 27.7904 20.914 27.5968C21.0932 27.33 21.223 27.0294 21.2962 26.7112C21.3328 26.564 21.25 26.5408 21.2062 26.4865C20.899 26.4182 20.6286 26.2267 20.4514 25.9521C20.4423 25.9419 20.4314 25.9338 20.4192 25.9283C20.4071 25.9228 20.394 25.9199 20.3808 25.9199C20.3676 25.9199 20.3545 25.9228 20.3424 25.9283C20.3302 25.9338 20.3193 25.9419 20.3102 25.9521C20.2719 26.0072 20.2269 26.0567 20.1763 26.0993C20.1763 26.2929 20.225 26.4891 20.225 26.6854C20.1899 26.7369 20.1491 26.7838 20.1032 26.8248C19.8198 27.0327 19.5228 27.219 19.2146 27.3825C19.1529 27.4169 19.0912 27.4539 19.0295 27.4935C18.8445 27.6054 18.6595 27.7242 18.4744 27.8498C18.3965 27.9221 18.3162 27.9763 18.3649 28.1312C18.3965 28.2216 18.3819 28.2423 18.3649 28.2707L17.951 28.3998C17.8268 28.4204 17.8073 28.3068 17.8268 28.2603C17.9173 28.15 17.9987 28.0316 18.0703 27.9066C18.1368 27.7679 18.2411 27.6536 18.3697 27.5787C18.6132 27.4264 18.8177 27.2715 19.0515 27.1088L19.0734 27.0933C19.1503 27.0374 19.2164 26.9664 19.2681 26.8842C19.3512 26.7567 19.4449 26.6375 19.5481 26.5279C19.5845 26.5119 19.6145 26.4832 19.6331 26.4465C19.6518 26.4098 19.6579 26.3674 19.6504 26.3265C19.6464 26.2498 19.621 26.1761 19.5774 26.1147C19.447 25.9808 19.3413 25.8224 19.2657 25.6474C19.2247 25.5246 19.2247 25.3906 19.2657 25.2679C19.3339 25.0587 19.2657 25.0768 19.1854 25.0355H19.0539C18.6944 25.0515 18.3343 25.0463 17.9753 25.02L17.6442 24.9038C17.4619 24.8261 17.2963 24.7102 17.1573 24.563C17.0915 24.4804 17.038 24.4726 16.9333 24.563C16.8198 24.6715 16.6839 24.7503 16.5364 24.7928C16.4236 24.8217 16.3059 24.8217 16.1931 24.7928C16.0888 24.7532 15.9799 24.7288 15.8693 24.7205C15.75 24.6921 15.6697 24.643 15.5674 24.6198C15.4652 24.5966 15.3239 24.6043 15.1973 24.5914C15.1413 24.6404 15.1706 24.7308 15.0975 24.8031L15.0561 24.8548V25.3376C15.0723 25.5632 15.1023 25.7874 15.1462 26.0089V26.1974C15.1507 26.2124 15.1593 26.2257 15.1711 26.2354C15.1828 26.2451 15.1971 26.2507 15.2119 26.2516C15.2631 26.2722 15.3093 26.2955 15.3166 26.3445C15.3239 26.3936 15.4019 26.4013 15.4749 26.3445H15.6551C15.7159 26.3704 15.7524 26.4297 15.6989 26.5253L15.4189 26.8661C15.3653 26.9151 15.3337 26.9203 15.2704 26.8661C15.1584 26.7034 15.0951 26.5201 14.932 26.4633C14.8903 26.442 14.8541 26.4105 14.8261 26.3715C14.7982 26.3324 14.7794 26.2869 14.7713 26.2387C14.7436 25.941 14.7322 25.6418 14.7372 25.3427C14.7437 25.1021 14.7257 24.8615 14.6836 24.625C14.6301 24.4442 14.6568 24.2687 14.8102 24.2118C14.8805 24.2228 14.9518 24.2228 15.022 24.2118C15.2913 24.1701 15.5568 24.1044 15.8158 24.0156C15.8377 24.0156 15.8401 23.9795 15.8377 23.9511L15.8109 23.8943C15.7893 23.8212 15.7527 23.7542 15.7038 23.698L15.5625 23.68C15.3507 23.6516 15.3191 23.525 15.2631 23.383C15.229 23.3262 15.2363 23.1532 15.1925 23.0784L14.8151 22.5181C14.806 22.5064 14.7947 22.4967 14.782 22.4897C14.7692 22.4826 14.7553 22.4784 14.741 22.4772C14.7267 22.476 14.7123 22.4778 14.6987 22.4827C14.685 22.4875 14.6725 22.4951 14.6617 22.5052L14.6471 22.5181C14.5072 22.6736 14.3861 22.8471 14.2868 23.0345C14.2342 23.1225 14.1902 23.2159 14.1553 23.3133C14.1285 23.3675 14.1553 23.4682 14.1163 23.507C14.0718 23.6327 13.9941 23.742 13.8923 23.822L13.8656 23.9046V23.9407C13.8481 24.0031 13.8481 24.0695 13.8656 24.1318C13.8963 24.1516 13.9249 24.175 13.9508 24.2015C13.9631 24.2269 13.9671 24.2558 13.9622 24.2838C13.9574 24.3118 13.944 24.3374 13.924 24.3564C13.7932 24.3971 13.6697 24.4608 13.5588 24.5449C13.5418 24.5785 13.4419 24.5656 13.4127 24.5449C13.3952 24.5044 13.3861 24.4604 13.3861 24.4158C13.3861 24.3713 13.3952 24.3272 13.4127 24.2867C13.4482 24.1994 13.4949 24.1178 13.5515 24.044L13.6294 23.9407H13.6464C13.627 23.7548 13.7244 23.7161 13.7438 23.6025L13.8753 23.1713C13.971 22.9927 14.0767 22.8202 14.1918 22.6549C14.2381 22.611 14.2405 22.4845 14.2965 22.4561L14.428 22.2857C14.4689 22.1766 14.5436 22.0855 14.6398 22.0275C14.7347 21.9681 14.8175 21.9346 14.91 22.0043C14.9973 22.1228 15.0678 22.2541 15.1194 22.3942C15.1365 22.4794 15.2193 22.5362 15.2728 22.5904L15.4408 22.6937C15.4681 22.722 15.5048 22.7379 15.5431 22.7379C15.5813 22.7379 15.618 22.722 15.6453 22.6937C15.7038 22.5801 15.7403 22.4355 15.7914 22.3141C15.9107 21.8884 16.1698 21.522 16.5218 21.2813C16.5637 21.259 16.5965 21.2214 16.6143 21.1755C16.6268 21.1413 16.6358 21.1058 16.6411 21.0696C16.6498 20.9609 16.6907 20.8578 16.758 20.7753C16.8018 20.7219 16.8018 20.6746 16.758 20.6333C16.7242 20.6108 16.6857 20.5975 16.646 20.5945C16.5954 20.588 16.5456 20.5759 16.4975 20.5584C16.4804 20.5274 16.3928 20.53 16.3392 20.5222C16.1931 20.7004 16.1152 20.6513 16.0032 20.7546C15.989 20.7628 15.9731 20.767 15.957 20.767C15.9408 20.767 15.9249 20.7628 15.9107 20.7546C15.8754 20.7435 15.8429 20.7241 15.8158 20.6978C15.81 20.6891 15.8069 20.6788 15.8069 20.6681C15.8069 20.6575 15.81 20.6471 15.8158 20.6384V20.6126C15.8519 20.5731 15.8939 20.54 15.9399 20.5145C15.9481 20.505 15.9527 20.4925 15.9527 20.4796C15.9527 20.4667 15.9481 20.4543 15.9399 20.4448C15.8901 20.4273 15.8363 20.4273 15.7865 20.4448C15.76 20.4708 15.7284 20.4902 15.694 20.5016H15.582C15.5299 20.4779 15.4821 20.4446 15.4408 20.4035L15.4092 20.3699L15.4311 20.3363C15.5388 20.2453 15.6537 20.1641 15.7744 20.0936C15.8005 20.0362 15.8332 19.9825 15.8717 19.9336C16.0397 19.8096 16.2248 19.7193 16.4001 19.5953H16.7994C16.8099 19.5834 16.8176 19.569 16.8218 19.5532C16.826 19.5375 16.8267 19.521 16.8237 19.505L16.6898 19.3707L16.5023 19.1745C16.4609 19.1177 16.4756 19.0841 16.5023 19.0609H16.5827C16.6684 19.0762 16.7509 19.1077 16.8261 19.1538H17.0891C17.2005 19.1111 17.3036 19.0473 17.3934 18.9653H17.4153C17.4754 18.9139 17.5428 18.873 17.615 18.844C17.7576 18.8051 17.8857 18.7214 17.9826 18.6039L18.0045 18.5806C18.1212 18.4171 18.2855 18.2991 18.472 18.245H18.6376C18.6437 18.2453 18.6496 18.2477 18.6544 18.2518C18.6592 18.2559 18.6626 18.2615 18.6643 18.2678C18.6659 18.2741 18.6656 18.2807 18.6634 18.2868C18.6612 18.293 18.6573 18.2982 18.6522 18.3018H18.6254C18.5575 18.3315 18.4968 18.3771 18.4479 18.4353C18.399 18.4934 18.3631 18.5625 18.343 18.6374C18.3264 18.6902 18.3264 18.7473 18.343 18.8001C18.362 18.8355 18.3848 18.8685 18.4111 18.8982C18.4541 18.935 18.5027 18.9639 18.5548 18.9834H18.8348C19.0045 18.9082 19.1818 18.8536 19.3631 18.8207H19.6893C19.7855 18.8266 19.8778 18.8625 19.9547 18.924C20.0083 18.955 19.9547 18.9886 19.9279 19.017H19.665C19.5631 19.0628 19.4724 19.1325 19.3996 19.2209C19.3794 19.2462 19.3683 19.2782 19.3683 19.3113C19.3683 19.3444 19.3794 19.3765 19.3996 19.4017C19.4448 19.4287 19.4806 19.4703 19.5019 19.5204C19.5262 19.5824 19.5481 19.6452 19.5676 19.7089C19.6637 19.771 19.7528 19.8446 19.833 19.9284C19.9474 19.9991 20.0523 20.0859 20.1446 20.1866C20.1909 20.2472 20.2159 20.3229 20.2152 20.4009C20.1909 20.4353 20.1633 20.4353 20.1325 20.4009C20.0431 20.3137 19.9367 20.2485 19.8208 20.2098C19.7977 20.1979 19.7723 20.1918 19.7466 20.1918C19.7208 20.1918 19.6955 20.1979 19.6723 20.2098L19.5847 20.2873C19.5764 20.2968 19.5719 20.3092 19.5719 20.3221C19.5719 20.335 19.5764 20.3475 19.5847 20.357V20.3725C19.6993 20.4088 19.8038 20.4744 19.889 20.5636C19.9628 20.6886 20.0194 20.8243 20.057 20.9663C20.0672 20.9775 20.0749 20.9909 20.0796 21.0057C20.0842 21.0204 20.0856 21.0361 20.0838 21.0515C20.0351 21.1058 20.018 21.1058 19.9815 21.0799C19.8731 20.9405 19.732 20.8337 19.5725 20.7701H19.4288C19.3631 20.7934 19.329 20.8063 19.3899 20.9044C19.4991 20.9985 19.583 21.1214 19.6333 21.2607L19.6553 21.3665V21.7022C19.639 21.7401 19.6212 21.7401 19.6017 21.7022C19.5324 21.5886 19.4334 21.4989 19.3168 21.444C19.2133 21.4131 19.1038 21.4131 19.0003 21.444C18.8583 21.5185 18.7429 21.6399 18.6716 21.79C18.6059 21.9578 18.511 22.4974 18.6473 22.673C18.7046 22.7732 18.7813 22.8593 18.8724 22.9256C18.9635 22.992 19.0669 23.037 19.1756 23.0577C19.6099 23.0791 20.0451 23.0696 20.4782 23.0293H21.1112C21.4441 23.1017 21.7404 23.301 21.9439 23.5896C21.9583 23.6022 21.9763 23.6091 21.995 23.6091C22.0137 23.6091 22.0317 23.6022 22.0461 23.5896C22.1492 23.4757 22.2318 23.3426 22.2896 23.1971C22.3148 23.1202 22.3148 23.0365 22.2896 22.9596L22.2312 22.7866C22.079 22.4553 21.8858 22.147 21.6566 21.87C21.5639 21.7494 21.4982 21.6082 21.4642 21.4569C21.4451 21.3651 21.4451 21.2699 21.4642 21.1781C21.4808 21.0922 21.5176 21.0123 21.5714 20.9457C21.6168 20.9078 21.6452 20.9078 21.6566 20.9457C21.6736 21.0025 21.6566 21.1135 21.6761 21.1677C21.72 21.2647 21.7696 21.3587 21.8246 21.4492C21.8314 21.457 21.8397 21.4632 21.8489 21.4675C21.8581 21.4718 21.8681 21.474 21.8781 21.474C21.8882 21.474 21.8981 21.4718 21.9074 21.4675C21.9166 21.4632 21.9249 21.457 21.9317 21.4492C21.9821 21.2649 22.0227 21.0779 22.0534 20.8889C22.0534 20.8011 22.1484 20.7211 22.2166 20.6617C22.373 20.5457 22.5466 20.4584 22.7303 20.4035C22.8082 20.3622 22.8252 20.3209 22.8715 20.1995C22.8983 20.1427 22.9762 20.1375 22.9908 20.1763C22.9994 20.2988 22.9666 20.4205 22.8983 20.5197C22.8371 20.5826 22.7729 20.642 22.7059 20.6978C22.6519 20.7542 22.6111 20.8232 22.5866 20.8992C22.5343 21.0218 22.4598 21.1323 22.3675 21.2245C22.3471 21.258 22.3362 21.297 22.3362 21.3368C22.3362 21.3767 22.3471 21.4157 22.3675 21.4492C22.3935 21.515 22.4279 21.5767 22.4698 21.6325C22.4795 21.6429 22.4911 21.6511 22.5038 21.6567C22.5166 21.6623 22.5302 21.6652 22.544 21.6652C22.5578 21.6652 22.5715 21.6623 22.5842 21.6567C22.597 21.6511 22.6085 21.6429 22.6183 21.6325C22.6969 21.5755 22.7606 21.4981 22.8032 21.4078C22.8458 21.3174 22.8659 21.217 22.8617 21.1161C22.8652 21.1103 22.8697 21.1052 22.8751 21.1013C22.8804 21.0973 22.8864 21.0946 22.8928 21.0931C22.8991 21.0917 22.9057 21.0916 22.9121 21.0929C22.9184 21.0942 22.9245 21.0968 22.9299 21.1006L22.9445 21.1161C22.9907 21.1776 23.0194 21.2519 23.0271 21.3301C23.0349 21.4083 23.0214 21.4872 22.9883 21.5576C22.9069 21.6833 22.8085 21.7955 22.6962 21.8907C22.6751 21.9148 22.6751 21.9458 22.6962 21.9836C22.7546 22.0435 22.8031 22.1133 22.8398 22.1902C22.8666 22.2676 22.981 22.2702 23.1052 22.2134C23.1363 22.194 23.1629 22.1676 23.1831 22.136C23.2221 22.0714 23.261 22.0662 23.2781 22.1592V22.2986C23.2285 22.3992 23.1517 22.4817 23.0576 22.5355C22.9634 22.5894 22.8562 22.6121 22.7498 22.6007C22.7259 22.6327 22.7128 22.6722 22.7128 22.713C22.7128 22.7538 22.7259 22.7934 22.7498 22.8253C22.7758 22.8646 22.8089 22.8979 22.8471 22.9235C22.8805 22.9438 22.9182 22.9546 22.9567 22.9546C22.9952 22.9546 23.0329 22.9438 23.0663 22.9235C23.1725 22.8442 23.2627 22.7433 23.3316 22.6265C23.3307 22.6242 23.3303 22.6216 23.3305 22.619C23.3307 22.6165 23.3315 22.614 23.3328 22.6119C23.3341 22.6097 23.336 22.6079 23.3381 22.6067C23.3402 22.6055 23.3426 22.6048 23.345 22.6048C23.3475 22.6048 23.3498 22.6055 23.352 22.6067C23.3541 22.6079 23.3559 22.6097 23.3573 22.6119C23.3586 22.614 23.3594 22.6165 23.3596 22.619C23.3598 22.6216 23.3594 22.6242 23.3584 22.6265C23.3776 22.6706 23.3876 22.7187 23.3876 22.7672C23.3876 22.8158 23.3776 22.8638 23.3584 22.908C23.2921 23.0603 23.1919 23.1932 23.0663 23.2953C23.0005 23.3443 23.0346 23.4244 23.0663 23.4631C23.102 23.5084 23.1448 23.5468 23.1929 23.5767H23.5337C23.4708 23.6893 23.3698 23.7724 23.2513 23.8091ZM4.08785 18.7562L4.10976 18.7898C4.47983 19.5179 5.60466 19.048 5.47562 18.4335C5.46153 18.5003 5.43505 18.5635 5.39771 18.6194C5.27204 18.7982 5.08475 18.917 4.87674 18.9499C4.66873 18.9828 4.45689 18.9271 4.28749 18.7949C4.21229 18.734 4.14585 18.6618 4.09028 18.5806C3.98847 18.6971 3.85716 18.78 3.71208 18.8194C3.56699 18.8588 3.41428 18.853 3.27222 18.8027C3.06932 18.6794 2.91796 18.4792 2.84859 18.2424C2.8478 18.3897 2.88303 18.5347 2.95085 18.6632C3.02348 18.7983 3.1366 18.9037 3.27222 18.9627C3.4126 19.0144 3.56396 19.0224 3.70847 18.9858C3.85299 18.9492 3.98462 18.8695 4.08785 18.7562ZM22.2799 16.6597C22.3023 16.5814 22.3023 16.4978 22.2799 16.4195C22.2464 16.3539 22.1969 16.299 22.1364 16.2609C22.076 16.2227 22.0069 16.2026 21.9366 16.2026H21.7174V16.8559H21.939C22.0066 16.8552 22.073 16.8369 22.1324 16.8027C22.1919 16.7685 22.2425 16.7194 22.2799 16.6597ZM20.7825 16.8765L20.6559 16.528L20.4684 17.0599H20.8483L20.7825 16.8765ZM18.0654 19.3139H18.0289L17.9753 19.2777L17.9047 19.2493H17.8512C17.8156 19.2452 17.7796 19.2452 17.744 19.2493C17.7279 19.2695 17.7147 19.2921 17.7051 19.3165C17.6946 19.3333 17.689 19.3531 17.689 19.3733C17.689 19.3935 17.6946 19.4132 17.7051 19.4301L17.7246 19.4585C17.7975 19.5133 17.8547 19.5883 17.8901 19.6754L17.9096 19.7141L17.968 19.8897V19.9077C18.0498 20.245 18.0883 20.5924 18.0824 20.9405C18.0699 21.0917 18.0699 21.2438 18.0824 21.3949L18.1019 21.4621C18.134 21.4848 18.1717 21.497 18.2103 21.497C18.2488 21.497 18.2866 21.4848 18.3186 21.4621C18.3953 21.3981 18.4466 21.306 18.4623 21.2039V21.1109C18.5195 20.7702 18.5334 20.4228 18.5037 20.0781V20.0265C18.4825 19.8815 18.4325 19.743 18.3569 19.6201C18.2814 19.4972 18.182 19.3929 18.0654 19.3139ZM5.22241 20.6978C5.24845 20.812 5.2818 20.9241 5.32223 21.0335L5.34658 21.1006L5.40014 21.0799C5.27365 20.7325 5.187 20.3701 5.14207 20.0007C5.14745 20.2353 5.17436 20.4688 5.22241 20.6978ZM6.95835 14.0622C6.70522 14.2889 6.51502 14.5843 6.40811 14.9168C6.34243 15.0954 6.30858 15.2854 6.30828 15.4771C6.42175 14.9816 6.65891 14.5277 6.99487 14.1629C7.00227 14.1537 7.00754 14.1427 7.01023 14.1309C7.01292 14.1192 7.01296 14.1069 7.01035 14.0951C7.00775 14.0833 7.00257 14.0723 6.99522 14.063C6.98788 14.0537 6.97859 14.0463 6.96809 14.0416L6.95835 14.0622ZM8.3729 14.5295H8.36073C8.31483 14.6903 8.28385 14.8555 8.26821 15.0227C8.34126 14.7292 8.46782 14.4538 8.64072 14.212C8.56768 14.3359 8.41673 14.3901 8.3729 14.5295ZM3.24788 16.9411C3.23761 17.05 3.24922 17.16 3.28196 17.2638V17.2845L3.30144 17.318L3.32092 17.3749L3.40857 17.3361C3.35488 17.2493 3.31384 17.1545 3.28683 17.0547L3.24788 16.9411ZM27.7969 30.9972L27.68 31.116L27.6654 31.1366C27.4871 31.3355 27.3539 31.5748 27.2758 31.8363H27.3391C27.6123 31.3349 28.0235 30.934 28.5175 30.6874C28.5175 30.6383 28.537 30.5712 28.4786 30.5376C28.3363 30.6096 28.2009 30.6961 28.0744 30.7958C27.9897 30.8524 27.9084 30.9145 27.831 30.9817L27.7969 30.9972ZM9.30782 13.4193C9.0254 13.5587 8.88906 13.8634 8.71376 14.1268C8.88368 13.9012 9.09174 13.7112 9.3273 13.5665C9.34442 13.5473 9.35397 13.5219 9.35397 13.4955C9.35397 13.4691 9.34442 13.4437 9.3273 13.4245L9.30782 13.4193ZM9.64381 8.98611L9.54886 9.1152L9.49529 9.19266L9.40521 9.33983C9.2892 9.56875 9.2211 9.8215 9.20557 10.0809C9.32514 9.5933 9.59088 9.16015 9.96275 8.84668C10.1121 8.71197 10.2691 8.58695 10.4327 8.4723V8.35869L10.3888 8.32513C10.1559 8.46008 9.94538 8.63451 9.76555 8.84152L9.64381 8.98611ZM14.445 9.69872C14.4139 9.73691 14.3854 9.77747 14.3598 9.82008V9.8743H14.4596C14.6221 9.69851 14.834 9.58344 15.0634 9.54639C15.3745 9.50755 15.6884 9.50063 16.0008 9.52573L16.0397 9.50766L16.069 9.47926V9.36823C16.0667 9.35804 16.0625 9.34843 16.0567 9.34C16.0508 9.33157 16.0434 9.32449 16.0349 9.31918H16.0032C15.7331 9.25851 15.4537 9.26103 15.1846 9.32658C14.9155 9.39213 14.6631 9.51913 14.445 9.69872ZM12.0834 9.04549C11.9615 9.24737 11.8788 9.47293 11.8399 9.70905L11.8618 9.73229C11.9591 9.39845 12.1421 9.09988 12.3901 8.86992H12.4169C12.7178 8.5956 13.0682 8.38915 13.4468 8.26316L13.4736 8.19861V8.07468L13.4103 8.05144C12.9482 8.20008 12.5326 8.47842 12.2075 8.85701L12.0834 9.04549ZM11.6865 13.4348C11.4063 13.4608 11.1392 13.5719 10.9172 13.755C10.7059 13.9198 10.5505 14.1525 10.474 14.4185L10.4302 14.5089L10.4692 14.4624C10.443 14.5463 10.4251 14.6328 10.4156 14.7206C10.5113 14.4088 10.6937 14.135 10.9387 13.935C11.1837 13.7351 11.4801 13.6183 11.7888 13.6C11.8198 13.5885 11.8483 13.5705 11.8726 13.5469C11.8969 13.5234 11.9164 13.4949 11.93 13.4632V13.3419H11.8886C11.8229 13.3651 11.8521 13.44 11.6865 13.4348ZM15.4457 11.8211C14.7457 11.2222 13.8807 10.8814 12.9818 10.8503C12.426 10.8114 11.8679 10.8339 11.3164 10.9174C9.2836 11.2582 7.31861 11.9563 5.5024 12.983L5.52918 13.0294L5.57544 13.1017V13.1301C7.37143 12.1431 9.3046 11.4667 11.3018 11.1265C11.8044 11.0542 12.3119 11.0283 12.8186 11.0491C13.7912 11.0578 14.7334 11.4093 15.4968 12.0483C15.5255 12.0924 15.5692 12.123 15.6187 12.1336C15.6682 12.1442 15.7196 12.134 15.7622 12.1051L15.7914 12.0819C15.8344 12.0353 15.8657 11.9781 15.8823 11.9153C15.8989 11.8526 15.9003 11.7864 15.8864 11.723C15.8616 11.7838 15.8261 11.839 15.7817 11.8856C15.6891 11.9734 15.5966 11.9579 15.4457 11.8211ZM14.0433 14.1009C13.7195 14.2404 13.0013 14.3591 12.7748 14.7335H12.8746C12.8746 14.6948 12.8746 14.6819 12.9014 14.6612C13.476 14.2739 14.1553 14.2533 14.204 14.1009C14.2259 14.0235 14.204 14.0002 14.1748 13.9899C14.165 14.0364 14.0969 14.0622 14.0433 14.1009ZM22.4113 40.8344V40.8628L22.3699 40.9325L22.3383 40.9816V41.0074L22.2726 41.0797L22.1946 41.1443H22.18L22.1021 41.1985H22.0802C22.0203 41.2304 21.9548 41.2489 21.8879 41.2527H21.7905L21.7028 41.232H21.6687L21.5908 41.1985L21.5568 41.183C21.3855 41.086 21.2386 40.947 21.1282 40.7776C21.0357 40.9772 20.9036 41.1534 20.7411 41.294C20.6794 41.343 20.6077 41.3757 20.5317 41.3895C20.4953 41.3939 20.4586 41.3939 20.4222 41.3895C20.3826 41.3947 20.3425 41.3947 20.3029 41.3895C20.1632 41.3497 20.0343 41.2757 19.9265 41.1735C19.8187 41.0712 19.7349 40.9436 19.682 40.8009C19.6946 41.0036 19.7752 41.195 19.9091 41.3403C20.0431 41.4857 20.2216 41.5755 20.4125 41.5935C20.7363 41.6193 21.0187 41.2553 21.1429 40.9635C21.218 41.1042 21.3232 41.2242 21.4501 41.3139C21.577 41.4036 21.7219 41.4605 21.8733 41.4799C22.0429 41.4625 22.2002 41.3783 22.3142 41.2441C22.4282 41.1098 22.4906 40.9351 22.4892 40.7544V40.7363C22.484 40.7626 22.475 40.7879 22.4625 40.8112L22.4113 40.8344ZM30.2267 31.715L29.9832 31.8079C29.6709 31.9225 29.3871 32.1105 29.153 32.3579L29.1335 32.376L29.2236 32.4637C29.8858 31.8647 30.2827 31.999 30.3557 31.7589L30.3022 31.6504C30.2813 31.6771 30.2557 31.6991 30.2267 31.715ZM27.7092 25.8979C27.6358 25.9791 27.5675 26.0654 27.5047 26.1561C27.3958 26.3007 27.302 26.4574 27.2247 26.6234L27.1541 26.768C27.1314 26.8144 27.1314 26.8506 27.1541 26.8764L27.1833 26.91C27.2402 26.7834 27.3019 26.6594 27.3684 26.5382C27.6028 26.1475 27.9419 25.84 28.3422 25.6552C28.3548 25.6268 28.3589 25.5951 28.3541 25.5643C28.3494 25.5334 28.3359 25.5048 28.3155 25.4822C28.0931 25.5842 27.8882 25.7247 27.7092 25.8979ZM29.8274 34.6403C29.8145 34.663 29.7963 34.6819 29.7745 34.695C29.7528 34.7081 29.7282 34.715 29.7032 34.7152H29.6789L29.6253 34.6842C29.5901 34.6545 29.559 34.6197 29.5328 34.5809L29.3526 34.3512C28.9493 33.8871 28.4405 33.5405 27.8749 33.3443C27.3093 33.1481 26.7057 33.109 26.1218 33.2306C25.766 33.2854 25.4126 33.3569 25.0627 33.4449L24.605 33.5714C23.9326 33.7587 23.28 34.0182 22.6572 34.346C22.5529 34.4048 22.4505 34.4677 22.3505 34.5345L22.3188 34.5603L22.3894 34.6971C22.7934 34.4494 23.2171 34.2395 23.6555 34.0697C26.5357 33.0008 28.2132 33.0369 29.545 34.7488C29.6326 34.8443 29.7032 34.9708 29.8371 34.7772C29.9189 34.6481 29.9559 34.493 29.9418 34.3382V34.2143L29.8737 34.5629C29.8627 34.5914 29.8471 34.6176 29.8274 34.6403ZM27.6143 37.1216L27.5534 37.1577L27.5023 37.1939C27.2997 37.3338 27.1204 37.5083 26.9715 37.7103C26.9132 37.8004 26.8603 37.8944 26.8133 37.9917C26.8133 38.0278 26.8132 38.0588 26.8595 38.0588C27.0956 37.6559 27.4471 37.3437 27.8626 37.1681C27.8762 37.17 27.89 37.1679 27.9024 37.162C27.9149 37.1561 27.9256 37.1465 27.9332 37.1345L27.9113 36.977C27.8075 37.0133 27.7079 37.0618 27.6143 37.1216ZM34.1392 29.2518C34.5816 27.5159 34.7938 25.7232 34.7698 23.9253L35.0133 3.06828C34.7607 2.95241 34.5058 2.84222 34.2488 2.73779C32.3803 2.00008 30.4544 1.43764 28.4932 1.05695C22.2538 -0.192485 15.8491 -0.192485 9.60972 1.05695C7.11124 1.57326 4.67516 2.38475 2.34704 3.47623L1.7408 3.75766L2.00375 24.075C1.90636 32.3217 8.37777 41.4283 16.0081 45.1205C16.781 45.4657 17.5855 45.7252 18.4087 45.895C18.4999 45.9151 18.5934 45.9212 18.6863 45.9131C19.4716 45.7209 20.229 45.4179 20.9383 45.012L21.4667 44.7538C24.4741 43.2383 27.1528 41.0784 29.3339 38.4103C31.515 35.7422 33.1512 32.6239 34.1392 29.2518ZM34.1806 23.9666H24.9824L24.9239 19.4456H34.1952L34.1806 23.9666ZM34.2853 14.6328L18.7812 14.6018V10.4475L34.2804 10.4888L34.2853 14.6328ZM2.52477 4.40831C3.29188 3.948 4.10963 3.58985 4.95946 3.34197C5.58031 3.138 6.2815 2.93402 7.03626 2.73521C8.93539 2.24448 10.8584 1.86437 12.7967 1.59657C13.3494 1.51395 14.0141 1.42875 14.7274 1.3642L15.2558 1.31772C16.3352 1.22305 17.4097 1.17055 18.4793 1.16023H19.5506C24.5279 1.25984 29.4658 2.11898 34.2123 3.71119L34.2439 6.4842L34.2683 8.11341V8.85701H34.2293C32.0151 7.90838 29.7131 7.20913 27.3611 6.7708C24.2739 6.12978 21.1331 5.82439 17.9875 5.85937C16.611 5.86494 15.2362 5.95892 13.8704 6.1408C10.3312 6.5932 6.85715 7.50187 3.52543 8.84668L3.28196 8.96029L2.88754 9.14102L2.58321 9.2727L2.54912 8.10308L2.52477 4.40831ZM2.92163 23.9046V23.9227L2.58077 9.54897L2.67816 9.49991L3.27709 9.21848C3.56763 9.08766 3.86142 8.96287 4.15845 8.8441C5.19617 8.42735 6.25246 8.06458 7.32355 7.7571C10.2154 6.93816 13.1767 6.42529 16.1639 6.226L16.8091 6.19244H17.9656V14.6406C16.0811 14.6406 14.2892 14.6741 12.7748 14.7464L12.3025 14.7748C12.4924 14.2404 13.1303 14.0751 13.6051 13.8712C12.7894 13.3393 11.9251 13.7214 11.4917 14.9917C11.0243 14.9952 10.5576 15.0158 10.0918 15.0537H9.95788C10.0102 14.6562 10.1598 14.2803 10.3918 13.9632C10.6237 13.6461 10.9299 13.3989 11.2799 13.2463L11.3676 13.2128H11.3067C10.2476 12.9985 9.45634 13.9021 9.35895 15.1079L7.89814 15.4823C7.91556 15.0984 8.00433 14.722 8.15934 14.3746C8.31435 14.0272 8.53255 13.7157 8.80141 13.458C7.85188 13.3005 7.27973 14.4908 7.38198 15.7172L6.08673 16.2879C5.97115 15.9178 5.95175 15.5215 6.03059 15.1408C6.10942 14.76 6.28357 14.4088 6.53471 14.1242C6.10864 14.1242 5.13963 14.6638 5.40745 16.5667L4.38244 17.1089C4.3021 16.7449 4.18036 16.5486 4.01967 16.4712C3.6496 16.3188 3.17484 16.7965 3.82733 17.4601C3.63365 17.511 3.45314 17.6071 3.29901 17.7415C3.21137 17.8093 3.15232 17.9108 3.13456 18.0243C3.1168 18.1378 3.14176 18.2541 3.20405 18.3482C3.23117 18.3863 3.26312 18.4202 3.29901 18.4489L3.35013 18.4851C3.50778 18.5371 3.67726 18.5321 3.83194 18.4709C3.98662 18.4097 4.11774 18.2957 4.20471 18.1469C4.33131 18.4928 4.41653 18.7071 4.78173 18.6891C5.14694 18.671 5.40501 18.3715 4.88642 17.6563C6.39016 16.7901 8.00397 16.1587 9.6779 15.7818C10.4674 15.6306 11.2732 15.5985 12.0712 15.6863V16.1484C11.2293 15.8724 10.3305 15.8572 9.48069 16.1045C8.04123 16.4646 6.65053 17.0163 5.34171 17.7467L5.37336 17.8319L5.40988 17.9067C6.64454 17.1976 7.96391 16.6687 9.33217 16.3343C10.221 16.0599 11.1653 16.0599 12.0542 16.3343V18.2966C11.874 18.3982 11.716 18.5387 11.5902 18.709C11.4644 18.8793 11.3736 19.0757 11.3237 19.2855L9.73876 19.4843C9.77067 19.0482 9.89713 18.6258 10.1083 18.25C10.3195 17.8743 10.6096 17.5553 10.9561 17.318C10.3304 17.189 9.17635 17.8628 9.19583 19.6573L7.91761 20.0756C7.82482 19.8533 7.78098 19.6115 7.78942 19.3686C7.79786 19.1257 7.85835 18.888 7.96631 18.6736C8.02808 18.5461 8.09974 18.4244 8.18056 18.3095C8.29986 18.1262 8.42403 17.9635 8.52629 17.8189H8.44594C7.85675 17.8732 7.12391 18.3973 7.31381 19.838C7.33031 19.9937 7.35633 20.1481 7.39172 20.3002L6.96565 20.5171L6.27176 20.8321C6.1462 20.4652 6.10069 20.073 6.13864 19.6848C6.17659 19.2967 6.29703 18.9227 6.49089 18.591C5.53892 18.5625 5.16885 19.6883 5.74344 21.1471L5.01303 21.6919C4.74765 21.1316 4.42383 20.9818 4.18523 21.0748C3.89551 21.1884 3.73238 21.6635 4.3021 22.1592C3.67638 22.3606 3.50839 22.7195 3.7056 23.1119C3.83464 23.3934 4.21445 23.4398 4.7793 22.7969C5.02277 23.1042 5.16885 23.2901 5.55109 23.2023C5.84326 23.1326 6.13299 22.8176 5.48536 22.1695C5.80024 21.9458 6.1062 21.7401 6.40324 21.5524C6.58827 21.4319 6.77331 21.3218 6.95835 21.222C8.52345 20.3199 10.2919 19.8903 12.0712 19.98V20.3493C9.97117 20.2396 7.89212 20.836 6.13055 22.0533L6.06481 22.0972L5.82135 22.2444L5.84326 22.3244C5.95923 22.4881 6.04814 22.6714 6.1062 22.8667C6.06053 22.6994 5.99508 22.5389 5.91143 22.389C6.4568 22.0843 7.046 21.7513 7.67658 21.4517C8.24373 21.179 8.82978 20.9529 9.42956 20.7753C9.58051 20.7357 9.73227 20.6995 9.88484 20.6668C10.3507 20.5807 10.8218 20.5306 11.2945 20.5171C11.5497 20.5165 11.8045 20.5372 12.0566 20.579V23.9356H3.2917V23.9098L2.92163 23.9046ZM3.46213 29.195H13.8777C15.0537 30.3596 16.5802 31.0455 18.1871 31.1315V33.4062H5.12259C4.41315 32.0762 3.85262 30.6629 3.45239 29.195H3.46213ZM18.1969 45.1669C16.2113 44.5805 14.3445 43.6117 12.6896 42.3087C11.3042 41.293 10.0338 40.1113 8.90366 38.7869H18.1944L18.1969 45.1669ZM12.4583 24.8832C12.4583 24.785 12.4437 24.6895 12.4388 24.594V15.1828H17.968V15.1621H24.4662V24.7153H24.4467C24.4134 26.2528 23.8325 27.7198 22.8207 28.8215C21.809 29.9232 20.4414 30.5779 18.993 30.6538C17.4049 30.8073 15.8243 30.2857 14.5989 29.2035C13.3734 28.1213 12.6034 26.5673 12.4583 24.8832ZM19.0831 44.9939V45.0146H19.0198V31.3045L19.2852 31.2683L19.4313 31.2477C19.8879 31.1821 20.3383 31.075 20.7777 30.9275C20.9367 30.8707 21.099 30.8079 21.2646 30.739C21.7802 30.5131 22.2611 30.2068 22.6913 29.8302L22.8471 29.7811C23.9038 29.4274 24.9921 29.0633 26.039 28.818C26.6906 28.6491 27.36 28.5702 28.0306 28.5831C28.9767 28.6147 29.8992 28.9046 30.7088 29.4248C31.0454 29.6656 31.3704 29.9241 31.6826 30.1994L31.8019 30.3052C31.9066 30.4008 32.0308 30.4524 32.0673 30.2355L32.0917 29.9205L32.0405 30.1581C32.0302 30.1712 32.0175 30.1821 32.0032 30.19C31.9889 30.1979 31.9732 30.2028 31.9572 30.2042C31.9411 30.2056 31.9249 30.2037 31.9095 30.1984C31.8941 30.1932 31.8799 30.1847 31.8677 30.1736V30.1581C31.7511 30.0704 31.6381 29.9774 31.5292 29.8792C31.3249 29.6947 31.1111 29.5224 30.8889 29.3628L30.7745 29.2957L30.7136 29.2518C30.3027 28.9795 29.8587 28.7675 29.394 28.6218L29.209 28.5702H29.1895C27.7029 28.286 26.1723 28.4141 24.7462 28.942C24.4874 29.0172 24.2301 29.0981 23.9744 29.1847C23.7309 29.2673 23.4461 29.3551 23.2075 29.4429L23.0273 29.5048L22.8471 29.5771L22.8642 29.5616C23.1514 29.2974 23.4147 29.0053 23.6506 28.6889C23.5922 28.7612 23.5459 28.8439 23.4875 28.9162L23.765 28.818C25.4081 28.1473 27.1795 27.9064 28.929 28.1158C29.97 28.2888 30.9283 28.8205 31.6559 29.6288C31.6927 29.3112 31.6328 28.9894 31.4847 28.7106C31.3366 28.4319 31.1082 28.2107 30.8329 28.0796C30.8255 28.0626 30.8217 28.0441 30.8217 28.0254C30.8217 28.0067 30.8255 27.9882 30.8329 27.9712C31.1672 27.4977 31.6592 27.1773 32.2085 27.0752C32.0593 26.9357 31.88 26.837 31.6865 26.788C31.4929 26.7389 31.291 26.7409 31.0983 26.7938C30.873 26.8778 30.6657 27.0085 30.4885 27.1783C30.3113 27.3481 30.1677 27.5535 30.066 27.7827H30.0027L28.89 27.305C28.8785 27.2801 28.8724 27.2527 28.8724 27.225C28.8724 27.1972 28.8785 27.1698 28.89 27.1449C29.0207 26.8261 29.2151 26.5412 29.4597 26.3098C29.7044 26.0785 29.9935 25.9062 30.307 25.8049C30.0933 25.6465 29.8393 25.5604 29.5785 25.5581C29.3177 25.5558 29.0624 25.6374 28.8462 25.792C28.3994 26.1822 28.0764 26.7086 27.921 27.2999C27.5292 27.2992 27.1375 27.2786 26.7475 27.2379C26.7818 26.8824 26.8955 26.5407 27.0793 26.2412C27.2631 25.9417 27.5116 25.693 27.8042 25.5157V25.4744C27.5383 25.4039 27.2601 25.4046 26.9945 25.4762C26.7289 25.5479 26.4843 25.6883 26.2825 25.8849C25.9099 26.3395 25.6876 26.9107 25.6495 27.5116L24.4321 27.8292L24.2227 27.886C24.0642 28.1383 23.8919 28.3806 23.7066 28.6115C23.937 28.2962 24.1368 27.9571 24.3031 27.5994C24.7079 26.6972 24.9444 25.7205 24.9994 24.7231H34.1538C33.6668 29.2535 31.9985 33.5503 29.3363 37.131C26.6742 40.7117 23.1236 43.4346 19.0831 44.9939ZM30.9936 50.1604H27.4219V49.0682L26.9374 49.0708V51.7586H27.4219V50.6742H30.9936V51.7586H31.4781V49.0682H30.9936V50.1604ZM37 49.5872V49.0734H32.228V51.7277H37V51.2138H32.7125V50.6381H37V50.1243H32.7125V49.5872H37ZM29.2918 27.0546V27.0701L29.338 27.1088H29.3599C29.5095 26.8551 29.707 26.6369 29.94 26.4681C30.173 26.2992 30.4364 26.1833 30.7136 26.1277C30.7337 26.1028 30.7447 26.0712 30.7447 26.0386C30.7447 26.0059 30.7337 25.9743 30.7136 25.9495C30.4833 25.9839 30.2607 26.0617 30.0563 26.1793C29.7309 26.3916 29.4665 26.6943 29.2918 27.0546ZM32.7515 27.2301C32.7484 27.246 32.7407 27.2604 32.7296 27.2715C32.6955 27.3153 32.62 27.3102 32.5543 27.3283C32.3504 27.3565 32.1508 27.412 31.9602 27.4935H31.9383C31.7572 27.5666 31.5917 27.6772 31.4513 27.8188C31.42 27.8513 31.3915 27.8868 31.3661 27.9247C31.3696 27.9391 31.3759 27.9526 31.3848 27.9642C31.3936 27.9758 31.4047 27.9852 31.4173 27.9918H31.4513C31.8002 27.6961 32.2238 27.5165 32.6687 27.4754C32.7193 27.4511 32.7605 27.4092 32.7855 27.3567V27.2301H32.7515ZM27.2247 39.3653L27.176 39.4195C27.0859 39.4841 27.0372 39.3963 26.9691 39.3575C26.6043 38.9829 26.1467 38.7259 25.6495 38.6165L25.5156 38.5907H25.2356C25.0969 38.5817 24.9579 38.5817 24.8192 38.5907H24.7998L24.6147 38.6114H24.5904L24.42 38.6398H24.3713L24.213 38.6785L24.1546 38.6966L24.0061 38.7405L23.9403 38.7611L23.7991 38.8102L23.7285 38.836L23.5897 38.8928L23.5289 38.9212L23.3803 38.9883L23.3341 39.009L23.171 39.0942H23.1296C22.7708 39.2839 22.4314 39.5124 22.1167 39.7758L22.0632 39.8249L22.1679 39.9178C22.7947 39.2636 23.6189 38.8646 24.4957 38.7909C25.3724 38.7173 26.2456 38.9737 26.9618 39.515C27.0592 39.5873 27.1444 39.7009 27.2271 39.5434C27.3388 39.393 27.3896 39.2017 27.3684 39.0116V38.9935L27.215 39.3446L27.2247 39.3653ZM21.7199 49.4349V51.2422C21.7199 51.4617 21.7564 51.7147 22.1021 51.7147H26.1827V51.2138H22.3772C22.2531 51.2138 22.2019 51.1622 22.2019 50.9789V49.8196C22.2019 49.7034 22.2409 49.5614 22.4138 49.5614H26.1924V49.0992H22.1167C22.069 49.0859 22.0191 49.0846 21.9709 49.0954C21.9226 49.1062 21.8774 49.1288 21.8389 49.1614C21.8003 49.194 21.7695 49.2357 21.7488 49.2832C21.7282 49.3307 21.7183 49.3826 21.7199 49.4349ZM20.9627 35.7996C21.0365 35.9553 21.1549 36.0821 21.301 36.1618C21.447 36.2416 21.6132 36.2702 21.7755 36.2435C21.9379 36.2168 22.088 36.1362 22.2045 36.0133C22.3209 35.8904 22.3976 35.7315 22.4235 35.5595C22.3597 35.6858 22.2718 35.7965 22.1654 35.8848C22.0832 35.9556 21.9886 36.0085 21.8871 36.0404C21.7856 36.0723 21.6791 36.0826 21.5738 36.0707C21.5104 36.063 21.4482 36.0465 21.3888 36.0217C21.2145 35.9386 21.0672 35.803 20.9651 35.6318H20.9383C20.8375 35.7082 20.7278 35.7707 20.6121 35.8177C20.495 35.8717 20.3665 35.8922 20.2396 35.8771C20.1463 35.8602 20.057 35.8242 19.9766 35.7712L19.9206 35.7299L19.9012 35.7118C19.713 35.5219 19.576 35.2821 19.5043 35.0173C19.5189 35.7686 20.225 36.4787 20.9627 35.7996ZM19.9426 34.1653C19.8092 34.0068 19.7184 33.8133 19.6796 33.605C19.6652 33.8269 19.7285 34.0466 19.8573 34.2221L19.9426 34.1653ZM20.3881 31.9448C20.4395 32.012 20.503 32.0677 20.5748 32.1089C20.6465 32.1501 20.7253 32.1758 20.8064 32.1847C20.8876 32.1936 20.9697 32.1854 21.0479 32.1606C21.1261 32.1358 21.1989 32.095 21.2622 32.0403C21.34 31.9759 21.4025 31.8931 21.4448 31.7985C21.4871 31.7039 21.5079 31.6002 21.5056 31.4955V31.48C21.458 31.647 21.3551 31.79 21.2159 31.8828L21.1623 31.9086C21.1277 31.9288 21.0909 31.9444 21.0528 31.9551C20.9398 31.9757 20.8238 31.9688 20.7137 31.9348C20.6036 31.9008 20.5022 31.8406 20.4173 31.7589H20.4027C20.3505 31.8146 20.2905 31.8617 20.225 31.8983C20.1352 31.9547 20.03 31.9773 19.9265 31.9623C19.8231 31.9473 19.7275 31.8956 19.6553 31.8157C19.5636 31.7144 19.4996 31.5885 19.4702 31.4516C19.4483 32.1358 20.001 32.394 20.3881 31.9448ZM23.3268 32.2314H23.3389C23.4063 31.7007 23.6275 31.2053 23.972 30.8139C23.9794 30.7914 23.9808 30.7673 23.9761 30.744C23.9713 30.7208 23.9606 30.6994 23.9452 30.6822C23.8557 30.7852 23.7743 30.8957 23.7017 31.0127L23.6579 31.0798C23.4922 31.3425 23.3856 31.6419 23.3463 31.9551C23.3351 32.0468 23.3286 32.139 23.3268 32.2314ZM19.8403 31.7098C19.8706 31.7386 19.9071 31.7588 19.9467 31.7688C19.9862 31.7787 20.0275 31.7779 20.0667 31.7666C20.1838 31.6841 20.2759 31.5676 20.3321 31.431C20.3337 31.412 20.3467 31.412 20.3711 31.431C20.4585 31.5848 20.5936 31.7016 20.7533 31.7615C20.9286 31.8183 21.1696 31.7615 21.1234 31.4387C21.0864 31.2771 21.0202 31.1245 20.9286 30.9895L20.8507 31.0179C20.4605 31.1317 20.0667 31.2307 19.6699 31.3148C19.6702 31.3896 19.6858 31.4634 19.7156 31.5312C19.7455 31.5989 19.7888 31.659 19.8427 31.7072L19.8403 31.7098ZM22.4795 35.4175C22.4795 35.4872 22.4357 35.495 22.4259 35.5518C22.4477 35.5089 22.4657 35.4639 22.4795 35.4175ZM19.9109 40.0908L20.0083 39.9798C19.9228 39.9287 19.8479 39.8598 19.7881 39.7773C19.7283 39.6948 19.6848 39.6003 19.6601 39.4996C19.6465 39.6115 19.662 39.7253 19.7049 39.8285C19.7478 39.9318 19.8165 40.0207 19.9036 40.0857L19.9109 40.0908ZM22.2166 37.0209C22.2433 36.9718 22.2166 36.9279 22.163 36.9073V36.9228C22.0946 37.0133 22.0411 37.1155 22.0047 37.2249L21.9877 37.2713L21.9682 37.3565C21.9707 37.3972 21.964 37.4379 21.9487 37.4753V37.6586C21.966 37.4204 22.0607 37.1934 22.2166 37.0209ZM3.62039 21.9372C3.64456 22.0073 3.67818 22.0734 3.72021 22.1334L3.79325 22.0972C3.69885 21.9519 3.62503 21.7927 3.57413 21.6247C3.57433 21.7308 3.58993 21.8361 3.62039 21.9372ZM23.6165 36.8815L23.5897 36.9641C23.5571 37.0971 23.5448 37.2349 23.5532 37.372C23.6461 36.8969 23.8977 36.4733 24.2617 36.1792C24.2749 36.153 24.2818 36.1237 24.2818 36.094C24.2818 36.0642 24.2749 36.035 24.2617 36.0088C24.0613 36.1842 23.8887 36.3925 23.7504 36.6258L23.6506 36.8221L23.6165 36.8815ZM21.81 36.9951C21.548 37.1656 21.36 37.4388 21.2867 37.7553C21.2133 38.0719 21.2605 38.4063 21.418 38.6862C21.4766 38.7864 21.5478 38.8777 21.6298 38.9573L20.8994 39.6209C20.7948 39.3681 20.607 39.1644 20.3711 39.0477C20.3154 39.0292 20.2561 39.0261 20.199 39.0388C20.1419 39.0514 20.0888 39.0795 20.0448 39.1201C20.0008 39.1608 19.9674 39.2128 19.9478 39.2711C19.9282 39.3294 19.923 39.3921 19.9328 39.4531C20.0439 39.6989 20.2313 39.8967 20.4636 40.0134C20.1982 40.2251 20.0984 40.2948 20.0083 40.5736C19.9885 40.6431 19.9879 40.7172 20.0066 40.787C20.0253 40.8568 20.0625 40.9194 20.1137 40.9675C20.165 41.0156 20.2281 41.0471 20.2958 41.0583C20.3634 41.0695 20.4326 41.0599 20.4952 41.0306C20.7458 40.86 20.9411 40.6123 21.0552 40.3206C21.202 40.5775 21.4257 40.7748 21.6907 40.8809C21.7314 40.8904 21.7736 40.8912 21.8147 40.8833C21.8557 40.8755 21.8949 40.8591 21.93 40.8351C21.9651 40.8111 21.9953 40.78 22.019 40.7435C22.0427 40.7071 22.0594 40.666 22.068 40.6227C22.0823 40.566 22.0823 40.5064 22.068 40.4497C21.9194 40.2065 21.7093 40.0124 21.4618 39.8894C22.2866 39.072 23.3133 38.5196 24.4224 38.2964C24.888 38.2236 25.3626 38.2503 25.8184 38.3749C26.2741 38.4995 26.7018 38.7195 27.0762 39.0219C27.176 38.632 26.7962 38.3248 26.3823 38.0976C26.5936 37.5665 26.9665 37.1257 27.4414 36.8453C26.7402 36.427 26.1194 37.1448 25.8808 37.8265C25.5711 37.6903 25.2417 37.6117 24.9069 37.5941C24.9501 37.2504 25.0796 36.9253 25.2817 36.6528C25.4839 36.3803 25.7513 36.1704 26.0561 36.0449C24.9653 35.8203 24.4029 36.9305 24.2495 37.6586L23.2756 37.891C23.1734 37.543 23.1775 37.1696 23.2872 36.8242C23.3969 36.4788 23.6068 36.1789 23.8868 35.9674C23.0078 36.0965 22.46 36.8815 22.8033 38.1595L21.9439 38.6243C21.7945 38.3864 21.704 38.1125 21.6806 37.8278C21.6572 37.5431 21.7017 37.2568 21.81 36.9951ZM25.2648 37.3488H25.3403C25.4624 37.1151 25.6299 36.9116 25.8318 36.7518C26.0337 36.592 26.2654 36.4795 26.5113 36.4219C26.5303 36.3951 26.5406 36.3624 26.5406 36.3289C26.5406 36.2954 26.5303 36.2628 26.5113 36.236C26.3851 36.2533 26.2615 36.288 26.1437 36.3393C25.909 36.4565 25.7057 36.634 25.5521 36.8556C25.4474 36.999 25.3498 37.1481 25.2599 37.3023L25.2648 37.3488ZM25.4206 31.6788C25.4224 31.7284 25.4175 31.7779 25.406 31.826V31.9835C25.5585 31.2487 25.9684 30.6028 26.5527 30.1761C26.5575 30.1646 26.56 30.1523 26.5601 30.1397C26.5602 30.1272 26.5579 30.1147 26.5533 30.1032C26.5488 30.0916 26.5421 30.0811 26.5336 30.0723C26.5251 30.0636 26.5151 30.0567 26.504 30.0522C25.9631 30.4309 25.5763 31.0116 25.4206 31.6788ZM22.3992 33.2771L21.2208 33.938C21.0576 33.4216 20.7971 33.1635 20.5975 33.0989C20.1787 33.0292 19.9523 33.4552 20.0034 33.4914C19.9693 33.7883 20.2079 34.0078 20.4246 34.1911C20.1812 34.3847 19.9377 34.7075 19.9377 34.8882C19.926 34.9494 19.9257 35.0125 19.937 35.0738C19.9483 35.1351 19.9709 35.1934 20.0034 35.2454C20.036 35.2975 20.0779 35.3422 20.1268 35.377C20.1757 35.4119 20.2305 35.4361 20.2883 35.4485C20.347 35.46 20.4073 35.46 20.466 35.4485C20.6931 35.3251 20.878 35.1291 20.9943 34.8882C21.0942 35.2109 21.2378 35.5698 21.5957 35.6137C21.6583 35.6158 21.7207 35.6046 21.7793 35.5808C21.8378 35.5571 21.8913 35.5212 21.9366 35.4753C21.9819 35.4294 22.0182 35.3744 22.0432 35.3135C22.0683 35.2526 22.0817 35.187 22.0826 35.1206C22.0206 34.8681 21.8766 34.6469 21.6761 34.4957C23.0004 33.6444 24.4864 33.1153 26.0268 32.9466C26.6641 32.8189 27.3215 32.8641 27.9379 33.0781C28.5542 33.292 29.1096 33.6678 29.5523 34.1704C29.5218 33.8279 29.4215 33.4966 29.2584 33.1992C29.0953 32.9019 28.8733 32.6457 28.6076 32.4483C28.8818 32.0048 29.2907 31.674 29.7665 31.511C29.1895 31.0282 28.4956 31.3638 28.0403 32.2675L26.8717 32.1668C26.8854 31.7935 27.002 31.4326 27.2071 31.1288C27.4122 30.825 27.6968 30.5916 28.0257 30.4576C26.8254 29.7992 26.2947 31.4026 26.1315 32.2365L25.0018 32.456C24.9303 32.0088 24.977 31.5493 25.1369 31.1286C25.2968 30.7079 25.5636 30.3424 25.9075 30.0729C24.9483 30.14 24.3055 30.8784 24.2763 32.5954L23.059 32.9827C22.9438 32.6243 22.9111 32.2418 22.9636 31.8672C23.0161 31.4926 23.1523 31.1368 23.3609 30.8294C23.1576 30.893 22.9682 30.9986 22.8036 31.1401C22.639 31.2816 22.5024 31.4563 22.4017 31.6541C22.301 31.8518 22.2382 32.0687 22.2168 32.2923C22.1955 32.5159 22.2161 32.7418 22.2774 32.9569C22.3066 33.0681 22.3475 33.1755 22.3992 33.2771ZM14.9027 3.02956L14.9733 3.0941C14.9867 3.02356 14.9861 2.95083 14.9714 2.88058C14.9567 2.81033 14.9284 2.74411 14.8881 2.68616H14.8516L13.0012 2.92628V3.26193L14.7834 3.0373L14.9027 3.02956ZM33.5062 6.6417C32.4885 6.33014 31.4684 6.02892 30.4458 5.73802V5.13126L33.4892 6.1124V5.31974L30.4848 4.35668V3.76799L33.4892 4.71298V3.97455L29.7422 2.9082V6.26473L33.5062 7.45501V6.6417ZM30.6601 4.0391V4.21209L33.645 5.17515L33.6669 5.04089C33.5987 5.01249 33.5233 4.9686 33.4721 4.95052C32.5467 4.6068 31.6086 4.30275 30.6601 4.0391ZM30.6381 5.58568L33.6766 6.49969V6.41449C32.6736 6.04441 31.6607 5.70789 30.6381 5.40495V5.58568ZM20.8385 50.5864C20.8425 50.5343 20.8365 50.4819 20.8208 50.4323C20.8052 50.3827 20.7802 50.337 20.7475 50.2979C20.7147 50.2588 20.6748 50.2272 20.6302 50.2049C20.5856 50.1826 20.5372 50.1701 20.4879 50.1682H16.9868C16.9664 50.1692 16.9459 50.1659 16.9266 50.1586C16.9073 50.1512 16.8896 50.1399 16.8745 50.1253C16.8593 50.1107 16.847 50.093 16.8383 50.0733C16.8296 50.0537 16.8247 50.0324 16.8237 50.0107V49.8144C16.8207 49.7913 16.8221 49.7677 16.8278 49.7452C16.8336 49.7226 16.8436 49.7016 16.8572 49.6832C16.8709 49.6649 16.8879 49.6497 16.9072 49.6385C16.9266 49.6273 16.9479 49.6204 16.9698 49.6182H20.8166V49.1018H16.775C16.5632 49.1018 16.3514 49.218 16.3514 49.453V50.2947C16.3417 50.3907 16.3679 50.4869 16.4244 50.5627C16.4808 50.6384 16.563 50.6878 16.6533 50.7H20.0107C20.1081 50.7 20.354 50.6742 20.354 50.8317V51.0564C20.354 51.1596 20.3199 51.2397 20.1471 51.2397H16.3514V51.7561H20.4295C20.5325 51.7624 20.6336 51.7252 20.7107 51.6526C20.7878 51.58 20.8347 51.4779 20.841 51.3688V51.312L20.8385 50.5864ZM15.6088 50.62V49.5149C15.6088 49.1999 15.4846 49.014 15.2412 49.014H10.8368V51.6579H11.3237V51.0279H14.82L15.0829 51.6321H15.6526L15.3629 51.0409C15.4438 51.0122 15.5126 50.9544 15.5575 50.8775C15.6025 50.8007 15.6206 50.7096 15.6088 50.62ZM15.1389 50.2508C15.1389 50.4083 15.0756 50.4883 14.9149 50.4883H11.3335V49.5123H14.9149C15.0634 49.5123 15.1389 49.595 15.1389 49.7241V50.2508ZM15.1535 4.81884C15.0897 4.66244 15.008 4.51501 14.91 4.37991C14.8346 4.25598 14.7615 4.21467 14.6666 4.23016L13.2058 4.37217C13.1035 4.35409 13.0183 4.44704 13.0305 4.51159V4.76979C13.2678 4.69634 13.5136 4.65811 13.7609 4.65618C14.3793 4.60196 14.4913 4.58389 14.7518 4.57356C14.9703 4.75553 15.1323 5.00288 15.2168 5.28359L15.2339 5.3404L15.2947 5.55728C15.6663 5.49386 16.0411 5.45334 16.4171 5.43593V5.39462H16.3976L16.3003 5.11319C15.9627 5.13076 15.6263 5.16696 15.2923 5.22163C15.2613 5.082 15.2147 4.94679 15.1535 4.81884ZM20.13 4.9531C19.4954 4.98065 18.8599 5.00216 18.2237 5.01765L17.2498 5.05638C17.0282 5.05638 16.814 5.07704 16.5949 5.0822V5.36105L20.0959 5.28359C20.2061 5.28514 20.3129 5.24361 20.396 5.16693C20.4791 5.09025 20.5326 4.98379 20.5464 4.8679V4.53225C20.4928 4.74655 20.3978 4.9402 20.13 4.9531ZM26.1656 4.67942C26.8035 4.81884 27.383 4.91696 28.0671 5.03573V4.7104C27.4341 4.58991 26.7986 4.47114 26.1608 4.35409L26.1656 4.67942ZM21.5519 5.42302L24.9872 5.78191V5.45917H24.9118L21.4107 5.07704C21.2903 5.06265 21.179 5.00232 21.0974 4.90731C21.0159 4.8123 20.9697 4.68909 20.9676 4.56065V4.89372C20.9806 5.04535 21.049 5.18558 21.1582 5.28447C21.2673 5.38336 21.4086 5.43308 21.5519 5.42302ZM24.8338 5.25519V4.6536L22.1192 4.3954C22.0562 4.38791 21.9955 4.36602 21.9413 4.33126C21.8871 4.29649 21.8406 4.24966 21.8051 4.19401V2.54673C21.8602 2.46839 21.9287 2.40181 22.0072 2.3505C22.8788 2.39181 23.9087 2.52866 24.8606 2.67583V2.06907L21.7442 1.75149C21.5421 1.76698 21.2573 1.81604 21.194 2.08198L21.1672 4.63294C21.1802 4.70272 21.2123 4.76689 21.2595 4.81741C21.3067 4.86793 21.3669 4.90255 21.4326 4.91696L24.8338 5.25519ZM21.9901 2.55964V2.86689L22.0291 2.83849V2.82042C23.02 2.9082 24.0596 3.02439 24.9142 3.17931H25.0067L25.0213 3.16123V2.84365C24.0417 2.66152 23.0533 2.5374 22.0607 2.47185C22.0434 2.47968 22.0279 2.49168 22.0157 2.50692C22.0034 2.52215 21.9947 2.5402 21.9901 2.55964ZM25.983 5.42044V4.16561L28.2595 4.59938L28.2765 5.89035L28.9412 6.01429V2.6939L28.2668 2.51575L28.2887 3.92807L26.0074 3.52787L25.9879 2.17751L25.3865 2.06649L25.4011 5.34298L25.983 5.42044ZM12.8722 5.32749L12.8454 4.42381H12.8722C12.9063 4.35962 12.9569 4.30707 13.0181 4.27231C13.0794 4.23756 13.1487 4.22204 13.2179 4.22758L14.7591 4.07008C14.8776 4.10656 14.9829 4.18039 15.061 4.2818C15.2139 4.51129 15.3391 4.76025 15.4335 5.02282L16.1639 4.94536C16.0291 4.60956 15.8721 4.28429 15.694 3.97197C15.6586 3.89934 15.6126 3.83311 15.5577 3.77574C15.665 3.67729 15.7681 3.57391 15.8669 3.4659L15.9107 3.36004L15.8669 2.15427C15.8484 2.06633 15.8086 1.98502 15.7514 1.91844C15.6942 1.85186 15.6215 1.80231 15.5406 1.77473H15.3166L12.2051 2.13878L12.2879 5.4256C12.4844 5.40549 12.6795 5.37272 12.8722 5.32749ZM13.0767 2.70165C13.1035 2.68616 14.7469 2.48735 14.7469 2.48735H14.9612C15.0293 2.52893 15.087 2.5874 15.1292 2.65775C15.1885 2.81235 15.2038 2.98204 15.173 3.14574C15.1 3.28775 15.0683 3.40394 14.8881 3.47107L13.1473 3.68537L12.9574 3.71377C12.9324 3.70177 12.9105 3.68353 12.8935 3.6606C12.8765 3.63768 12.8651 3.61074 12.86 3.58209V2.84107C12.884 2.80207 12.9159 2.76928 12.9534 2.74514C12.9909 2.72101 13.0331 2.70614 13.0767 2.70165ZM17.0721 3.595L19.57 3.6234C19.6249 3.65697 19.6722 3.70274 19.7088 3.75756C19.7454 3.81238 19.7703 3.87496 19.7819 3.94098C19.7875 3.99995 19.7783 4.05943 19.7552 4.1134C19.7321 4.16737 19.6959 4.21389 19.6504 4.24823L16.775 4.34118L16.758 4.90147L20.1665 4.79819C20.2123 4.78512 20.2544 4.76043 20.2892 4.72624C20.324 4.69205 20.3504 4.6494 20.3662 4.60196L20.3832 3.17156C20.3467 3.06054 20.2858 3.02181 20.1179 2.98308L17.615 3.03988C17.5682 3.02184 17.5253 2.99404 17.4888 2.95812C17.4524 2.9222 17.423 2.87889 17.4026 2.83075C17.3822 2.78261 17.3711 2.73062 17.3699 2.67785C17.3688 2.62507 17.3776 2.57259 17.3959 2.52349L17.4129 2.4796C17.461 2.39116 17.5297 2.31735 17.6126 2.2653L20.3905 2.2937V1.74374L17.1134 1.71793C17.0386 1.72841 16.9671 1.75719 16.9046 1.80199C16.8421 1.8468 16.7902 1.90641 16.7531 1.97612C16.7289 2.40594 16.7216 2.83663 16.7312 3.26709C16.7549 3.35054 16.7982 3.42627 16.8569 3.48721C16.9157 3.54816 16.988 3.59235 17.0672 3.61566L17.0721 3.595ZM16.9625 4.04168L19.5627 3.99262V3.81447C19.5415 3.80121 19.5245 3.7814 19.514 3.75766L17.0794 3.73443C16.9519 3.71577 16.8328 3.65635 16.738 3.56409C16.6431 3.47183 16.5771 3.35112 16.5486 3.21804V3.53303C16.5694 3.6489 16.6186 3.75692 16.6912 3.84622C16.7639 3.93551 16.8574 4.00293 16.9625 4.04168ZM33.6888 8.04111V7.69771L29.5498 6.38092V6.70883C30.3436 6.94379 31.1689 7.22522 31.9456 7.46018C32.5956 7.66415 33.2067 7.86554 33.6888 8.04111ZM17.6199 2.68099L17.6539 2.73005L20.1568 2.70165C20.2353 2.72845 20.3125 2.75948 20.3881 2.7946L20.5683 2.7662V2.44345H20.5488L20.4246 2.46927L17.7051 2.4228C17.6636 2.44741 17.6321 2.48724 17.6164 2.53479C17.6007 2.58234 17.6019 2.63434 17.6199 2.68099ZM28.0817 6.36027C28.4323 6.39984 28.7798 6.46628 29.1213 6.55908V6.22342C29.0873 6.22342 28.0866 6.0272 28.0866 6.0272L28.0817 6.36027ZM26.1705 5.63474C25.8593 5.55711 25.5425 5.50787 25.2234 5.48757V5.8258C25.5353 5.84353 25.8454 5.88669 26.151 5.9549L26.1705 5.63474ZM7.79101 6.20793H7.76423C7.79925 6.24302 7.84136 6.26916 7.88735 6.28438C7.93333 6.29959 7.98199 6.30347 8.02961 6.29572L8.41916 6.20793C9.45634 5.97814 10.8539 5.69154 11.1338 5.58568C11.2438 5.54399 11.3394 5.46833 11.4084 5.36847C11.4774 5.2686 11.5166 5.14911 11.521 5.0254L11.4577 2.75329C11.4319 2.66353 11.3825 2.58347 11.3152 2.5226C11.2478 2.46174 11.1655 2.42262 11.0778 2.40989H10.8539L8.03448 3.01406C7.91959 3.0606 7.81717 3.13621 7.73612 3.23431C7.65507 3.33241 7.59786 3.45003 7.56945 3.57693L7.69362 6.05818C7.70788 6.11897 7.74249 6.1722 7.79101 6.20793ZM8.58716 3.53562L10.3231 3.18189H10.5885C10.6391 3.21332 10.6829 3.25581 10.7169 3.30656C10.7509 3.35731 10.7744 3.41514 10.7857 3.47623L10.8027 4.69749C10.8184 4.79087 10.7989 4.88706 10.7484 4.96531C10.6978 5.04356 10.6203 5.09759 10.5325 5.11577H10.5154L8.66506 5.51855H8.46299C8.41539 5.49562 8.37448 5.45957 8.3445 5.41415C8.31453 5.36874 8.29659 5.31563 8.29256 5.26036L8.26334 3.85836C8.33638 3.63631 8.44594 3.60791 8.57498 3.53562H8.58716ZM6.14759 4.78528V4.81368C6.14759 4.77237 6.17438 4.73106 6.17438 4.69233C6.17438 4.6536 6.15003 4.57872 6.15246 4.52192H6.13055V4.4393L3.99289 5.15191V5.47724L6.08673 4.78528H6.14759ZM9.0254 17.9661C9.05705 17.9042 9.05705 17.8706 9.0254 17.8319H8.99131C8.7686 18.0218 8.59167 18.2652 8.47516 18.5419C8.62046 18.3129 8.80756 18.1171 9.0254 17.9661ZM6.81713 5.74576L5.42449 6.20277L4.04402 6.65719V6.97477L6.4008 6.20019L6.88774 6.03752C6.98031 6.01233 7.06325 5.95735 7.12515 5.88014C7.18706 5.80293 7.2249 5.70728 7.23347 5.60634L7.25294 5.32749C7.22129 5.57794 6.98756 5.66572 6.81713 5.74576ZM10.1648 18.8698C10.1362 18.9534 10.1158 19.0399 10.104 19.128H10.1332C10.4042 18.4781 10.8464 17.9249 11.4065 17.5349C11.4309 17.5169 11.426 17.4833 11.4211 17.4213C11.4163 17.3594 11.4211 17.3878 11.4211 17.3852H11.3944C10.8472 17.7302 10.4168 18.2498 10.1648 18.8698ZM3.28196 8.4155C3.52136 8.32286 3.76516 8.24357 4.01237 8.17796V7.82165C3.62614 7.94357 3.24586 8.08575 2.87293 8.24767L2.89485 8.55492C3.03444 8.51017 3.16348 8.46369 3.28196 8.4155ZM3.28196 7.90427L3.85899 7.70804L3.83707 6.55391L4.91808 6.18986L6.86583 5.53921C6.91986 5.51915 6.96826 5.48498 7.00655 5.43985C7.04485 5.39473 7.07181 5.3401 7.08495 5.28101L7.0606 3.64922C7.04875 3.59943 7.02542 3.55353 6.99269 3.51568C6.95997 3.47782 6.91888 3.44918 6.87313 3.43234C6.78907 3.39899 6.69993 3.38236 6.61019 3.38328C6.17783 3.46481 5.75328 3.58752 5.34171 3.74992C4.57235 4.00811 3.62282 4.3102 2.96302 4.53999L3.00197 7.99206L3.28196 7.90427ZM3.82977 5.06413C3.84604 5.03273 3.8683 5.00527 3.89513 4.98348C3.92195 4.9617 3.95276 4.94608 3.98559 4.93761L6.12081 4.22241C6.30341 4.19401 6.36428 4.42639 6.36428 4.59938C6.37712 4.69466 6.37189 4.7917 6.34889 4.8848C6.3259 4.97791 6.2856 5.06521 6.23037 5.14159L4.03915 5.89293C3.96124 5.89293 3.86385 5.92133 3.83707 5.81806L3.82977 5.06413ZM8.12943 19.3681C8.18057 19.0904 8.28499 18.8267 8.4362 18.5935C8.36073 18.7304 8.21221 18.8078 8.16839 18.9627C8.13525 19.0948 8.1221 19.2317 8.12943 19.3681ZM7.89083 6.77338C8.39937 6.72163 8.90329 6.62753 9.39791 6.49195C9.66085 6.44031 9.92624 6.37318 10.1916 6.31379L10.6493 6.21051C10.8279 6.17265 11.004 6.12531 11.1777 6.06851C11.4869 5.94457 11.5891 5.78966 11.6816 5.38171V5.07187C11.6594 5.21585 11.6037 5.35169 11.5195 5.46709C11.4354 5.5825 11.3254 5.67384 11.1996 5.73285L9.10818 6.1976L7.97118 6.4558C7.88357 6.46329 7.79587 6.44268 7.71946 6.39663C7.64304 6.35059 7.58145 6.28124 7.54267 6.1976L7.51589 6.14597V6.20277C7.54754 6.48678 7.73745 6.76305 7.89083 6.77338ZM3.44509 23.4631C3.51023 23.5939 3.61428 23.6982 3.74108 23.7598C3.86788 23.8215 4.01032 23.837 4.14628 23.8039H4.17306C4.31718 23.7736 4.45493 23.7158 4.57965 23.6335C4.6426 23.5958 4.7014 23.5507 4.75495 23.4992C4.8491 23.6204 4.97217 23.7126 5.11134 23.7662C5.25052 23.8198 5.40069 23.8328 5.54623 23.8039L5.6777 23.7652C5.7818 23.7346 5.87636 23.6752 5.95166 23.5931C6.02697 23.511 6.08031 23.409 6.1062 23.2978C5.94278 23.4872 5.71589 23.6011 5.4742 23.6151C5.23252 23.6291 4.99528 23.5421 4.81338 23.3727L4.76226 23.3211C4.32645 23.5999 3.6423 23.9743 3.355 23.0396C3.35641 23.186 3.38711 23.3303 3.44509 23.4631ZM9.95058 49.0063H5.69231C5.62774 49.0063 5.56581 49.0335 5.52015 49.0819C5.47449 49.1303 5.44884 49.196 5.44884 49.2645V51.3688C5.44884 51.4027 5.45514 51.4362 5.46737 51.4676C5.47961 51.4989 5.49754 51.5274 5.52015 51.5513C5.54276 51.5753 5.5696 51.5943 5.59914 51.6073C5.62867 51.6203 5.66033 51.627 5.69231 51.627H9.94815C10.0106 51.6236 10.0694 51.595 10.1125 51.5469C10.1555 51.4988 10.1795 51.4351 10.1794 51.3688V49.2671C10.1802 49.2007 10.1568 49.1367 10.1142 49.0881C10.0716 49.0396 10.013 49.0103 9.95058 49.0063ZM9.52451 51.1312H6.11594C6.07109 51.1355 6.02645 51.1209 5.99178 51.0904C5.95711 51.0599 5.93523 51.0161 5.93091 50.9686V49.6311C5.93523 49.5836 5.95711 49.5398 5.99178 49.5093C6.02645 49.4788 6.07109 49.4641 6.11594 49.4685H9.52451C9.56936 49.4641 9.614 49.4788 9.64867 49.5093C9.68334 49.5398 9.70523 49.5836 9.70955 49.6311V50.9686C9.70523 51.0161 9.68334 51.0599 9.64867 51.0904C9.614 51.1209 9.56936 51.1355 9.52451 51.1312ZM13.0524 5.83097L13.028 5.46691C12.7403 5.50026 12.4559 5.56074 12.1783 5.64765C12.1729 5.74111 12.1794 5.83492 12.1978 5.9265C12.4777 5.85655 12.7649 5.82445 13.0524 5.83097ZM6.12568 23.2746C6.12568 23.2746 6.10864 23.2875 6.1062 23.2978H6.12568V23.2746ZM9.59999 3.87127L10.289 3.73443H10.3109C10.3811 3.72351 10.4525 3.72351 10.5227 3.73443L10.5763 3.88418V3.58984C10.5706 3.51346 10.549 3.43937 10.513 3.37295H10.3864L8.70158 3.69312C8.60341 3.72078 8.51735 3.78376 8.45812 3.87127L8.44351 4.20176C8.497 4.14006 8.56385 4.09309 8.63828 4.06492C8.95627 3.98672 9.2771 3.92212 9.59999 3.87127ZM6.18898 23.2049C6.18898 23.223 6.1622 23.223 6.15733 23.241L6.18898 23.2049ZM4.34592 49.0192H0V51.6631H0.486938V51.046H4.4287C4.5323 51.0362 4.6281 50.9835 4.69549 50.8995C4.76288 50.8155 4.79647 50.7068 4.78904 50.5968V49.4091C4.78904 49.0295 4.49931 49.0192 4.34592 49.0192ZM4.28262 50.225C4.28262 50.4083 4.22175 50.4832 4.08298 50.4832H0.486938V49.4943H4.04889C4.22419 49.4943 4.29236 49.5872 4.29236 49.6905L4.28262 50.225ZM6.94374 18.6839C6.96322 18.6297 6.96809 18.6194 6.90965 18.5548C6.71688 18.7036 6.56958 18.9092 6.48602 19.1461C6.40525 19.3671 6.36957 19.6039 6.38132 19.8406C6.41711 19.3913 6.61935 18.9754 6.94374 18.6839ZM6.15733 23.1248C6.16086 23.0527 6.15008 22.9806 6.12568 22.9131C6.15256 23.0319 6.15256 23.1558 6.12568 23.2746C6.12568 23.2591 6.1549 23.2591 6.15733 23.241C6.16145 23.2024 6.16145 23.1635 6.15733 23.1248Z" fill="#222222"/>
</svg>
