<svg width="82" height="73" viewBox="0 0 82 73" fill="none" xmlns="http://www.w3.org/2000/svg">
<path d="M70.0458 47.5472L70.0121 47.6478C65.809 60.7345 54.2212 69.5104 41.157 69.5104C28.0928 69.5104 16.4848 60.7165 12.2986 47.6334L12.2649 47.5293H3.08692V48.7111L6.90573 49.1889C9.26509 49.4763 9.76056 50.5899 10.4043 51.9909L10.5661 52.3357C16.087 64.8908 28.1063 72.9986 41.1705 72.9986C54.2346 72.9986 66.2573 64.8908 71.7782 52.3537L71.94 52.0124C72.5804 50.6114 73.0792 49.4978 75.4386 49.2068L79.2608 48.7255V47.5472H70.0458ZM12.2986 26.1983C16.5016 13.1116 28.0928 4.32126 41.157 4.32126C54.2212 4.32126 65.8259 13.1116 70.0154 26.1983L70.0491 26.2989H79.2439V25.1206L75.4218 24.6428C73.0624 24.3518 72.5669 23.2418 71.9232 21.8372L71.7647 21.4924C66.2438 8.97327 54.2178 0.865479 41.157 0.865479C28.076 0.865479 16.0702 8.97326 10.5493 21.5283L10.3875 21.8696C9.74708 23.2706 9.24824 24.3842 6.88887 24.6751L3.07007 25.1529V26.3348H12.2514L12.2986 26.1983ZM59.0208 31.8956L53.146 41.9361H55.6806L56.7255 40.1399H63.5777L64.6226 41.9361H67.1404L61.2656 31.8956H59.0208ZM62.5025 38.2396H57.8007L60.16 34.2019L62.5025 38.2396ZM71.9737 34.4102L78.9541 41.9361H81.5864V31.8956H79.5169V39.3855L72.5669 31.8956H69.8874V41.9361H71.9737V34.4102ZM0.693848 41.9361H2.7802V34.4102L9.77741 41.9361H12.4098V31.8956H10.3234V39.3855L3.37342 31.8956H0.693848V41.9361ZM17.0173 31.8956H19.1037V41.9361H17.0139L17.0173 31.8956ZM32.1375 39.813C32.0701 39.831 31.8139 39.831 31.7195 39.831H23.4213V41.8858H31.8476C31.9117 41.8858 32.4105 41.8858 32.5049 41.8678C34.2238 41.6954 35.0092 40.1723 35.0092 38.8395C35.0092 37.4709 34.1901 36.0016 32.6329 35.8471C32.3296 35.8112 32.0734 35.8112 31.9588 35.8112H26.4548C26.2504 35.8142 26.0462 35.7974 25.8447 35.7609C25.4099 35.6388 25.2515 35.2293 25.2515 34.888C25.2515 34.5791 25.4099 34.1695 25.8582 34.033C26.0487 33.9909 26.2435 33.974 26.4379 33.9827H34.3822V31.9639H26.3098C25.9728 31.9639 25.7166 31.9783 25.5077 32.0142C24.8495 32.0989 24.2447 32.4422 23.8115 32.977C23.3782 33.5118 23.1478 34.1997 23.1651 34.906C23.1651 36.1381 23.8864 37.575 25.4739 37.8157C25.7638 37.848 26.1649 37.848 26.3435 37.848H31.7027C31.8004 37.848 32.0397 37.848 32.0869 37.866C32.697 37.9486 32.906 38.43 32.906 38.8575C32.9126 39.0902 32.8376 39.3172 32.6954 39.4939C32.5532 39.6707 32.3543 39.7845 32.1375 39.813ZM47.834 39.813C47.7666 39.831 47.5104 39.831 47.3992 39.831H39.1178V41.8858H47.5441C47.6082 41.8858 48.107 41.8858 48.2014 41.8678C49.9204 41.6954 50.7057 40.1723 50.7057 38.8395C50.7057 37.4709 49.8867 36.0016 48.3295 35.8471C48.0261 35.8112 47.77 35.8112 47.6554 35.8112H42.1513C41.9469 35.8142 41.7427 35.7974 41.5412 35.7609C41.1064 35.6388 40.948 35.2293 40.948 34.888C40.948 34.5791 41.1064 34.1695 41.5547 34.033C41.7453 33.9909 41.94 33.974 42.1345 33.9827H50.0788V31.9639H42.0064C41.6693 31.9639 41.4132 31.9783 41.2042 32.0142C40.546 32.0989 39.9412 32.4422 39.508 32.977C39.0748 33.5118 38.8443 34.1997 38.8617 34.906C38.8617 36.1381 39.583 37.575 41.1739 37.8157C41.4604 37.848 41.8614 37.848 42.0401 37.848H47.3992C47.497 37.848 47.7363 37.848 47.7835 37.866C48.3935 37.9486 48.6025 38.43 48.6025 38.8575C48.6019 39.0881 48.5242 39.311 48.3834 39.4861C48.2426 39.6613 48.0478 39.7771 47.834 39.813Z" fill="#222222"/>
</svg>
