<svg width="66" height="63" viewBox="0 0 66 63" fill="none" xmlns="http://www.w3.org/2000/svg">
<path d="M33 0.522949C14.7758 0.522949 0 14.3888 0 31.4908C0 48.5929 14.7758 62.4587 33 62.4587C51.2243 62.4587 66 48.5929 66 31.4908C66 14.3888 51.2243 0.522949 33 0.522949ZM33 2.53586C50.039 2.53586 63.8522 15.4985 63.8522 31.4908C63.8522 47.4806 50.0418 60.4433 33 60.4433C15.9583 60.4433 2.14775 47.4806 2.14775 31.4908C2.14775 15.5011 15.961 2.53586 33 2.53586ZM31.1355 4.16168C30.2298 4.19953 29.3205 4.26662 28.4075 4.36297L28.1132 11.9604C28.7608 11.8577 29.412 11.7768 30.0657 11.7178L30.2583 6.5875L30.2225 6.23395L30.3407 6.56943L32.1667 10.412H33.8333L35.6592 6.57201L35.7692 6.23395L35.7417 6.5875L35.9342 11.7178C36.5723 11.7746 37.235 11.8572 37.8867 11.9604L37.587 4.36297C36.6803 4.26758 35.7705 4.20044 34.859 4.16168L33.0632 8.35525L33 8.66493L32.9368 8.35525L31.1355 4.16168ZM49.5495 8.8688L45.3063 15.1346C45.8425 15.5217 46.5492 16.0921 47.003 16.4817L50.9987 14.5359L51.2517 14.3579L51.062 14.6004L48.994 18.3501C49.4422 18.8018 50.0885 19.5321 50.4515 19.976L57.134 15.9914C56.7243 15.4938 56.3025 15.0051 55.869 14.5256L51.6367 17.1424L51.348 17.3798L51.5625 17.083L53.4325 13.5837L52.1125 12.3449L48.3835 14.0998L48.0672 14.3011L48.3175 14.0275L51.117 10.0559C50.622 9.66364 50.1517 9.30493 49.5495 8.8688ZM15.125 10.2907C14.135 10.3862 13.3705 11.0211 11.2942 13.194C10.5743 13.9597 9.88007 14.7463 9.2125 15.5527L14.916 20.6289C16.8053 18.6676 17.5725 17.9398 19.063 16.4663C20.1163 15.4211 20.713 14.2211 19.657 13.0675C19.085 12.443 18.1225 12.3062 17.3195 12.6159L17.2425 12.6417L17.27 12.5746C17.3692 12.2322 17.3587 11.8699 17.2398 11.5331C17.121 11.1962 16.8991 10.8997 16.6018 10.6804C16.3954 10.527 16.1585 10.4137 15.9049 10.3473C15.6514 10.2808 15.3862 10.2599 15.125 10.2907ZM15.1415 11.8778C15.5155 11.7824 15.9033 12.0327 15.9885 12.394C16.0765 12.7553 15.8345 13.0959 15.565 13.3798C14.96 14.025 12.7298 16.2134 12.7298 16.2134L11.6243 15.225C12.771 13.9088 13.992 12.7114 14.5448 12.2366C14.7106 12.0743 14.9151 11.9514 15.1415 11.8778ZM33 13.1243C28.1556 13.1223 23.4827 14.8071 19.8859 17.8524C16.2892 20.8978 14.0244 25.0872 13.53 29.6095V29.6147C13.2193 32.4839 13.6324 35.3814 14.7359 38.073C15.8394 40.7646 17.6025 43.1747 19.8824 45.1085C22.1623 47.0423 24.8952 48.4454 27.86 49.2045C30.8249 49.9636 33.9384 50.0573 36.949 49.478C41.3623 48.6277 45.3273 46.3731 48.1735 43.0956C51.0197 39.8181 52.5723 35.7188 52.569 31.4908C52.5654 26.6217 50.5024 21.953 46.8332 18.5103C43.164 15.0675 38.1887 13.1322 33 13.1295V13.1243ZM17.7732 13.7488C17.9052 13.7471 18.0336 13.7841 18.1583 13.8598C18.4003 14.0121 18.5103 14.2727 18.4498 14.5308C18.3783 14.8379 18.106 15.1269 17.886 15.3514L15.0122 18.2417L13.8573 17.2095C13.8573 17.2095 16.0215 15.0624 16.731 14.3733C17.0115 14.0998 17.193 13.9346 17.3855 13.8443C17.5036 13.7835 17.6385 13.7507 17.7732 13.7488ZM33 15.5372C35.2332 15.5348 37.4451 15.9459 39.5088 16.7468C41.5725 17.5477 43.4477 18.7227 45.0268 20.2046C46.606 21.6865 47.8581 23.4462 48.7116 25.3828C49.565 27.3195 50.003 29.3951 50.0005 31.4908H33V47.4445C30.7668 47.4468 28.5549 47.0358 26.4912 46.2349C24.4275 45.434 22.5523 44.259 20.9732 42.7771C19.394 41.2952 18.1419 39.5355 17.2884 37.5989C16.435 35.6622 15.997 33.5866 15.9995 31.4908H33V15.5372Z" fill="#222222"/>
</svg>
