<svg width="84" height="21" viewBox="0 0 84 21" fill="none" xmlns="http://www.w3.org/2000/svg">
<path d="M48.5871 18.5487C48.5894 18.7181 48.6367 18.8053 48.729 18.8101C48.8031 18.8044 48.8735 18.7739 48.9298 18.723L74.8289 1.10091C75.2664 0.779645 75.7908 0.614203 76.3247 0.628957H82.017C82.8895 0.628957 83.4781 1.23887 83.4781 2.15373V13.5496C83.4781 14.9292 83.1873 15.7279 82.0239 16.4576L75.1198 20.8141C75.0509 20.8636 74.971 20.8936 74.8878 20.9012C74.8047 20.9012 74.7216 20.8322 74.7216 20.5817V7.28351C74.7216 7.12741 74.6801 7.02576 74.5796 7.02576C74.5055 7.03145 74.4351 7.06199 74.3788 7.11288L55.4531 20.0045C55.0249 20.3109 54.5172 20.4719 53.9989 20.4656H41.4509C40.5715 20.4656 39.9898 19.8557 39.9898 18.9335V2.50951C39.9898 2.38971 39.9379 2.27717 39.8374 2.27717C39.7645 2.28361 39.6954 2.31412 39.6401 2.3643L27.151 10.2169C27.0264 10.304 26.9918 10.3657 26.9918 10.4275C26.9918 10.4783 27.0195 10.5327 27.1026 10.6271L36.0253 19.9755C36.143 20.0989 36.2261 20.1933 36.2261 20.2986C36.2261 20.3857 36.0911 20.4547 35.9353 20.4547H27.8712C27.2376 20.4547 26.7494 20.3603 26.4066 20.0009L20.9983 14.3374C20.9774 14.3122 20.952 14.2914 20.9234 14.2765C20.8949 14.2615 20.8639 14.2526 20.8321 14.2503C20.7732 14.2533 20.7159 14.272 20.6659 14.3047L11.6289 20.0045C11.1968 20.3089 10.6846 20.4637 10.1643 20.4474H1.85093C0.961086 20.4547 0.379395 19.8375 0.379395 18.9263V7.74458C0.379395 6.36502 0.67024 5.56633 1.84055 4.84024L8.79314 0.458327C8.84688 0.42189 8.90921 0.401781 8.97319 0.400238C9.08399 0.400238 9.13939 0.509152 9.13939 0.763281V15.7351C9.13939 15.8912 9.17401 15.9639 9.28135 15.9639C9.35613 15.9522 9.42727 15.9224 9.48909 15.8767L32.9506 1.06824C33.4052 0.746492 33.9472 0.588489 34.4949 0.618065H47.1259C47.9984 0.618065 48.5871 1.22798 48.5871 2.14284L48.5801 18.5451L48.5871 18.5487Z" fill="#222222"/>
</svg>
