<svg width="90" height="37" viewBox="0 0 90 37" fill="none" xmlns="http://www.w3.org/2000/svg">
<path d="M41.9333 13.4584C41.963 13.2695 42.0124 13.0005 41.8394 12.8574C41.7677 12.8013 41.6854 12.7657 41.5994 12.7538C41.5134 12.7418 41.4262 12.7538 41.3451 12.7888C41.0862 12.9484 40.8823 13.2058 40.7672 13.5181C40.6521 13.8304 40.6327 14.1789 40.7123 14.5058C40.9726 14.4545 41.2187 14.3329 41.4309 14.151C41.643 13.969 41.8152 13.7317 41.9333 13.4584ZM58.2763 24.4987C59.5872 23.7637 60.6735 22.5839 61.3907 21.1162L60.9655 20.956C61.1929 20.4351 61.4896 19.7655 61.2078 19.1817C61.1055 19.0366 60.9726 18.9245 60.8219 18.8563C60.6712 18.7881 60.5078 18.7661 60.3476 18.7925C59.4909 19.0375 58.7074 19.5461 58.08 20.2645C57.4526 20.9829 57.0046 21.8843 56.7834 22.8733C56.7071 23.1503 56.7054 23.4477 56.7787 23.7258C56.852 24.0039 56.9968 24.2496 57.1937 24.43C57.3609 24.5252 57.5429 24.5804 57.729 24.5922C57.915 24.604 58.1012 24.5722 58.2763 24.4987ZM44.9834 31.4468C65.4443 31.4468 82.0345 25.5117 82.0345 18.1859C82.0345 10.86 65.4443 4.92491 44.9834 4.92491C24.5225 4.92491 7.93237 10.86 7.93237 18.1859C7.93237 25.5117 24.5176 31.4468 44.9834 31.4468ZM62.32 18.3118C62.4382 18.5628 62.5232 18.8329 62.5722 19.1131L66.4182 12.9204L68.7811 13.0978L62.2657 23.686C62.1619 23.9607 61.9938 24.2984 62.1619 24.6189C62.2483 24.7591 62.3741 24.8603 62.5178 24.9051C63.084 24.8955 63.6302 24.6611 64.0651 24.2412C64.9104 23.5143 65.6865 22.5986 66.4725 21.7859C66.6307 21.6657 66.7691 21.5054 66.9669 21.5512C67.1646 21.597 67.4859 21.8259 67.5453 22.1235L67.5156 22.2552C65.9386 23.9722 64.3172 26.4103 61.9542 26.645C61.665 26.677 61.3734 26.6288 61.1034 26.5044C60.8335 26.38 60.5931 26.183 60.402 25.9295C60.1795 25.5639 60.0891 25.1121 60.1499 24.6704C59.5961 25.3661 58.8907 25.8762 58.1078 26.1471C57.3249 26.4181 56.4935 26.4398 55.7008 26.21C55.2598 25.9258 54.9045 25.4921 54.6827 24.9672C54.4609 24.4424 54.3832 23.8514 54.46 23.2739C54.5273 22.9009 54.6267 22.5366 54.7566 22.1865C53.7679 22.8676 52.6457 23.9035 51.2962 23.3312C51.0101 23.1886 50.7639 22.9569 50.5849 22.6618C50.406 22.3667 50.3014 22.0199 50.2828 21.6599C50.2602 21.4375 50.2602 21.2127 50.2828 20.9903L47.0399 26.2787H44.929C44.8895 26.2501 44.8153 26.21 44.8302 26.147L44.8895 25.9467L48.2659 20.4122C48.4488 19.9773 48.7602 19.4393 48.4933 18.9299C48.2263 18.6838 47.8605 18.9299 47.5886 19.0043C46.2319 19.9761 45.0434 21.2318 44.0837 22.7073C42.7589 24.5788 40.9446 26.9483 38.4087 26.4675C37.8635 26.3517 37.3591 26.0554 36.9564 25.6146C36.5537 25.1737 36.27 24.6072 36.1396 23.9836C36.1462 23.9378 36.133 23.9054 36.1001 23.8863C35.5935 24.4691 35.0426 24.9978 34.4539 25.466C34.3517 25.4955 34.2447 25.4955 34.1425 25.466C33.9278 25.2566 33.7915 24.9592 33.7618 24.6361C33.8607 24.2641 34.2562 24.1152 34.5083 23.8234C36.2681 21.8946 36.7773 19.0158 39.338 17.8425C39.9905 17.5113 40.697 17.3473 41.4093 17.3617C41.5141 17.3701 41.6151 17.4106 41.7019 17.4789C41.7888 17.5473 41.8584 17.6412 41.9037 17.7509C41.9537 17.8241 41.9875 17.9103 42.0021 18.0021C42.0168 18.0939 42.0118 18.1884 41.9877 18.2774C41.7356 18.535 41.3549 18.535 41.0583 18.6838C40.3194 18.9845 39.659 19.4988 39.1399 20.1779C38.6208 20.857 38.2602 21.6785 38.0923 22.5642C38.0464 22.9139 38.0949 23.2714 38.2312 23.588C38.3674 23.9045 38.5848 24.1646 38.8536 24.3327C39.2414 24.4911 39.658 24.53 40.0628 24.4457C40.4675 24.3614 40.8463 24.1568 41.1621 23.852C41.6735 23.3785 42.0984 22.7922 42.4124 22.1271C42.7264 21.4619 42.9232 20.7312 42.9912 19.9773C42.9957 19.4059 42.8946 18.8399 42.6946 18.3175C42.6946 17.9569 43.0505 17.6822 43.3323 17.5334C43.4506 17.4691 43.5798 17.4357 43.7105 17.4357C43.8412 17.4357 43.9703 17.4691 44.0887 17.5334C44.2983 17.7934 44.4602 18.0999 44.5647 18.4343C44.6692 18.7688 44.7141 19.1243 44.6967 19.4793C44.7076 19.6708 44.6976 19.8631 44.667 20.0517C46.0611 18.8212 47.2327 16.6177 49.2743 16.9325C49.5251 16.9704 49.7614 17.0901 49.9557 17.2776C50.15 17.465 50.2943 17.7125 50.3718 17.9913C50.4477 18.3678 50.4477 18.7595 50.3718 19.1359C50.7282 18.5122 51.2176 18.0055 51.7926 17.6646C52.3676 17.3238 53.0087 17.1603 53.6542 17.19C53.9271 17.2402 54.1839 17.3723 54.399 17.5731C54.6141 17.774 54.78 18.0365 54.8802 18.3347C54.943 18.6009 54.9494 18.8807 54.8989 19.1504C54.8485 19.4201 54.7426 19.6717 54.5903 19.884C54.438 20.0963 54.2437 20.2629 54.024 20.3698C53.8042 20.4767 53.5655 20.5207 53.3279 20.4981C53.1548 20.4859 52.9864 20.4279 52.8356 20.3287C52.6848 20.2295 52.5556 20.0917 52.4579 19.9258C52.3703 19.7625 52.3239 19.5742 52.3239 19.3821C52.3239 19.1899 52.3703 19.0016 52.4579 18.8383C51.9932 18.8956 51.6966 19.4507 51.5582 19.8571C51.4 20.4294 51.1775 21.1792 51.6422 21.6714C51.9487 22.135 52.5568 21.9747 52.9918 21.906C55.7947 20.9159 57.4705 17.024 60.8222 17.4476C61.1132 17.4432 61.401 17.5194 61.6615 17.6697C61.922 17.82 62.1478 18.0401 62.32 18.3118ZM23.4103 17.791C24.0285 17.317 24.7678 17.101 25.5063 17.1786C25.5916 17.2013 25.672 17.244 25.7426 17.3041C25.8131 17.3641 25.8723 17.4402 25.9166 17.5277C25.9412 17.5987 25.95 17.6758 25.9422 17.7517C25.9344 17.8277 25.9103 17.9002 25.8721 17.9627C25.18 18.6437 24.2408 19.0386 23.7613 19.9544C23.5421 20.3167 23.4208 20.7463 23.4129 21.1885C23.405 21.6308 23.5108 22.0658 23.7168 22.4383C24.14 22.9163 24.6705 23.2475 25.2481 23.3942C25.8256 23.5408 26.4271 23.4972 26.9844 23.2682C29.8513 21.722 32.304 19.3074 34.0831 16.28C33.0331 16.3133 32.0096 16.6688 31.1171 17.3102C31.0658 17.3371 31.0102 17.351 30.9539 17.351C30.8977 17.351 30.8421 17.3371 30.7908 17.3102C30.6672 17.2415 30.6524 17.0927 30.6227 16.9611C30.6919 16.2972 31.4137 16.0167 31.9031 15.8164C32.8919 15.505 33.9001 15.283 34.9186 15.1525C36.4489 12.7553 38.4345 10.7971 40.7222 9.42917C37.0739 8.54206 31.6806 7.24858 28.9617 10.8943C28.7669 11.1415 28.6286 11.4412 28.5595 11.7661C28.4904 12.091 28.4928 12.4308 28.5663 12.7544C28.6925 12.9963 28.87 13.1969 29.082 13.3371C29.2939 13.4773 29.5333 13.5526 29.7774 13.5557C30.4304 13.4569 31.0598 13.2081 31.6285 12.8238C32.1973 12.4395 32.694 11.9275 33.0895 11.3179C33.1949 11.229 33.3264 11.192 33.4553 11.2149C33.569 11.2149 33.6234 11.3751 33.663 11.461C33.5573 12.4699 33.1243 13.3947 32.4518 14.0479C31.8954 14.7825 31.1767 15.3278 30.3728 15.6252C29.5689 15.9227 28.7103 15.9611 27.889 15.7363C27.4424 15.5798 27.0442 15.2772 26.7426 14.865C26.4409 14.4528 26.2485 13.9484 26.1885 13.4126C26.1548 12.4202 26.3922 11.4408 26.867 10.6136C27.3419 9.78643 28.0299 9.15368 28.8332 8.80533C31.5831 7.4368 34.6084 6.98485 37.5683 7.50041L39.7335 7.75796L45.8189 8.69086C49.0545 9.25695 52.3499 9.17759 55.5624 8.45621C55.9035 8.45621 56.3385 8.29595 56.6054 8.57067C56.6679 8.62881 56.7137 8.70756 56.7366 8.79648C56.7596 8.8854 56.7587 8.98031 56.734 9.0686C56.5906 9.7783 55.8442 10.2591 55.2806 10.6082C52.3069 11.805 49.0814 11.8752 46.071 10.8085L41.4686 9.56081C41.4241 9.76685 41.5082 10.0244 41.3994 10.2018C39.6082 11.3608 38.0826 12.9995 36.9503 14.9808C37.9642 14.9677 38.9756 14.8644 39.9757 14.6717C39.9056 14.2538 39.9459 13.821 40.0914 13.43C40.2369 13.039 40.4809 12.7078 40.7914 12.4797C41.1702 12.207 41.6236 12.109 42.0619 12.205C42.2136 12.2664 42.3518 12.366 42.4663 12.4966C42.5809 12.6273 42.669 12.7857 42.7243 12.9605C42.7878 13.278 42.7692 13.6101 42.6707 13.9155C42.5722 14.2208 42.3983 14.4858 42.1706 14.6775C41.8715 14.9619 41.5272 15.1757 41.1572 15.307V15.3471C41.4353 15.5494 41.6953 15.7833 41.9333 16.0453C41.9381 16.0924 41.9344 16.1401 41.9225 16.1854C41.9106 16.2307 41.8907 16.2726 41.8641 16.3086C41.7475 16.4138 41.6012 16.4649 41.4538 16.4517C40.9347 16.4116 40.6233 15.8794 40.2575 15.5074C38.967 15.7074 37.6711 15.8582 36.372 15.9595L35.5415 17.1786L33.2873 20.8129C32.4832 22.4581 31.3227 23.8322 29.92 24.7997C28.5174 25.7672 26.9212 26.2947 25.2888 26.3302C24.4554 26.2659 23.6529 25.9399 22.9674 25.3873C22.282 24.8348 21.7395 24.0764 21.3983 23.1938C21.157 22.1625 21.2245 21.067 21.5899 20.0858C21.9552 19.1047 22.5969 18.2958 23.4103 17.791ZM45.023 33.885C66.8235 33.885 84.4914 26.8224 84.4914 18.1057C84.4914 9.38911 66.8285 2.33224 45.023 2.33224C23.2175 2.33224 5.55458 9.39483 5.55458 18.1057C5.55458 26.8167 23.2274 33.885 45.023 33.885ZM44.9834 3.72301C66.0869 3.72301 83.2011 10.1961 83.2011 18.1859C83.2011 26.1756 66.0869 32.6487 44.9834 32.6487C23.8799 32.6487 6.76572 26.1642 6.76572 18.1859C6.76572 10.2075 23.875 3.72301 44.9834 3.72301ZM11.022 27.0113L9.35608 25.7693C8.22436 25.0346 7.2364 24.0363 6.45449 22.8375C5.67258 21.6387 5.1137 20.2653 4.81306 18.804L4.11604 18.6781L4.19513 19.4565C4.79906 21.2085 5.72118 22.7898 6.89904 24.0933C8.0769 25.3967 9.48298 26.3919 11.022 27.0113ZM77.4964 28.03C79.9476 27.1529 82.1401 25.5043 83.8289 23.2682C85.0775 21.7328 85.8301 19.7456 85.9596 17.6422C85.7124 17.6879 85.4356 17.6422 85.218 17.7223C85.1241 19.5595 84.5228 21.3131 83.5027 22.7245C81.9001 25.0287 79.8392 26.8491 77.4964 28.03ZM88.1841 16.6348L88.11 16.921C87.9864 17.625 87.2597 17.2587 86.8098 17.4189C86.6269 17.4189 86.5627 17.6422 86.533 17.7852C86.5072 18.9999 86.2036 20.1848 85.6531 21.2192C84.3293 23.9527 82.3262 26.1622 79.9039 27.5607C74.5111 30.3542 68.807 32.2594 62.9578 33.2211C52.1126 35.436 41.0312 35.6292 30.1333 33.7934C22.9791 32.8187 16.0172 30.4583 9.53899 26.8109C7.18927 25.4782 5.256 23.3319 4.00728 20.6698C3.67113 20.1433 3.80955 19.4107 3.6217 18.8212C3.43385 18.2317 2.69727 18.5464 2.26225 18.3232C2.16651 18.2519 2.08428 18.1589 2.02054 18.0497C1.95681 17.9404 1.91291 17.8174 1.89149 17.6879L1.72342 18.2603C1.84977 19.819 2.43231 21.281 3.37452 22.404C7.26374 26.9911 12.2437 30.1349 17.6808 31.4354C30.2172 35.3686 43.2797 36.5431 56.1902 34.898C64.2563 34.0058 72.1686 31.7677 79.6814 28.2532C82.2213 27.0576 84.5315 25.2913 86.4786 23.0564C87.9518 21.3223 89.2667 18.9642 88.1841 16.6348ZM45.0773 0.329071C20.5085 0.329071 0.586426 8.49055 0.586426 18.5522C0.586426 28.6138 20.5085 36.7753 45.0773 36.7753C69.6462 36.7753 89.5683 28.6195 89.5683 18.5522C89.5683 8.48482 69.6512 0.329071 45.0773 0.329071ZM45.0773 36.4147C20.9979 36.4147 1.08077 28.402 1.08077 18.5522C1.08077 8.70231 20.988 0.695365 45.0773 0.695365C69.1667 0.695365 89.0097 8.70803 89.0097 18.5522C89.0097 28.3963 69.1519 36.4147 45.0773 36.4147Z" fill="#222222"/>
</svg>
