<svg width="78" height="36" viewBox="0 0 78 36" fill="none" xmlns="http://www.w3.org/2000/svg">
<path d="M13.8776 0.846252V19.2391C13.8776 21.6337 12.4492 23.0557 10.136 23.0557C7.82608 23.0557 6.60033 21.1845 6.60033 19.1648V15.8754H0.478027V19.2427C0.478027 22.6807 1.43031 28.8176 10.2068 28.8176C18.9801 28.8176 20.2058 22.2315 20.2058 19.0906V0.849789L13.8776 0.846252ZM29.6997 8.47222C23.9152 8.47222 21.335 14.3013 21.335 19.3169C21.335 24.3255 24.2595 29.1854 30.2434 29.1854C35.481 29.2632 38.9523 25.5245 38.9523 22.755H33.1678C33.1678 22.755 32.489 24.5518 30.4461 24.5518C28.4064 24.5518 27.2514 23.2785 27.2514 20.2118H39.0199C39.0199 10.5662 34.667 8.47222 29.6997 8.47222ZM48.5106 8.46869C42.7293 8.46869 40.1459 14.2978 40.1459 19.3134C40.1459 24.3219 43.0703 29.1819 49.0575 29.1819C54.2951 29.2597 57.7632 25.521 57.7632 22.7515H51.9852C51.9852 22.7515 51.3031 24.5483 49.2634 24.5483C47.2205 24.5483 46.0655 23.275 46.0655 20.2083H57.8308C57.8308 10.5626 53.4811 8.46515 48.5138 8.46515M70.2073 8.68798C67.27 8.68798 65.967 10.4459 65.8963 10.5343C65.4845 11.0791 64.9729 11.6556 64.9729 10.2585V9.21148H59.1177V35.0146H65.0373V27.9085C65.0373 27.385 65.5134 27.4629 65.8577 27.9085C66.1987 28.3613 67.6915 29.479 70.2813 29.479C74.9752 29.479 77.6937 24.994 77.6937 18.8607C77.6937 10.934 73.1381 8.68798 70.2073 8.68798ZM30.3142 12.6495C32.489 12.6495 33.4381 14.4464 33.4381 16.3175H27.4541C27.4541 14.2943 28.2037 12.6531 30.311 12.6531M49.1186 12.6531C51.2967 12.6531 52.249 14.4499 52.249 16.321H46.2586C46.2586 14.2978 47.0082 12.6566 49.1154 12.6566M68.1612 13.7071C71.1596 13.7071 71.7001 16.2503 71.7001 18.8677C71.7001 21.4852 71.2915 24.9232 68.4411 24.9232C65.581 24.9232 64.8314 22.9071 64.8957 19.0941C64.9665 15.2776 66.3209 13.7071 68.1612 13.7071ZM75.5028 29.8575C75.0028 29.8575 74.5232 30.0759 74.1697 30.4646C73.8161 30.8533 73.6175 31.3805 73.6175 31.9302C73.6181 32.3392 73.729 32.7387 73.936 33.0785C74.1431 33.4182 74.437 33.6829 74.7808 33.839C75.1246 33.9952 75.5027 34.0359 75.8675 33.9559C76.2323 33.876 76.5674 33.679 76.8304 33.3898C77.0934 33.1007 77.2726 32.7323 77.3453 32.3312C77.418 31.9302 77.381 31.5144 77.239 31.1365C77.0969 30.7585 76.8562 30.4353 76.5472 30.2077C76.2382 29.98 75.8747 29.8582 75.5028 29.8575ZM75.5028 30.0768C75.9499 30.0768 76.3787 30.2721 76.6948 30.6196C77.011 30.9672 77.1886 31.4387 77.1886 31.9302C77.1877 32.4215 77.0098 32.8924 76.6939 33.2398C76.3779 33.5871 75.9496 33.7827 75.5028 33.7837C75.0556 33.7827 74.627 33.5873 74.3105 33.24C73.9941 32.8927 73.8155 32.4218 73.8138 31.9302C73.8138 30.9045 74.5698 30.0768 75.5028 30.0768ZM74.8272 30.7913V32.9878H75.0588V32.0363H75.625L75.9982 32.9913H76.2556L75.8663 31.9727C75.9567 31.9472 76.0376 31.8916 76.098 31.8135C76.186 31.6999 76.235 31.5559 76.2363 31.4067C76.2363 31.0424 75.9789 30.7913 75.6089 30.7913H74.8272ZM75.0524 31.0318H75.6057C75.8374 31.0318 75.9854 31.1768 75.9854 31.4032C75.9854 31.6579 75.8277 31.8135 75.5736 31.8135H75.0524V31.0318Z" fill="#222222"/>
</svg>
