<svg width="79" height="40" viewBox="0 0 79 40" fill="none" xmlns="http://www.w3.org/2000/svg">
<path d="M39.5869 0.212494C27.2239 0.212494 17.2072 5.55526 17.2072 12.1442C17.2072 18.7332 27.2239 24.0802 39.5869 24.0802C51.95 24.0802 61.9628 18.7374 61.9628 12.1442C61.9628 5.55105 51.9422 0.212494 39.5869 0.212494ZM37.455 2.87335C41.8683 2.16009 46.3774 2.68791 50.5468 4.40587C51.49 5.38264 46.3375 8.52346 40.2066 9.87915C31.4488 11.7864 35.6153 4.48165 37.455 2.87335ZM22.4065 17.007C20.4577 15.525 16.7044 11.2769 22.9561 6.86042C25.2298 5.33958 27.751 4.30077 30.3848 3.7996C31.4878 3.54698 32.2712 3.8417 31.289 4.73426C28.5552 8.31697 26.2686 12.2719 24.4878 16.4976C24.176 17.647 23.5446 17.9417 22.4065 17.007ZM40.4093 21.933C36.7144 22.354 28.4984 21.0404 28.3269 19.8952C28.4906 17.1333 41.3915 12.5568 43.7144 15.083C44.6966 17.0912 42.8063 21.8193 40.4093 21.933ZM59.2033 13.9083C58.2562 16.2408 55.0719 18.8764 48.3915 20.6447C47.3664 20.8973 47.0157 20.2236 47.6821 19.5837C50.4387 15.7988 52.8116 11.7055 54.7601 7.37407C55.1498 6.39309 55.8982 6.78043 56.3698 7.15935C57.4905 7.75827 58.385 8.75752 58.9015 9.98763C59.4179 11.2177 59.5246 12.603 59.2033 13.9083ZM75.4015 29.3135H78.3793V39.6959H75.4015V29.3135ZM62.3993 32.8332V39.3927H65.7551V36.7866H71.4806V39.3927H74.7974V29.2882H65.5173C64.6706 29.3179 63.8688 29.7065 63.2853 30.37C62.7018 31.0334 62.3835 31.9183 62.3993 32.8332ZM65.7161 32.8753C65.7093 32.7465 65.7285 32.6175 65.7722 32.4974C65.816 32.3773 65.8834 32.2689 65.9697 32.1797C66.0561 32.0904 66.1593 32.0224 66.2723 31.9805C66.3853 31.9385 66.5053 31.9235 66.6242 31.9364H71.4494V34.5047H65.7278L65.7161 32.8753ZM58.7551 29.3345H50.083V39.3927H59.4372C60.7584 39.3927 61.8147 37.435 61.8341 36.6224V31.9912C61.7003 31.2236 61.3159 30.5333 60.7509 30.0458C60.1859 29.5583 59.4777 29.3059 58.7551 29.3345ZM58.8642 35.9698C58.8597 36.1306 58.8258 36.2887 58.7645 36.4353C58.7033 36.5818 58.6158 36.7139 58.5071 36.8238C58.3985 36.9337 58.2708 37.0194 58.1314 37.0759C57.9921 37.1323 57.8437 37.1585 57.695 37.1529H53.1192V31.8986H57.6248C57.7768 31.878 57.9311 31.8919 58.0779 31.9393C58.2247 31.9867 58.3607 32.0666 58.4773 32.174C58.5939 32.2813 58.6885 32.4137 58.7551 32.5627C58.8218 32.7118 58.8589 32.8741 58.8642 33.0395V35.9698ZM47.0663 29.3345H37.151V39.4138H40.4327V31.9238H44.9188C45.936 31.9238 46.2011 32.4333 46.2011 33.2879V39.3969H49.1788V31.6754C49.2054 31.3659 49.1695 31.0538 49.0735 30.7608C48.9775 30.4677 48.8238 30.2007 48.6229 29.9781C48.422 29.7555 48.1788 29.5827 47.9101 29.4716C47.6413 29.3605 47.3534 29.3137 47.0663 29.3345ZM33.5301 35.4394C33.5518 35.6383 33.5367 35.8399 33.4859 36.0325C33.435 36.2251 33.3492 36.4049 33.2336 36.5615C33.118 36.7181 32.9748 36.8484 32.8123 36.9448C32.6498 37.0413 32.4712 37.102 32.2868 37.1234H27.5006V29.3345H24.5229V39.3506H34.4383C35.1905 39.3506 36.5118 38.6181 36.5118 37.355V29.3345H33.5301V35.4394ZM18.1855 33.1995L15.0947 29.3345H12.156L16.6771 35.1952V39.3927H19.6587V35.4814L24.1448 29.3345H21.2411L18.1855 33.1995ZM8.83524 32.9174H3.44493V29.3345H0.428223V39.3506H3.40595V35.1573H8.83524V39.3927H11.8169V29.3345H8.83524V32.9174Z" fill="#222222"/>
</svg>
